<ttFont>
<head>
    <!-- Most of this table will be recalculated by the compiler -->
    <tableVersion value="1.0"/>
    <fontRevision value="1.301"/>
    <checkSumAdjustment value="0x5f158727"/>
    <magicNumber value="0x5f0f3cf5"/>
    <flags value="00000000 00001011"/>
    <unitsPerEm value="1000"/>
    <created value="Thu Dec  2 04:11:07 2010"/>
    <modified value="Thu Mar  6 17:43:02 2014"/>
    <xMin value="-256"/>
    <yMin value="-342"/>
    <xMax value="1588"/>
    <yMax value="1120"/>
    <macStyle value="00000000 00000000"/>
    <lowestRecPPEM value="9"/>
    <fontDirectionHint value="2"/>
    <indexToLocFormat value="0"/>
    <glyphDataFormat value="0"/>
  </head>
    <TTGlyph name=".notdef" xMin="0" yMin="-200" xMax="500" yMax="800">
      <contour>
        <pt x="0" y="800" on="1"/>
        <pt x="500" y="800" on="1"/>
        <pt x="500" y="-200" on="1"/>
        <pt x="0" y="-200" on="1"/>
      </contour>
      <contour>
        <pt x="250" y="360" on="1"/>
        <pt x="429" y="750" on="1"/>
        <pt x="71" y="750" on="1"/>
      </contour>
      <contour>
        <pt x="222" y="300" on="1"/>
        <pt x="50" y="676" on="1"/>
        <pt x="50" y="-76" on="1"/>
      </contour>
      <contour>
        <pt x="278" y="300" on="1"/>
        <pt x="450" y="-76" on="1"/>
        <pt x="450" y="676" on="1"/>
      </contour>
      <contour>
        <pt x="71" y="-150" on="1"/>
        <pt x="429" y="-150" on="1"/>
        <pt x="250" y="240" on="1"/>
      </contour>
    </TTGlyph>
    <TTGlyph name="A" xMin="5" yMin="-5" xMax="791" yMax="706">
      <contour>
        <pt x="791" y="17" on="1"/>
        <pt x="791" y="11" on="0"/>
        <pt x="786" y="-5" on="0"/>
        <pt x="783" y="-5" on="1"/>
        <pt x="733" y="-5" on="0"/>
        <pt x="638" y="0" on="0"/>
        <pt x="596" y="0" on="1"/>
        <pt x="549" y="0" on="0"/>
        <pt x="446" y="-5" on="0"/>
        <pt x="396" y="-5" on="1"/>
        <pt x="392" y="-5" on="0"/>
        <pt x="388" y="11" on="0"/>
        <pt x="388" y="17" on="1"/>
        <pt x="388" y="22" on="0"/>
        <pt x="390" y="38" on="0"/>
        <pt x="394" y="39" on="1"/>
        <pt x="443" y="41" on="0"/>
        <pt x="473" y="62" on="0"/>
        <pt x="473" y="81" on="1"/>
        <pt x="473" y="90" on="0"/>
        <pt x="467" y="111" on="0"/>
        <pt x="462" y="123" on="1"/>
        <pt x="435" y="193" on="1"/>
        <pt x="225" y="193" on="1"/>
        <pt x="201" y="135" on="1"/>
        <pt x="196" y="122" on="0"/>
        <pt x="188" y="98" on="0"/>
        <pt x="188" y="87" on="1"/>
        <pt x="188" y="67" on="0"/>
        <pt x="215" y="41" on="0"/>
        <pt x="263" y="39" on="1"/>
        <pt x="266" y="38" on="0"/>
        <pt x="268" y="22" on="0"/>
        <pt x="268" y="17" on="1"/>
        <pt x="268" y="11" on="0"/>
        <pt x="264" y="-5" on="0"/>
        <pt x="260" y="-5" on="1"/>
        <pt x="238" y="-5" on="0"/>
        <pt x="207" y="-3" on="0"/>
        <pt x="179" y="-2" on="0"/>
        <pt x="149" y="0" on="0"/>
        <pt x="129" y="0" on="1"/>
        <pt x="112" y="0" on="0"/>
        <pt x="85" y="-2" on="0"/>
        <pt x="58" y="-3" on="0"/>
        <pt x="30" y="-5" on="0"/>
        <pt x="12" y="-5" on="1"/>
        <pt x="9" y="-5" on="0"/>
        <pt x="5" y="11" on="0"/>
        <pt x="5" y="17" on="1"/>
        <pt x="6" y="22" on="0"/>
        <pt x="13" y="38" on="0"/>
        <pt x="17" y="39" on="1"/>
        <pt x="39" y="41" on="0"/>
        <pt x="71" y="53" on="0"/>
        <pt x="98" y="77" on="0"/>
        <pt x="121" y="113" on="0"/>
        <pt x="133" y="139" on="1"/>
        <pt x="381" y="698" on="1"/>
        <pt x="383" y="701" on="0"/>
        <pt x="400" y="706" on="0"/>
        <pt x="411" y="706" on="1"/>
        <pt x="421" y="706" on="0"/>
        <pt x="439" y="701" on="0"/>
        <pt x="441" y="698" on="1"/>
        <pt x="663" y="139" on="1"/>
        <pt x="673" y="113" on="0"/>
        <pt x="693" y="77" on="0"/>
        <pt x="720" y="54" on="0"/>
        <pt x="755" y="42" on="0"/>
        <pt x="781" y="39" on="1"/>
        <pt x="784" y="38" on="0"/>
        <pt x="791" y="22" on="0"/>
      </contour>
      <contour>
        <pt x="332" y="461" on="1"/>
        <pt x="244" y="241" on="1"/>
        <pt x="416" y="241" on="1"/>
      </contour>
    </TTGlyph>
    <TTGlyph name="A.sc" xMin="-22" yMin="-5" xMax="556" yMax="494">
      <component glyphName="a.sc" x="0" y="0" flags="0x204"/>
    </TTGlyph>
    <TTGlyph name="AE" xMin="-2" yMin="-5" xMax="1082" yMax="690">
      <contour>
        <pt x="1081" y="229" on="1"/>
        <pt x="1078" y="205" on="0"/>
        <pt x="1071" y="143" on="0"/>
        <pt x="1064" y="79" on="0"/>
        <pt x="1059" y="18" on="0"/>
        <pt x="1058" y="-5" on="1"/>
        <pt x="1034" y="-4" on="0"/>
        <pt x="949" y="-3" on="0"/>
        <pt x="857" y="-1" on="0"/>
        <pt x="772" y="0" on="0"/>
        <pt x="747" y="0" on="1"/>
        <pt x="731" y="0" on="0"/>
        <pt x="678" y="0" on="0"/>
        <pt x="617" y="-1" on="0"/>
        <pt x="550" y="-2" on="0"/>
        <pt x="489" y="-3" on="0"/>
        <pt x="438" y="-5" on="0"/>
        <pt x="422" y="-5" on="1"/>
        <pt x="419" y="-5" on="0"/>
        <pt x="414" y="11" on="0"/>
        <pt x="414" y="17" on="1"/>
        <pt x="414" y="22" on="0"/>
        <pt x="419" y="38" on="0"/>
        <pt x="422" y="39" on="1"/>
        <pt x="450" y="42" on="0"/>
        <pt x="488" y="54" on="0"/>
        <pt x="509" y="74" on="0"/>
        <pt x="518" y="103" on="0"/>
        <pt x="518" y="123" on="1"/>
        <pt x="518" y="225" on="1"/>
        <pt x="286" y="225" on="1"/>
        <pt x="231" y="139" on="1"/>
        <pt x="217" y="116" on="0"/>
        <pt x="204" y="87" on="0"/>
        <pt x="204" y="76" on="1"/>
        <pt x="204" y="62" on="0"/>
        <pt x="231" y="41" on="0"/>
        <pt x="272" y="39" on="1"/>
        <pt x="276" y="38" on="0"/>
        <pt x="278" y="22" on="0"/>
        <pt x="278" y="17" on="1"/>
        <pt x="278" y="11" on="0"/>
        <pt x="274" y="-5" on="0"/>
        <pt x="270" y="-5" on="1"/>
        <pt x="248" y="-5" on="0"/>
        <pt x="215" y="-3" on="0"/>
        <pt x="183" y="-2" on="0"/>
        <pt x="151" y="0" on="0"/>
        <pt x="130" y="0" on="1"/>
        <pt x="97" y="0" on="0"/>
        <pt x="41" y="-5" on="0"/>
        <pt x="6" y="-5" on="1"/>
        <pt x="3" y="-5" on="0"/>
        <pt x="-2" y="11" on="0"/>
        <pt x="-1" y="17" on="1"/>
        <pt x="0" y="22" on="0"/>
        <pt x="7" y="38" on="0"/>
        <pt x="11" y="39" on="1"/>
        <pt x="54" y="43" on="0"/>
        <pt x="117" y="88" on="0"/>
        <pt x="153" y="139" on="1"/>
        <pt x="430" y="554" on="1"/>
        <pt x="453" y="588" on="0"/>
        <pt x="418" y="643" on="0"/>
        <pt x="351" y="646" on="1"/>
        <pt x="347" y="647" on="0"/>
        <pt x="343" y="663" on="0"/>
        <pt x="343" y="668" on="1"/>
        <pt x="343" y="674" on="0"/>
        <pt x="347" y="690" on="0"/>
        <pt x="351" y="690" on="1"/>
        <pt x="367" y="689" on="0"/>
        <pt x="427" y="688" on="0"/>
        <pt x="502" y="687" on="0"/>
        <pt x="584" y="686" on="0"/>
        <pt x="659" y="685" on="0"/>
        <pt x="720" y="685" on="0"/>
        <pt x="737" y="685" on="1"/>
        <pt x="762" y="685" on="0"/>
        <pt x="848" y="686" on="0"/>
        <pt x="941" y="687" on="0"/>
        <pt x="1025" y="689" on="0"/>
        <pt x="1049" y="690" on="1"/>
        <pt x="1049" y="669" on="0"/>
        <pt x="1050" y="611" on="0"/>
        <pt x="1053" y="550" on="0"/>
        <pt x="1056" y="490" on="0"/>
        <pt x="1057" y="467" on="1"/>
        <pt x="1057" y="462" on="0"/>
        <pt x="1040" y="454" on="0"/>
        <pt x="1029" y="454" on="1"/>
        <pt x="1022" y="454" on="0"/>
        <pt x="1012" y="458" on="0"/>
        <pt x="1012" y="460" on="1"/>
        <pt x="1008" y="492" on="0"/>
        <pt x="982" y="555" on="0"/>
        <pt x="937" y="605" on="0"/>
        <pt x="874" y="636" on="0"/>
        <pt x="834" y="636" on="1"/>
        <pt x="774" y="636" on="1"/>
        <pt x="764" y="636" on="0"/>
        <pt x="744" y="631" on="0"/>
        <pt x="727" y="618" on="0"/>
        <pt x="716" y="595" on="0"/>
        <pt x="716" y="577" on="1"/>
        <pt x="716" y="370" on="1"/>
        <pt x="750" y="370" on="1"/>
        <pt x="802" y="370" on="0"/>
        <pt x="861" y="430" on="0"/>
        <pt x="866" y="479" on="1"/>
        <pt x="867" y="483" on="0"/>
        <pt x="883" y="487" on="0"/>
        <pt x="888" y="487" on="1"/>
        <pt x="894" y="487" on="0"/>
        <pt x="910" y="483" on="0"/>
        <pt x="910" y="479" on="1"/>
        <pt x="910" y="441" on="0"/>
        <pt x="905" y="379" on="0"/>
        <pt x="905" y="344" on="1"/>
        <pt x="905" y="308" on="0"/>
        <pt x="910" y="250" on="0"/>
        <pt x="910" y="212" on="1"/>
        <pt x="910" y="208" on="0"/>
        <pt x="894" y="204" on="0"/>
        <pt x="888" y="204" on="1"/>
        <pt x="883" y="204" on="0"/>
        <pt x="867" y="208" on="0"/>
        <pt x="866" y="212" on="1"/>
        <pt x="861" y="261" on="0"/>
        <pt x="802" y="321" on="0"/>
        <pt x="750" y="321" on="1"/>
        <pt x="716" y="321" on="1"/>
        <pt x="716" y="108" on="1"/>
        <pt x="716" y="90" on="0"/>
        <pt x="727" y="67" on="0"/>
        <pt x="744" y="54" on="0"/>
        <pt x="764" y="49" on="0"/>
        <pt x="774" y="49" on="1"/>
        <pt x="826" y="49" on="1"/>
        <pt x="866" y="49" on="0"/>
        <pt x="936" y="79" on="0"/>
        <pt x="990" y="131" on="0"/>
        <pt x="1027" y="200" on="0"/>
        <pt x="1035" y="239" on="1"/>
        <pt x="1036" y="243" on="0"/>
        <pt x="1050" y="243" on="1"/>
        <pt x="1062" y="243" on="0"/>
        <pt x="1082" y="235" on="0"/>
      </contour>
      <contour>
        <pt x="518" y="591" on="1"/>
        <pt x="315" y="273" on="1"/>
        <pt x="518" y="273" on="1"/>
      </contour>
    </TTGlyph>
    <TTGlyph name="AE.sc" xMin="0" yMin="-5" xMax="821" yMax="481">
      <component glyphName="ae.sc" x="0" y="0" flags="0x204"/>
    </TTGlyph>
    <TTGlyph name="AEacute" xMin="-2" yMin="-5" xMax="1082" yMax="971">
      <component glyphName="AE" x="0" y="0" flags="0x204"/>
      <component glyphName="acute.cap" x="500" y="0" flags="0x4"/>
    </TTGlyph>
    <TTGlyph name="AEacute.sc" xMin="0" yMin="-5" xMax="821" yMax="759">
      <component glyphName="acute" x="368" y="15" flags="0x4"/>
      <component glyphName="ae.sc" x="0" y="0" flags="0x4"/>
    </TTGlyph>
    <TTGlyph name="Aacute" xMin="5" yMin="-5" xMax="791" yMax="986">
      <component glyphName="A" x="0" y="0" flags="0x204"/>
      <component glyphName="acute.cap" x="272" y="15" flags="0x4"/>
    </TTGlyph>
    <TTGlyph name="Aacute.sc" xMin="-22" yMin="-5" xMax="556" yMax="769">
      <component glyphName="a.sc" x="0" y="0" flags="0x204"/>
      <component glyphName="acute" x="136" y="25" flags="0x4"/>
    </TTGlyph>
    <TTGlyph name="Abreve" xMin="5" yMin="-5" xMax="791" yMax="971">
      <component glyphName="A" x="0" y="0" flags="0x204"/>
      <component glyphName="breve.cap" x="237" y="15" flags="0x4"/>
    </TTGlyph>
    <TTGlyph name="Abreve.sc" xMin="-22" yMin="-5" xMax="556" yMax="738">
      <component glyphName="a.sc" x="0" y="0" flags="0x204"/>
      <component glyphName="breve" x="77" y="25" flags="0x4"/>
    </TTGlyph>
    <TTGlyph name="Acircumflex" xMin="5" yMin="-5" xMax="791" yMax="977">
      <component glyphName="A" x="0" y="0" flags="0x204"/>
      <component glyphName="circumflex.cap" x="212" y="15" flags="0x4"/>
    </TTGlyph>
    <TTGlyph name="Acircumflex.sc" xMin="-22" yMin="-5" xMax="556" yMax="751">
      <component glyphName="a.sc" x="0" y="0" flags="0x204"/>
      <component glyphName="circumflex" x="78" y="5" flags="0x4"/>
    </TTGlyph>
    <TTGlyph name="Adieresis" xMin="5" yMin="-5" xMax="791" yMax="959">
      <component glyphName="A" x="0" y="0" flags="0x204"/>
      <component glyphName="dieresis.cap" x="207" y="15" flags="0x4"/>
    </TTGlyph>
    <TTGlyph name="Adieresis.sc" xMin="-22" yMin="-5" xMax="556" yMax="746">
      <component glyphName="a.sc" x="0" y="0" flags="0x204"/>
      <component glyphName="dieresis" x="71" y="25" flags="0x4"/>
    </TTGlyph>
    <TTGlyph name="Agrave" xMin="5" yMin="-5" xMax="791" yMax="986">
      <component glyphName="A" x="0" y="0" flags="0x204"/>
      <component glyphName="grave.cap" x="161" y="15" flags="0x4"/>
    </TTGlyph>
    <TTGlyph name="Agrave.sc" xMin="-22" yMin="-5" xMax="556" yMax="769">
      <component glyphName="a.sc" x="0" y="0" flags="0x204"/>
      <component glyphName="grave" x="29" y="25" flags="0x4"/>
    </TTGlyph>
    <TTGlyph name="Amacron" xMin="5" yMin="-5" xMax="791" yMax="896">
      <component glyphName="A" x="0" y="0" flags="0x204"/>
      <component glyphName="macron.cap" x="197" y="15" flags="0x4"/>
    </TTGlyph>
    <TTGlyph name="Amacron.sc" xMin="-22" yMin="-5" xMax="556" yMax="676">
      <component glyphName="a.sc" x="0" y="0" flags="0x204"/>
      <component glyphName="macron" x="77" y="25" flags="0x4"/>
    </TTGlyph>
    <TTGlyph name="Aogonek" xMin="5" yMin="-212" xMax="791" yMax="706">
      <contour>
        <pt x="758" y="-172" on="1"/>
        <pt x="743" y="-186" on="0"/>
        <pt x="693" y="-212" on="0"/>
        <pt x="655" y="-212" on="1"/>
        <pt x="601" y="-212" on="0"/>
        <pt x="543" y="-162" on="0"/>
        <pt x="543" y="-124" on="1"/>
        <pt x="543" y="-87" on="0"/>
        <pt x="588" y="-26" on="0"/>
        <pt x="623" y="0" on="1"/>
        <pt x="596" y="0" on="1"/>
        <pt x="549" y="0" on="0"/>
        <pt x="446" y="-5" on="0"/>
        <pt x="396" y="-5" on="1"/>
        <pt x="392" y="-5" on="0"/>
        <pt x="388" y="11" on="0"/>
        <pt x="388" y="17" on="1"/>
        <pt x="388" y="22" on="0"/>
        <pt x="390" y="38" on="0"/>
        <pt x="394" y="39" on="1"/>
        <pt x="443" y="41" on="0"/>
        <pt x="473" y="62" on="0"/>
        <pt x="473" y="81" on="1"/>
        <pt x="473" y="90" on="0"/>
        <pt x="467" y="111" on="0"/>
        <pt x="462" y="123" on="1"/>
        <pt x="435" y="193" on="1"/>
        <pt x="225" y="193" on="1"/>
        <pt x="201" y="135" on="1"/>
        <pt x="196" y="122" on="0"/>
        <pt x="188" y="98" on="0"/>
        <pt x="188" y="87" on="1"/>
        <pt x="188" y="67" on="0"/>
        <pt x="215" y="41" on="0"/>
        <pt x="263" y="39" on="1"/>
        <pt x="266" y="38" on="0"/>
        <pt x="268" y="22" on="0"/>
        <pt x="268" y="17" on="1"/>
        <pt x="268" y="11" on="0"/>
        <pt x="264" y="-5" on="0"/>
        <pt x="260" y="-5" on="1"/>
        <pt x="238" y="-5" on="0"/>
        <pt x="207" y="-3" on="0"/>
        <pt x="179" y="-2" on="0"/>
        <pt x="149" y="0" on="0"/>
        <pt x="129" y="0" on="1"/>
        <pt x="112" y="0" on="0"/>
        <pt x="85" y="-2" on="0"/>
        <pt x="58" y="-3" on="0"/>
        <pt x="30" y="-5" on="0"/>
        <pt x="12" y="-5" on="1"/>
        <pt x="9" y="-5" on="0"/>
        <pt x="5" y="11" on="0"/>
        <pt x="5" y="17" on="1"/>
        <pt x="6" y="22" on="0"/>
        <pt x="13" y="38" on="0"/>
        <pt x="17" y="39" on="1"/>
        <pt x="39" y="41" on="0"/>
        <pt x="71" y="53" on="0"/>
        <pt x="98" y="77" on="0"/>
        <pt x="121" y="113" on="0"/>
        <pt x="133" y="139" on="1"/>
        <pt x="381" y="698" on="1"/>
        <pt x="383" y="701" on="0"/>
        <pt x="400" y="706" on="0"/>
        <pt x="411" y="706" on="1"/>
        <pt x="421" y="706" on="0"/>
        <pt x="439" y="701" on="0"/>
        <pt x="441" y="698" on="1"/>
        <pt x="663" y="139" on="1"/>
        <pt x="673" y="113" on="0"/>
        <pt x="693" y="77" on="0"/>
        <pt x="720" y="54" on="0"/>
        <pt x="755" y="42" on="0"/>
        <pt x="781" y="39" on="1"/>
        <pt x="784" y="38" on="0"/>
        <pt x="791" y="22" on="0"/>
        <pt x="791" y="17" on="1"/>
        <pt x="791" y="11" on="0"/>
        <pt x="786" y="-5" on="0"/>
        <pt x="783" y="-5" on="1"/>
        <pt x="760" y="-5" on="0"/>
        <pt x="717" y="-4" on="0"/>
        <pt x="696" y="-3" on="1"/>
        <pt x="673" y="-25" on="0"/>
        <pt x="652" y="-74" on="0"/>
        <pt x="652" y="-99" on="1"/>
        <pt x="652" y="-123" on="0"/>
        <pt x="679" y="-150" on="0"/>
        <pt x="701" y="-150" on="1"/>
        <pt x="708" y="-150" on="0"/>
        <pt x="735" y="-143" on="0"/>
        <pt x="744" y="-139" on="1"/>
        <pt x="748" y="-138" on="0"/>
        <pt x="755" y="-148" on="0"/>
        <pt x="757" y="-153" on="1"/>
        <pt x="762" y="-166" on="0"/>
      </contour>
      <contour>
        <pt x="332" y="461" on="1"/>
        <pt x="244" y="241" on="1"/>
        <pt x="416" y="241" on="1"/>
      </contour>
    </TTGlyph>
    <TTGlyph name="Aogonek.sc" xMin="-22" yMin="-212" xMax="556" yMax="494">
      <component glyphName="aogonek.sc" x="0" y="0" flags="0x204"/>
    </TTGlyph>
    <TTGlyph name="Aring" xMin="5" yMin="-6" xMax="791" yMax="883">
      <contour>
        <pt x="791" y="16" on="1"/>
        <pt x="791" y="11" on="0"/>
        <pt x="786" y="-6" on="0"/>
        <pt x="783" y="-6" on="1"/>
        <pt x="733" y="-6" on="0"/>
        <pt x="638" y="0" on="0"/>
        <pt x="596" y="0" on="1"/>
        <pt x="549" y="0" on="0"/>
        <pt x="446" y="-6" on="0"/>
        <pt x="396" y="-6" on="1"/>
        <pt x="392" y="-6" on="0"/>
        <pt x="388" y="11" on="0"/>
        <pt x="388" y="16" on="1"/>
        <pt x="388" y="22" on="0"/>
        <pt x="390" y="38" on="0"/>
        <pt x="394" y="39" on="1"/>
        <pt x="443" y="41" on="0"/>
        <pt x="473" y="62" on="0"/>
        <pt x="473" y="81" on="1"/>
        <pt x="473" y="90" on="0"/>
        <pt x="467" y="111" on="0"/>
        <pt x="462" y="123" on="1"/>
        <pt x="435" y="193" on="1"/>
        <pt x="225" y="193" on="1"/>
        <pt x="201" y="135" on="1"/>
        <pt x="196" y="121" on="0"/>
        <pt x="188" y="98" on="0"/>
        <pt x="188" y="87" on="1"/>
        <pt x="188" y="66" on="0"/>
        <pt x="215" y="41" on="0"/>
        <pt x="263" y="39" on="1"/>
        <pt x="266" y="38" on="0"/>
        <pt x="268" y="22" on="0"/>
        <pt x="268" y="16" on="1"/>
        <pt x="268" y="11" on="0"/>
        <pt x="264" y="-6" on="0"/>
        <pt x="260" y="-6" on="1"/>
        <pt x="238" y="-6" on="0"/>
        <pt x="207" y="-4" on="0"/>
        <pt x="179" y="-2" on="0"/>
        <pt x="149" y="0" on="0"/>
        <pt x="129" y="0" on="1"/>
        <pt x="112" y="0" on="0"/>
        <pt x="85" y="-2" on="0"/>
        <pt x="58" y="-4" on="0"/>
        <pt x="30" y="-6" on="0"/>
        <pt x="12" y="-6" on="1"/>
        <pt x="9" y="-6" on="0"/>
        <pt x="5" y="11" on="0"/>
        <pt x="5" y="16" on="1"/>
        <pt x="6" y="22" on="0"/>
        <pt x="13" y="38" on="0"/>
        <pt x="17" y="39" on="1"/>
        <pt x="39" y="41" on="0"/>
        <pt x="71" y="53" on="0"/>
        <pt x="98" y="77" on="0"/>
        <pt x="121" y="113" on="0"/>
        <pt x="133" y="139" on="1"/>
        <pt x="366" y="664" on="1"/>
        <pt x="331" y="677" on="0"/>
        <pt x="291" y="735" on="0"/>
        <pt x="291" y="770" on="1"/>
        <pt x="291" y="792" on="0"/>
        <pt x="309" y="833" on="0"/>
        <pt x="340" y="864" on="0"/>
        <pt x="384" y="883" on="0"/>
        <pt x="411" y="883" on="1"/>
        <pt x="437" y="883" on="0"/>
        <pt x="481" y="864" on="0"/>
        <pt x="513" y="833" on="0"/>
        <pt x="531" y="792" on="0"/>
        <pt x="531" y="770" on="1"/>
        <pt x="531" y="735" on="0"/>
        <pt x="489" y="676" on="0"/>
        <pt x="454" y="663" on="1"/>
        <pt x="663" y="139" on="1"/>
        <pt x="673" y="113" on="0"/>
        <pt x="693" y="77" on="0"/>
        <pt x="720" y="54" on="0"/>
        <pt x="755" y="42" on="0"/>
        <pt x="781" y="39" on="1"/>
        <pt x="784" y="38" on="0"/>
        <pt x="791" y="22" on="0"/>
      </contour>
      <contour>
        <pt x="474" y="770" on="1"/>
        <pt x="474" y="799" on="0"/>
        <pt x="439" y="839" on="0"/>
        <pt x="411" y="839" on="1"/>
        <pt x="384" y="839" on="0"/>
        <pt x="348" y="799" on="0"/>
        <pt x="348" y="770" on="1"/>
        <pt x="348" y="739" on="0"/>
        <pt x="384" y="700" on="0"/>
        <pt x="411" y="700" on="1"/>
        <pt x="439" y="700" on="0"/>
        <pt x="474" y="739" on="0"/>
      </contour>
      <contour>
        <pt x="332" y="461" on="1"/>
        <pt x="244" y="241" on="1"/>
        <pt x="416" y="241" on="1"/>
      </contour>
    </TTGlyph>
    <TTGlyph name="Aring.sc" xMin="-22" yMin="-5" xMax="556" yMax="668">
      <component glyphName="aring.sc" x="0" y="0" flags="0x204"/>
    </TTGlyph>
    <TTGlyph name="Aringacute" xMin="5" yMin="-6" xMax="791" yMax="1120">
      <component glyphName="Aring" x="0" y="0" flags="0x204"/>
      <component glyphName="acute" x="293" y="376" flags="0x4"/>
    </TTGlyph>
    <TTGlyph name="Aringacute.sc" xMin="-22" yMin="-5" xMax="556" yMax="909">
      <component glyphName="acute" x="167" y="165" flags="0x4"/>
      <component glyphName="aring.sc" x="0" y="0" flags="0x4"/>
    </TTGlyph>
    <TTGlyph name="Atilde" xMin="5" yMin="-5" xMax="791" yMax="985">
      <component glyphName="A" x="0" y="0" flags="0x204"/>
      <component glyphName="tilde.cap" x="224" y="15" flags="0x4"/>
    </TTGlyph>
    <TTGlyph name="Atilde.sc" xMin="-22" yMin="-5" xMax="556" yMax="764">
      <component glyphName="a.sc" x="0" y="0" flags="0x204"/>
      <component glyphName="tilde" x="86" y="25" flags="0x4"/>
    </TTGlyph>
    <TTGlyph name="B" xMin="43" yMin="-5" xMax="751" yMax="690">
      <contour>
        <pt x="751" y="188" on="1"/>
        <pt x="751" y="148" on="0"/>
        <pt x="722" y="78" on="0"/>
        <pt x="655" y="25" on="0"/>
        <pt x="547" y="-5" on="0"/>
        <pt x="468" y="-5" on="1"/>
        <pt x="418" y="-5" on="0"/>
        <pt x="303" y="0" on="0"/>
        <pt x="256" y="0" on="1"/>
        <pt x="209" y="0" on="0"/>
        <pt x="101" y="-5" on="0"/>
        <pt x="51" y="-5" on="1"/>
        <pt x="48" y="-5" on="0"/>
        <pt x="43" y="11" on="0"/>
        <pt x="43" y="17" on="1"/>
        <pt x="43" y="22" on="0"/>
        <pt x="48" y="38" on="0"/>
        <pt x="51" y="39" on="1"/>
        <pt x="79" y="42" on="0"/>
        <pt x="117" y="54" on="0"/>
        <pt x="138" y="74" on="0"/>
        <pt x="147" y="103" on="0"/>
        <pt x="147" y="123" on="1"/>
        <pt x="147" y="562" on="1"/>
        <pt x="147" y="602" on="0"/>
        <pt x="108" y="640" on="0"/>
        <pt x="51" y="646" on="1"/>
        <pt x="48" y="647" on="0"/>
        <pt x="43" y="663" on="0"/>
        <pt x="43" y="668" on="1"/>
        <pt x="43" y="674" on="0"/>
        <pt x="48" y="690" on="0"/>
        <pt x="51" y="690" on="1"/>
        <pt x="101" y="690" on="0"/>
        <pt x="203" y="685" on="0"/>
        <pt x="250" y="685" on="1"/>
        <pt x="297" y="685" on="0"/>
        <pt x="398" y="690" on="0"/>
        <pt x="448" y="690" on="1"/>
        <pt x="518" y="690" on="0"/>
        <pt x="618" y="667" on="0"/>
        <pt x="683" y="625" on="0"/>
        <pt x="713" y="568" on="0"/>
        <pt x="713" y="534" on="1"/>
        <pt x="713" y="477" on="0"/>
        <pt x="614" y="389" on="0"/>
        <pt x="517" y="375" on="1"/>
        <pt x="574" y="372" on="0"/>
        <pt x="662" y="339" on="0"/>
        <pt x="721" y="287" on="0"/>
        <pt x="751" y="222" on="0"/>
      </contour>
      <contour>
        <pt x="506" y="521" on="1"/>
        <pt x="506" y="585" on="0"/>
        <pt x="458" y="641" on="0"/>
        <pt x="404" y="641" on="1"/>
        <pt x="392" y="641" on="1"/>
        <pt x="373" y="641" on="0"/>
        <pt x="345" y="620" on="0"/>
        <pt x="345" y="595" on="1"/>
        <pt x="345" y="393" on="1"/>
        <pt x="398" y="393" on="1"/>
        <pt x="458" y="393" on="0"/>
        <pt x="506" y="454" on="0"/>
      </contour>
      <contour>
        <pt x="545" y="198" on="1"/>
        <pt x="545" y="269" on="0"/>
        <pt x="481" y="345" on="0"/>
        <pt x="420" y="345" on="1"/>
        <pt x="345" y="345" on="1"/>
        <pt x="345" y="107" on="1"/>
        <pt x="345" y="73" on="0"/>
        <pt x="382" y="44" on="0"/>
        <pt x="412" y="44" on="1"/>
        <pt x="436" y="44" on="0"/>
        <pt x="483" y="63" on="0"/>
        <pt x="521" y="101" on="0"/>
        <pt x="545" y="159" on="0"/>
      </contour>
    </TTGlyph>
    <TTGlyph name="B.sc" xMin="27" yMin="-5" xMax="556" yMax="481">
      <component glyphName="b.sc" x="0" y="0" flags="0x204"/>
    </TTGlyph>
    <TTGlyph name="C" xMin="42" yMin="-21" xMax="737" yMax="706">
      <contour>
        <pt x="737" y="240" on="1"/>
        <pt x="734" y="219" on="0"/>
        <pt x="727" y="161" on="0"/>
        <pt x="719" y="100" on="0"/>
        <pt x="712" y="42" on="0"/>
        <pt x="710" y="22" on="1"/>
        <pt x="687" y="22" on="0"/>
        <pt x="631" y="9" on="0"/>
        <pt x="567" y="-8" on="0"/>
        <pt x="495" y="-21" on="0"/>
        <pt x="456" y="-21" on="1"/>
        <pt x="352" y="-21" on="0"/>
        <pt x="196" y="39" on="0"/>
        <pt x="93" y="140" on="0"/>
        <pt x="42" y="270" on="0"/>
        <pt x="42" y="339" on="1"/>
        <pt x="42" y="412" on="0"/>
        <pt x="100" y="545" on="0"/>
        <pt x="210" y="646" on="0"/>
        <pt x="366" y="706" on="0"/>
        <pt x="464" y="706" on="1"/>
        <pt x="507" y="706" on="0"/>
        <pt x="575" y="697" on="0"/>
        <pt x="633" y="685" on="0"/>
        <pt x="682" y="676" on="0"/>
        <pt x="705" y="676" on="1"/>
        <pt x="706" y="653" on="0"/>
        <pt x="709" y="595" on="0"/>
        <pt x="713" y="535" on="0"/>
        <pt x="717" y="478" on="0"/>
        <pt x="719" y="458" on="1"/>
        <pt x="719" y="454" on="0"/>
        <pt x="700" y="450" on="0"/>
        <pt x="694" y="450" on="1"/>
        <pt x="689" y="450" on="0"/>
        <pt x="676" y="453" on="0"/>
        <pt x="674" y="458" on="1"/>
        <pt x="668" y="495" on="0"/>
        <pt x="629" y="566" on="0"/>
        <pt x="572" y="623" on="0"/>
        <pt x="500" y="658" on="0"/>
        <pt x="460" y="658" on="1"/>
        <pt x="401" y="658" on="0"/>
        <pt x="320" y="610" on="0"/>
        <pt x="270" y="525" on="0"/>
        <pt x="248" y="408" on="0"/>
        <pt x="248" y="339" on="1"/>
        <pt x="248" y="271" on="0"/>
        <pt x="270" y="157" on="0"/>
        <pt x="319" y="74" on="0"/>
        <pt x="398" y="27" on="0"/>
        <pt x="456" y="27" on="1"/>
        <pt x="504" y="27" on="0"/>
        <pt x="579" y="63" on="0"/>
        <pt x="637" y="122" on="0"/>
        <pt x="679" y="199" on="0"/>
        <pt x="693" y="240" on="1"/>
        <pt x="695" y="245" on="0"/>
        <pt x="709" y="248" on="0"/>
        <pt x="714" y="248" on="1"/>
        <pt x="720" y="248" on="0"/>
        <pt x="736" y="243" on="0"/>
      </contour>
    </TTGlyph>
    <TTGlyph name="C.sc" xMin="30" yMin="-18" xMax="542" yMax="497">
      <component glyphName="c.sc" x="0" y="0" flags="0x204"/>
    </TTGlyph>
    <TTGlyph name="Cacute" xMin="42" yMin="-21" xMax="737" yMax="986">
      <component glyphName="C" x="0" y="0" flags="0x204"/>
      <component glyphName="acute.cap" x="304" y="15" flags="0x4"/>
    </TTGlyph>
    <TTGlyph name="Cacute.sc" xMin="30" yMin="-18" xMax="542" yMax="769">
      <component glyphName="c.sc" x="0" y="0" flags="0x204"/>
      <component glyphName="acute" x="177" y="25" flags="0x4"/>
    </TTGlyph>
    <TTGlyph name="Ccaron" xMin="42" yMin="-21" xMax="737" yMax="976">
      <component glyphName="C" x="0" y="0" flags="0x204"/>
      <component glyphName="caron.cap" x="243" y="15" flags="0x4"/>
    </TTGlyph>
    <TTGlyph name="Ccaron.sc" xMin="30" yMin="-18" xMax="542" yMax="755">
      <component glyphName="c.sc" x="0" y="0" flags="0x204"/>
      <component glyphName="caron" x="119" y="25" flags="0x4"/>
    </TTGlyph>
    <TTGlyph name="Ccedilla" xMin="42" yMin="-232" xMax="737" yMax="706">
      <contour>
        <pt x="737" y="240" on="1"/>
        <pt x="734" y="219" on="0"/>
        <pt x="727" y="161" on="0"/>
        <pt x="719" y="100" on="0"/>
        <pt x="712" y="42" on="0"/>
        <pt x="710" y="22" on="1"/>
        <pt x="689" y="22" on="0"/>
        <pt x="640" y="11" on="0"/>
        <pt x="583" y="-4" on="0"/>
        <pt x="520" y="-17" on="0"/>
        <pt x="486" y="-20" on="1"/>
        <pt x="477" y="-35" on="1"/>
        <pt x="474" y="-40" on="0"/>
        <pt x="474" y="-44" on="1"/>
        <pt x="474" y="-52" on="0"/>
        <pt x="484" y="-59" on="1"/>
        <pt x="506" y="-73" on="0"/>
        <pt x="540" y="-111" on="0"/>
        <pt x="540" y="-142" on="1"/>
        <pt x="540" y="-164" on="0"/>
        <pt x="515" y="-197" on="0"/>
        <pt x="478" y="-220" on="0"/>
        <pt x="433" y="-232" on="0"/>
        <pt x="412" y="-232" on="1"/>
        <pt x="374" y="-232" on="0"/>
        <pt x="340" y="-207" on="0"/>
        <pt x="340" y="-192" on="1"/>
        <pt x="340" y="-181" on="0"/>
        <pt x="356" y="-161" on="0"/>
        <pt x="370" y="-161" on="1"/>
        <pt x="380" y="-161" on="0"/>
        <pt x="396" y="-170" on="0"/>
        <pt x="410" y="-182" on="0"/>
        <pt x="424" y="-191" on="0"/>
        <pt x="433" y="-191" on="1"/>
        <pt x="456" y="-191" on="0"/>
        <pt x="456" y="-159" on="1"/>
        <pt x="456" y="-141" on="0"/>
        <pt x="416" y="-112" on="0"/>
        <pt x="394" y="-101" on="1"/>
        <pt x="384" y="-96" on="0"/>
        <pt x="384" y="-86" on="1"/>
        <pt x="384" y="-82" on="0"/>
        <pt x="387" y="-77" on="1"/>
        <pt x="426" y="-20" on="1"/>
        <pt x="329" y="-16" on="0"/>
        <pt x="185" y="48" on="0"/>
        <pt x="89" y="147" on="0"/>
        <pt x="42" y="272" on="0"/>
        <pt x="42" y="339" on="1"/>
        <pt x="42" y="412" on="0"/>
        <pt x="100" y="545" on="0"/>
        <pt x="210" y="646" on="0"/>
        <pt x="366" y="706" on="0"/>
        <pt x="464" y="706" on="1"/>
        <pt x="507" y="706" on="0"/>
        <pt x="575" y="697" on="0"/>
        <pt x="633" y="685" on="0"/>
        <pt x="682" y="676" on="0"/>
        <pt x="705" y="676" on="1"/>
        <pt x="706" y="653" on="0"/>
        <pt x="709" y="595" on="0"/>
        <pt x="713" y="535" on="0"/>
        <pt x="717" y="478" on="0"/>
        <pt x="719" y="458" on="1"/>
        <pt x="719" y="454" on="0"/>
        <pt x="700" y="450" on="0"/>
        <pt x="694" y="450" on="1"/>
        <pt x="689" y="450" on="0"/>
        <pt x="676" y="453" on="0"/>
        <pt x="674" y="458" on="1"/>
        <pt x="668" y="495" on="0"/>
        <pt x="629" y="566" on="0"/>
        <pt x="572" y="623" on="0"/>
        <pt x="500" y="658" on="0"/>
        <pt x="460" y="658" on="1"/>
        <pt x="401" y="658" on="0"/>
        <pt x="320" y="610" on="0"/>
        <pt x="270" y="525" on="0"/>
        <pt x="248" y="408" on="0"/>
        <pt x="248" y="339" on="1"/>
        <pt x="248" y="271" on="0"/>
        <pt x="270" y="157" on="0"/>
        <pt x="319" y="74" on="0"/>
        <pt x="398" y="27" on="0"/>
        <pt x="456" y="27" on="1"/>
        <pt x="504" y="27" on="0"/>
        <pt x="579" y="63" on="0"/>
        <pt x="637" y="122" on="0"/>
        <pt x="679" y="199" on="0"/>
        <pt x="693" y="240" on="1"/>
        <pt x="695" y="245" on="0"/>
        <pt x="709" y="248" on="0"/>
        <pt x="714" y="248" on="1"/>
        <pt x="720" y="248" on="0"/>
        <pt x="736" y="243" on="0"/>
      </contour>
    </TTGlyph>
    <TTGlyph name="Ccedilla.sc" xMin="30" yMin="-228" xMax="542" yMax="497">
      <component glyphName="ccedilla.sc" x="0" y="0" flags="0x204"/>
    </TTGlyph>
    <TTGlyph name="Cdotaccent" xMin="42" yMin="-21" xMax="737" yMax="959">
      <component glyphName="C" x="0" y="0" flags="0x204"/>
      <component glyphName="dotaccent.cap" x="244" y="15" flags="0x4"/>
    </TTGlyph>
    <TTGlyph name="Cdotaccent.sc" xMin="30" yMin="-18" xMax="542" yMax="746">
      <component glyphName="c.sc" x="0" y="0" flags="0x204"/>
      <component glyphName="dotaccent" x="118" y="25" flags="0x4"/>
    </TTGlyph>
    <TTGlyph name="D" xMin="43" yMin="-5" xMax="852" yMax="690">
      <contour>
        <pt x="852" y="339" on="1"/>
        <pt x="852" y="270" on="0"/>
        <pt x="809" y="145" on="0"/>
        <pt x="713" y="50" on="0"/>
        <pt x="558" y="-5" on="0"/>
        <pt x="446" y="-5" on="1"/>
        <pt x="429" y="-5" on="0"/>
        <pt x="379" y="-4" on="0"/>
        <pt x="325" y="-3" on="0"/>
        <pt x="274" y="-2" on="0"/>
        <pt x="257" y="-2" on="1"/>
        <pt x="239" y="-2" on="0"/>
        <pt x="183" y="-2" on="0"/>
        <pt x="123" y="-3" on="0"/>
        <pt x="68" y="-4" on="0"/>
        <pt x="51" y="-5" on="1"/>
        <pt x="48" y="-5" on="0"/>
        <pt x="43" y="11" on="0"/>
        <pt x="43" y="17" on="1"/>
        <pt x="43" y="22" on="0"/>
        <pt x="48" y="38" on="0"/>
        <pt x="51" y="39" on="1"/>
        <pt x="79" y="42" on="0"/>
        <pt x="117" y="54" on="0"/>
        <pt x="138" y="74" on="0"/>
        <pt x="147" y="103" on="0"/>
        <pt x="147" y="123" on="1"/>
        <pt x="147" y="562" on="1"/>
        <pt x="147" y="602" on="0"/>
        <pt x="108" y="640" on="0"/>
        <pt x="51" y="646" on="1"/>
        <pt x="48" y="647" on="0"/>
        <pt x="43" y="663" on="0"/>
        <pt x="43" y="668" on="1"/>
        <pt x="43" y="674" on="0"/>
        <pt x="48" y="690" on="0"/>
        <pt x="51" y="690" on="1"/>
        <pt x="68" y="689" on="0"/>
        <pt x="123" y="688" on="0"/>
        <pt x="183" y="687" on="0"/>
        <pt x="239" y="687" on="0"/>
        <pt x="257" y="687" on="1"/>
        <pt x="274" y="687" on="0"/>
        <pt x="325" y="688" on="0"/>
        <pt x="379" y="689" on="0"/>
        <pt x="429" y="690" on="0"/>
        <pt x="446" y="690" on="1"/>
        <pt x="552" y="690" on="0"/>
        <pt x="705" y="635" on="0"/>
        <pt x="804" y="540" on="0"/>
        <pt x="852" y="412" on="0"/>
      </contour>
      <contour>
        <pt x="646" y="339" on="1"/>
        <pt x="646" y="408" on="0"/>
        <pt x="626" y="521" on="0"/>
        <pt x="579" y="600" on="0"/>
        <pt x="500" y="642" on="0"/>
        <pt x="442" y="641" on="1"/>
        <pt x="403" y="639" on="1"/>
        <pt x="393" y="639" on="0"/>
        <pt x="372" y="634" on="0"/>
        <pt x="356" y="622" on="0"/>
        <pt x="345" y="599" on="0"/>
        <pt x="345" y="581" on="1"/>
        <pt x="345" y="104" on="1"/>
        <pt x="345" y="86" on="0"/>
        <pt x="356" y="63" on="0"/>
        <pt x="372" y="51" on="0"/>
        <pt x="393" y="46" on="0"/>
        <pt x="403" y="46" on="1"/>
        <pt x="442" y="44" on="1"/>
        <pt x="499" y="44" on="0"/>
        <pt x="577" y="85" on="0"/>
        <pt x="625" y="162" on="0"/>
        <pt x="646" y="271" on="0"/>
      </contour>
    </TTGlyph>
    <TTGlyph name="D.sc" xMin="33" yMin="-5" xMax="641" yMax="481">
      <component glyphName="d.sc" x="0" y="0" flags="0x204"/>
    </TTGlyph>
    <TTGlyph name="Dcaron" xMin="43" yMin="-5" xMax="852" yMax="961">
      <component glyphName="D" x="0" y="0" flags="0x204"/>
      <component glyphName="caron.cap" x="236" y="0" flags="0x4"/>
    </TTGlyph>
    <TTGlyph name="Dcaron.sc" xMin="33" yMin="-5" xMax="641" yMax="745">
      <component glyphName="d.sc" x="0" y="0" flags="0x204"/>
      <component glyphName="caron" x="134" y="15" flags="0x4"/>
    </TTGlyph>
    <TTGlyph name="Dcroat" xMin="28" yMin="-5" xMax="852" yMax="690">
      <contour>
        <pt x="852" y="339" on="1"/>
        <pt x="852" y="270" on="0"/>
        <pt x="809" y="145" on="0"/>
        <pt x="713" y="50" on="0"/>
        <pt x="558" y="-5" on="0"/>
        <pt x="446" y="-5" on="1"/>
        <pt x="429" y="-5" on="0"/>
        <pt x="379" y="-4" on="0"/>
        <pt x="325" y="-3" on="0"/>
        <pt x="274" y="-2" on="0"/>
        <pt x="257" y="-2" on="1"/>
        <pt x="239" y="-2" on="0"/>
        <pt x="183" y="-2" on="0"/>
        <pt x="123" y="-3" on="0"/>
        <pt x="68" y="-4" on="0"/>
        <pt x="51" y="-5" on="1"/>
        <pt x="48" y="-5" on="0"/>
        <pt x="43" y="11" on="0"/>
        <pt x="43" y="17" on="1"/>
        <pt x="43" y="22" on="0"/>
        <pt x="48" y="38" on="0"/>
        <pt x="51" y="39" on="1"/>
        <pt x="79" y="42" on="0"/>
        <pt x="117" y="54" on="0"/>
        <pt x="138" y="74" on="0"/>
        <pt x="147" y="103" on="0"/>
        <pt x="147" y="123" on="1"/>
        <pt x="147" y="295" on="1"/>
        <pt x="40" y="291" on="1"/>
        <pt x="35" y="291" on="0"/>
        <pt x="28" y="316" on="0"/>
        <pt x="28" y="327" on="1"/>
        <pt x="28" y="337" on="0"/>
        <pt x="35" y="362" on="0"/>
        <pt x="40" y="362" on="1"/>
        <pt x="147" y="362" on="1"/>
        <pt x="147" y="562" on="1"/>
        <pt x="147" y="602" on="0"/>
        <pt x="108" y="640" on="0"/>
        <pt x="51" y="646" on="1"/>
        <pt x="48" y="647" on="0"/>
        <pt x="43" y="663" on="0"/>
        <pt x="43" y="668" on="1"/>
        <pt x="43" y="674" on="0"/>
        <pt x="48" y="690" on="0"/>
        <pt x="51" y="690" on="1"/>
        <pt x="68" y="689" on="0"/>
        <pt x="123" y="688" on="0"/>
        <pt x="183" y="687" on="0"/>
        <pt x="239" y="687" on="0"/>
        <pt x="257" y="687" on="1"/>
        <pt x="274" y="687" on="0"/>
        <pt x="325" y="688" on="0"/>
        <pt x="379" y="689" on="0"/>
        <pt x="429" y="690" on="0"/>
        <pt x="446" y="690" on="1"/>
        <pt x="552" y="690" on="0"/>
        <pt x="705" y="635" on="0"/>
        <pt x="804" y="540" on="0"/>
        <pt x="852" y="412" on="0"/>
      </contour>
      <contour>
        <pt x="646" y="339" on="1"/>
        <pt x="646" y="408" on="0"/>
        <pt x="626" y="521" on="0"/>
        <pt x="579" y="600" on="0"/>
        <pt x="500" y="642" on="0"/>
        <pt x="442" y="641" on="1"/>
        <pt x="403" y="639" on="1"/>
        <pt x="393" y="639" on="0"/>
        <pt x="372" y="634" on="0"/>
        <pt x="356" y="622" on="0"/>
        <pt x="345" y="599" on="0"/>
        <pt x="345" y="581" on="1"/>
        <pt x="345" y="362" on="1"/>
        <pt x="443" y="362" on="1"/>
        <pt x="448" y="362" on="0"/>
        <pt x="455" y="337" on="0"/>
        <pt x="455" y="327" on="1"/>
        <pt x="455" y="316" on="0"/>
        <pt x="448" y="291" on="0"/>
        <pt x="443" y="291" on="1"/>
        <pt x="345" y="295" on="1"/>
        <pt x="345" y="104" on="1"/>
        <pt x="345" y="86" on="0"/>
        <pt x="356" y="63" on="0"/>
        <pt x="372" y="51" on="0"/>
        <pt x="393" y="46" on="0"/>
        <pt x="403" y="46" on="1"/>
        <pt x="442" y="44" on="1"/>
        <pt x="499" y="44" on="0"/>
        <pt x="577" y="85" on="0"/>
        <pt x="625" y="162" on="0"/>
        <pt x="646" y="271" on="0"/>
      </contour>
    </TTGlyph>
    <TTGlyph name="Dcroat.sc" xMin="31" yMin="-3" xMax="660" yMax="483">
      <component glyphName="dcroat.sc" x="0" y="0" flags="0x204"/>
    </TTGlyph>
    <TTGlyph name="Deltagreek" xMin="15" yMin="-6" xMax="756" yMax="706">
      <contour>
        <pt x="756" y="24" on="1"/>
        <pt x="756" y="21" on="0"/>
        <pt x="750" y="11" on="0"/>
        <pt x="742" y="1" on="0"/>
        <pt x="733" y="-5" on="0"/>
        <pt x="730" y="-5" on="1"/>
        <pt x="718" y="-4" on="0"/>
        <pt x="644" y="-2" on="0"/>
        <pt x="541" y="0" on="0"/>
        <pt x="418" y="0" on="0"/>
        <pt x="358" y="0" on="1"/>
        <pt x="298" y="0" on="0"/>
        <pt x="193" y="0" on="0"/>
        <pt x="110" y="-2" on="0"/>
        <pt x="54" y="-4" on="0"/>
        <pt x="42" y="-5" on="1"/>
        <pt x="34" y="-6" on="0"/>
        <pt x="15" y="15" on="0"/>
        <pt x="15" y="21" on="1"/>
        <pt x="15" y="24" on="0"/>
        <pt x="17" y="30" on="1"/>
        <pt x="379" y="698" on="1"/>
        <pt x="381" y="701" on="0"/>
        <pt x="398" y="706" on="0"/>
        <pt x="409" y="706" on="1"/>
        <pt x="419" y="706" on="0"/>
        <pt x="437" y="701" on="0"/>
        <pt x="438" y="698" on="1"/>
        <pt x="754" y="30" on="1"/>
        <pt x="756" y="26" on="0"/>
      </contour>
      <contour>
        <pt x="333" y="508" on="1"/>
        <pt x="141" y="145" on="1"/>
        <pt x="501" y="145" on="1"/>
      </contour>
    </TTGlyph>
    <TTGlyph name="E" xMin="43" yMin="-5" xMax="711" yMax="690">
      <contour>
        <pt x="710" y="229" on="1"/>
        <pt x="707" y="205" on="0"/>
        <pt x="700" y="143" on="0"/>
        <pt x="693" y="79" on="0"/>
        <pt x="688" y="18" on="0"/>
        <pt x="687" y="-5" on="1"/>
        <pt x="663" y="-4" on="0"/>
        <pt x="578" y="-3" on="0"/>
        <pt x="486" y="-1" on="0"/>
        <pt x="401" y="0" on="0"/>
        <pt x="376" y="0" on="1"/>
        <pt x="359" y="0" on="0"/>
        <pt x="307" y="0" on="0"/>
        <pt x="246" y="-1" on="0"/>
        <pt x="179" y="-2" on="0"/>
        <pt x="118" y="-3" on="0"/>
        <pt x="67" y="-5" on="0"/>
        <pt x="51" y="-5" on="1"/>
        <pt x="48" y="-5" on="0"/>
        <pt x="43" y="11" on="0"/>
        <pt x="43" y="17" on="1"/>
        <pt x="43" y="22" on="0"/>
        <pt x="48" y="38" on="0"/>
        <pt x="51" y="39" on="1"/>
        <pt x="79" y="42" on="0"/>
        <pt x="117" y="54" on="0"/>
        <pt x="138" y="74" on="0"/>
        <pt x="147" y="103" on="0"/>
        <pt x="147" y="123" on="1"/>
        <pt x="147" y="562" on="1"/>
        <pt x="147" y="602" on="0"/>
        <pt x="108" y="640" on="0"/>
        <pt x="51" y="646" on="1"/>
        <pt x="48" y="647" on="0"/>
        <pt x="43" y="663" on="0"/>
        <pt x="43" y="668" on="1"/>
        <pt x="43" y="674" on="0"/>
        <pt x="48" y="690" on="0"/>
        <pt x="51" y="690" on="1"/>
        <pt x="75" y="689" on="0"/>
        <pt x="160" y="687" on="0"/>
        <pt x="254" y="686" on="0"/>
        <pt x="341" y="685" on="0"/>
        <pt x="366" y="685" on="1"/>
        <pt x="391" y="685" on="0"/>
        <pt x="477" y="686" on="0"/>
        <pt x="570" y="687" on="0"/>
        <pt x="655" y="689" on="0"/>
        <pt x="679" y="690" on="1"/>
        <pt x="678" y="669" on="0"/>
        <pt x="679" y="611" on="0"/>
        <pt x="682" y="550" on="0"/>
        <pt x="685" y="490" on="0"/>
        <pt x="686" y="467" on="1"/>
        <pt x="686" y="462" on="0"/>
        <pt x="670" y="454" on="0"/>
        <pt x="658" y="454" on="1"/>
        <pt x="651" y="454" on="0"/>
        <pt x="641" y="458" on="0"/>
        <pt x="641" y="460" on="1"/>
        <pt x="637" y="492" on="0"/>
        <pt x="611" y="555" on="0"/>
        <pt x="566" y="605" on="0"/>
        <pt x="503" y="636" on="0"/>
        <pt x="463" y="636" on="1"/>
        <pt x="403" y="636" on="1"/>
        <pt x="393" y="636" on="0"/>
        <pt x="373" y="631" on="0"/>
        <pt x="356" y="618" on="0"/>
        <pt x="345" y="595" on="0"/>
        <pt x="345" y="577" on="1"/>
        <pt x="345" y="370" on="1"/>
        <pt x="379" y="370" on="1"/>
        <pt x="431" y="370" on="0"/>
        <pt x="490" y="430" on="0"/>
        <pt x="495" y="479" on="1"/>
        <pt x="496" y="483" on="0"/>
        <pt x="512" y="487" on="0"/>
        <pt x="517" y="487" on="1"/>
        <pt x="523" y="487" on="0"/>
        <pt x="539" y="483" on="0"/>
        <pt x="539" y="479" on="1"/>
        <pt x="539" y="441" on="0"/>
        <pt x="534" y="379" on="0"/>
        <pt x="534" y="344" on="1"/>
        <pt x="534" y="308" on="0"/>
        <pt x="539" y="250" on="0"/>
        <pt x="539" y="212" on="1"/>
        <pt x="539" y="208" on="0"/>
        <pt x="523" y="204" on="0"/>
        <pt x="517" y="204" on="1"/>
        <pt x="512" y="204" on="0"/>
        <pt x="496" y="208" on="0"/>
        <pt x="495" y="212" on="1"/>
        <pt x="490" y="261" on="0"/>
        <pt x="431" y="321" on="0"/>
        <pt x="379" y="321" on="1"/>
        <pt x="345" y="321" on="1"/>
        <pt x="345" y="108" on="1"/>
        <pt x="345" y="90" on="0"/>
        <pt x="356" y="67" on="0"/>
        <pt x="373" y="54" on="0"/>
        <pt x="393" y="49" on="0"/>
        <pt x="403" y="49" on="1"/>
        <pt x="455" y="49" on="1"/>
        <pt x="495" y="49" on="0"/>
        <pt x="565" y="79" on="0"/>
        <pt x="619" y="131" on="0"/>
        <pt x="656" y="200" on="0"/>
        <pt x="664" y="239" on="1"/>
        <pt x="665" y="243" on="0"/>
        <pt x="679" y="243" on="1"/>
        <pt x="691" y="243" on="0"/>
        <pt x="711" y="235" on="0"/>
      </contour>
    </TTGlyph>
    <TTGlyph name="E.sc" xMin="33" yMin="-5" xMax="542" yMax="481">
      <component glyphName="e.sc" x="0" y="0" flags="0x204"/>
    </TTGlyph>
    <TTGlyph name="Eacute" xMin="43" yMin="-5" xMax="711" yMax="971">
      <component glyphName="E" x="0" y="0" flags="0x204"/>
      <component glyphName="acute.cap" x="246" y="0" flags="0x4"/>
    </TTGlyph>
    <TTGlyph name="Eacute.sc" xMin="33" yMin="-5" xMax="542" yMax="759">
      <component glyphName="e.sc" x="0" y="0" flags="0x204"/>
      <component glyphName="acute" x="139" y="15" flags="0x4"/>
    </TTGlyph>
    <TTGlyph name="Ebreve" xMin="43" yMin="-5" xMax="711" yMax="956">
      <component glyphName="E" x="0" y="0" flags="0x204"/>
      <component glyphName="breve.cap" x="211" y="0" flags="0x4"/>
    </TTGlyph>
    <TTGlyph name="Ebreve.sc" xMin="33" yMin="-5" xMax="542" yMax="728">
      <component glyphName="e.sc" x="0" y="0" flags="0x204"/>
      <component glyphName="breve" x="80" y="15" flags="0x4"/>
    </TTGlyph>
    <TTGlyph name="Ecaron" xMin="43" yMin="-5" xMax="711" yMax="961">
      <component glyphName="E" x="0" y="0" flags="0x204"/>
      <component glyphName="caron.cap" x="185" y="0" flags="0x4"/>
    </TTGlyph>
    <TTGlyph name="Ecaron.sc" xMin="33" yMin="-5" xMax="542" yMax="745">
      <component glyphName="e.sc" x="0" y="0" flags="0x204"/>
      <component glyphName="caron" x="81" y="15" flags="0x4"/>
    </TTGlyph>
    <TTGlyph name="Ecircumflex" xMin="43" yMin="-5" xMax="711" yMax="962">
      <component glyphName="E" x="0" y="0" flags="0x204"/>
      <component glyphName="circumflex.cap" x="186" y="0" flags="0x4"/>
    </TTGlyph>
    <TTGlyph name="Ecircumflex.sc" xMin="33" yMin="-5" xMax="542" yMax="761">
      <component glyphName="e.sc" x="0" y="0" flags="0x204"/>
      <component glyphName="circumflex" x="81" y="15" flags="0x4"/>
    </TTGlyph>
    <TTGlyph name="Edieresis" xMin="43" yMin="-5" xMax="711" yMax="944">
      <component glyphName="E" x="0" y="0" flags="0x204"/>
      <component glyphName="dieresis.cap" x="181" y="0" flags="0x4"/>
    </TTGlyph>
    <TTGlyph name="Edieresis.sc" xMin="33" yMin="-5" xMax="542" yMax="736">
      <component glyphName="e.sc" x="0" y="0" flags="0x204"/>
      <component glyphName="dieresis" x="74" y="15" flags="0x4"/>
    </TTGlyph>
    <TTGlyph name="Edotaccent" xMin="43" yMin="-5" xMax="711" yMax="944">
      <component glyphName="E" x="0" y="0" flags="0x204"/>
      <component glyphName="dotaccent.cap" x="186" y="0" flags="0x4"/>
    </TTGlyph>
    <TTGlyph name="Edotaccent.sc" xMin="33" yMin="-5" xMax="542" yMax="736">
      <component glyphName="e.sc" x="0" y="0" flags="0x204"/>
      <component glyphName="dotaccent" x="80" y="15" flags="0x4"/>
    </TTGlyph>
    <TTGlyph name="Egrave" xMin="43" yMin="-5" xMax="711" yMax="971">
      <component glyphName="E" x="0" y="0" flags="0x204"/>
      <component glyphName="grave.cap" x="135" y="0" flags="0x4"/>
    </TTGlyph>
    <TTGlyph name="Egrave.sc" xMin="33" yMin="-5" xMax="542" yMax="759">
      <component glyphName="e.sc" x="0" y="0" flags="0x204"/>
      <component glyphName="grave" x="32" y="15" flags="0x4"/>
    </TTGlyph>
    <TTGlyph name="Emacron" xMin="43" yMin="-5" xMax="711" yMax="881">
      <component glyphName="E" x="0" y="0" flags="0x204"/>
      <component glyphName="macron.cap" x="171" y="0" flags="0x4"/>
    </TTGlyph>
    <TTGlyph name="Emacron.sc" xMin="33" yMin="-5" xMax="542" yMax="666">
      <component glyphName="e.sc" x="0" y="0" flags="0x204"/>
      <component glyphName="macron" x="80" y="15" flags="0x4"/>
    </TTGlyph>
    <TTGlyph name="Eogonek" xMin="43" yMin="-212" xMax="711" yMax="690">
      <contour>
        <pt x="648" y="-172" on="1"/>
        <pt x="633" y="-186" on="0"/>
        <pt x="583" y="-212" on="0"/>
        <pt x="545" y="-212" on="1"/>
        <pt x="491" y="-212" on="0"/>
        <pt x="433" y="-162" on="0"/>
        <pt x="433" y="-124" on="1"/>
        <pt x="433" y="-87" on="0"/>
        <pt x="477" y="-27" on="0"/>
        <pt x="512" y="-1" on="1"/>
        <pt x="470" y="0" on="0"/>
        <pt x="398" y="0" on="0"/>
        <pt x="376" y="0" on="1"/>
        <pt x="359" y="0" on="0"/>
        <pt x="307" y="0" on="0"/>
        <pt x="246" y="-1" on="0"/>
        <pt x="179" y="-2" on="0"/>
        <pt x="118" y="-3" on="0"/>
        <pt x="67" y="-5" on="0"/>
        <pt x="51" y="-5" on="1"/>
        <pt x="48" y="-5" on="0"/>
        <pt x="43" y="11" on="0"/>
        <pt x="43" y="17" on="1"/>
        <pt x="43" y="22" on="0"/>
        <pt x="48" y="38" on="0"/>
        <pt x="51" y="39" on="1"/>
        <pt x="79" y="42" on="0"/>
        <pt x="117" y="54" on="0"/>
        <pt x="138" y="74" on="0"/>
        <pt x="147" y="103" on="0"/>
        <pt x="147" y="123" on="1"/>
        <pt x="147" y="562" on="1"/>
        <pt x="147" y="602" on="0"/>
        <pt x="108" y="640" on="0"/>
        <pt x="51" y="646" on="1"/>
        <pt x="48" y="647" on="0"/>
        <pt x="43" y="663" on="0"/>
        <pt x="43" y="668" on="1"/>
        <pt x="43" y="674" on="0"/>
        <pt x="48" y="690" on="0"/>
        <pt x="51" y="690" on="1"/>
        <pt x="75" y="689" on="0"/>
        <pt x="160" y="687" on="0"/>
        <pt x="254" y="686" on="0"/>
        <pt x="341" y="685" on="0"/>
        <pt x="366" y="685" on="1"/>
        <pt x="391" y="685" on="0"/>
        <pt x="477" y="686" on="0"/>
        <pt x="570" y="687" on="0"/>
        <pt x="655" y="689" on="0"/>
        <pt x="679" y="690" on="1"/>
        <pt x="678" y="669" on="0"/>
        <pt x="679" y="611" on="0"/>
        <pt x="682" y="550" on="0"/>
        <pt x="685" y="490" on="0"/>
        <pt x="686" y="467" on="1"/>
        <pt x="686" y="462" on="0"/>
        <pt x="670" y="454" on="0"/>
        <pt x="658" y="454" on="1"/>
        <pt x="651" y="454" on="0"/>
        <pt x="641" y="458" on="0"/>
        <pt x="641" y="460" on="1"/>
        <pt x="637" y="492" on="0"/>
        <pt x="611" y="555" on="0"/>
        <pt x="566" y="605" on="0"/>
        <pt x="503" y="636" on="0"/>
        <pt x="463" y="636" on="1"/>
        <pt x="403" y="636" on="1"/>
        <pt x="393" y="636" on="0"/>
        <pt x="373" y="631" on="0"/>
        <pt x="356" y="618" on="0"/>
        <pt x="345" y="595" on="0"/>
        <pt x="345" y="577" on="1"/>
        <pt x="345" y="370" on="1"/>
        <pt x="379" y="370" on="1"/>
        <pt x="431" y="370" on="0"/>
        <pt x="490" y="430" on="0"/>
        <pt x="495" y="479" on="1"/>
        <pt x="496" y="483" on="0"/>
        <pt x="512" y="487" on="0"/>
        <pt x="517" y="487" on="1"/>
        <pt x="523" y="487" on="0"/>
        <pt x="539" y="483" on="0"/>
        <pt x="539" y="479" on="1"/>
        <pt x="539" y="441" on="0"/>
        <pt x="534" y="379" on="0"/>
        <pt x="534" y="344" on="1"/>
        <pt x="534" y="308" on="0"/>
        <pt x="539" y="250" on="0"/>
        <pt x="539" y="212" on="1"/>
        <pt x="539" y="208" on="0"/>
        <pt x="523" y="204" on="0"/>
        <pt x="517" y="204" on="1"/>
        <pt x="512" y="204" on="0"/>
        <pt x="496" y="208" on="0"/>
        <pt x="495" y="212" on="1"/>
        <pt x="490" y="261" on="0"/>
        <pt x="431" y="321" on="0"/>
        <pt x="379" y="321" on="1"/>
        <pt x="345" y="321" on="1"/>
        <pt x="345" y="108" on="1"/>
        <pt x="345" y="90" on="0"/>
        <pt x="356" y="67" on="0"/>
        <pt x="373" y="54" on="0"/>
        <pt x="393" y="49" on="0"/>
        <pt x="403" y="49" on="1"/>
        <pt x="455" y="49" on="1"/>
        <pt x="495" y="49" on="0"/>
        <pt x="565" y="79" on="0"/>
        <pt x="619" y="131" on="0"/>
        <pt x="656" y="200" on="0"/>
        <pt x="664" y="239" on="1"/>
        <pt x="665" y="243" on="0"/>
        <pt x="679" y="243" on="1"/>
        <pt x="691" y="243" on="0"/>
        <pt x="711" y="235" on="0"/>
        <pt x="710" y="229" on="1"/>
        <pt x="707" y="205" on="0"/>
        <pt x="700" y="143" on="0"/>
        <pt x="693" y="79" on="0"/>
        <pt x="688" y="18" on="0"/>
        <pt x="687" y="-5" on="1"/>
        <pt x="586" y="-2" on="1"/>
        <pt x="563" y="-25" on="0"/>
        <pt x="542" y="-74" on="0"/>
        <pt x="542" y="-99" on="1"/>
        <pt x="542" y="-123" on="0"/>
        <pt x="569" y="-150" on="0"/>
        <pt x="591" y="-150" on="1"/>
        <pt x="598" y="-150" on="0"/>
        <pt x="625" y="-143" on="0"/>
        <pt x="634" y="-139" on="1"/>
        <pt x="638" y="-138" on="0"/>
        <pt x="645" y="-148" on="0"/>
        <pt x="647" y="-153" on="1"/>
        <pt x="652" y="-166" on="0"/>
      </contour>
    </TTGlyph>
    <TTGlyph name="Eogonek.sc" xMin="33" yMin="-212" xMax="542" yMax="481">
      <component glyphName="eogonek.sc" x="0" y="0" flags="0x204"/>
    </TTGlyph>
    <TTGlyph name="Eth" xMin="28" yMin="-5" xMax="852" yMax="690">
      <contour>
        <pt x="852" y="339" on="1"/>
        <pt x="852" y="270" on="0"/>
        <pt x="809" y="145" on="0"/>
        <pt x="713" y="50" on="0"/>
        <pt x="558" y="-5" on="0"/>
        <pt x="446" y="-5" on="1"/>
        <pt x="429" y="-5" on="0"/>
        <pt x="379" y="-4" on="0"/>
        <pt x="325" y="-3" on="0"/>
        <pt x="274" y="-2" on="0"/>
        <pt x="257" y="-2" on="1"/>
        <pt x="239" y="-2" on="0"/>
        <pt x="183" y="-2" on="0"/>
        <pt x="123" y="-3" on="0"/>
        <pt x="68" y="-4" on="0"/>
        <pt x="51" y="-5" on="1"/>
        <pt x="48" y="-5" on="0"/>
        <pt x="43" y="11" on="0"/>
        <pt x="43" y="17" on="1"/>
        <pt x="43" y="22" on="0"/>
        <pt x="48" y="38" on="0"/>
        <pt x="51" y="39" on="1"/>
        <pt x="79" y="42" on="0"/>
        <pt x="117" y="54" on="0"/>
        <pt x="138" y="74" on="0"/>
        <pt x="147" y="103" on="0"/>
        <pt x="147" y="123" on="1"/>
        <pt x="147" y="295" on="1"/>
        <pt x="40" y="291" on="1"/>
        <pt x="35" y="291" on="0"/>
        <pt x="28" y="316" on="0"/>
        <pt x="28" y="327" on="1"/>
        <pt x="28" y="337" on="0"/>
        <pt x="35" y="362" on="0"/>
        <pt x="40" y="362" on="1"/>
        <pt x="147" y="362" on="1"/>
        <pt x="147" y="562" on="1"/>
        <pt x="147" y="602" on="0"/>
        <pt x="108" y="640" on="0"/>
        <pt x="51" y="646" on="1"/>
        <pt x="48" y="647" on="0"/>
        <pt x="43" y="663" on="0"/>
        <pt x="43" y="668" on="1"/>
        <pt x="43" y="674" on="0"/>
        <pt x="48" y="690" on="0"/>
        <pt x="51" y="690" on="1"/>
        <pt x="68" y="689" on="0"/>
        <pt x="123" y="688" on="0"/>
        <pt x="183" y="687" on="0"/>
        <pt x="239" y="687" on="0"/>
        <pt x="257" y="687" on="1"/>
        <pt x="274" y="687" on="0"/>
        <pt x="325" y="688" on="0"/>
        <pt x="379" y="689" on="0"/>
        <pt x="429" y="690" on="0"/>
        <pt x="446" y="690" on="1"/>
        <pt x="552" y="690" on="0"/>
        <pt x="705" y="635" on="0"/>
        <pt x="804" y="540" on="0"/>
        <pt x="852" y="412" on="0"/>
      </contour>
      <contour>
        <pt x="646" y="339" on="1"/>
        <pt x="646" y="408" on="0"/>
        <pt x="626" y="521" on="0"/>
        <pt x="579" y="600" on="0"/>
        <pt x="500" y="642" on="0"/>
        <pt x="442" y="641" on="1"/>
        <pt x="403" y="639" on="1"/>
        <pt x="393" y="639" on="0"/>
        <pt x="372" y="634" on="0"/>
        <pt x="356" y="622" on="0"/>
        <pt x="345" y="599" on="0"/>
        <pt x="345" y="581" on="1"/>
        <pt x="345" y="362" on="1"/>
        <pt x="443" y="362" on="1"/>
        <pt x="448" y="362" on="0"/>
        <pt x="455" y="337" on="0"/>
        <pt x="455" y="327" on="1"/>
        <pt x="455" y="316" on="0"/>
        <pt x="448" y="291" on="0"/>
        <pt x="443" y="291" on="1"/>
        <pt x="345" y="295" on="1"/>
        <pt x="345" y="104" on="1"/>
        <pt x="345" y="86" on="0"/>
        <pt x="356" y="63" on="0"/>
        <pt x="372" y="51" on="0"/>
        <pt x="393" y="46" on="0"/>
        <pt x="403" y="46" on="1"/>
        <pt x="442" y="44" on="1"/>
        <pt x="499" y="44" on="0"/>
        <pt x="577" y="85" on="0"/>
        <pt x="625" y="162" on="0"/>
        <pt x="646" y="271" on="0"/>
      </contour>
    </TTGlyph>
    <TTGlyph name="Eth.sc" xMin="31" yMin="-3" xMax="660" yMax="483">
      <component glyphName="dcroat.sc" x="0" y="0" flags="0x204"/>
    </TTGlyph>
    <TTGlyph name="Euro" xMin="46" yMin="-21" xMax="758" yMax="637">
      <contour>
        <pt x="758" y="218" on="1"/>
        <pt x="755" y="200" on="0"/>
        <pt x="748" y="146" on="0"/>
        <pt x="740" y="88" on="0"/>
        <pt x="734" y="33" on="0"/>
        <pt x="732" y="15" on="1"/>
        <pt x="711" y="15" on="0"/>
        <pt x="659" y="4" on="0"/>
        <pt x="600" y="-10" on="0"/>
        <pt x="536" y="-21" on="0"/>
        <pt x="502" y="-21" on="1"/>
        <pt x="426" y="-21" on="0"/>
        <pt x="307" y="12" on="0"/>
        <pt x="218" y="69" on="0"/>
        <pt x="159" y="147" on="0"/>
        <pt x="142" y="191" on="1"/>
        <pt x="59" y="190" on="1"/>
        <pt x="52" y="190" on="0"/>
        <pt x="46" y="211" on="0"/>
        <pt x="46" y="224" on="1"/>
        <pt x="46" y="236" on="0"/>
        <pt x="53" y="257" on="0"/>
        <pt x="58" y="257" on="1"/>
        <pt x="125" y="256" on="1"/>
        <pt x="122" y="280" on="0"/>
        <pt x="122" y="305" on="1"/>
        <pt x="122" y="328" on="0"/>
        <pt x="125" y="349" on="1"/>
        <pt x="59" y="348" on="1"/>
        <pt x="54" y="348" on="0"/>
        <pt x="46" y="368" on="0"/>
        <pt x="46" y="381" on="1"/>
        <pt x="46" y="393" on="0"/>
        <pt x="53" y="415" on="0"/>
        <pt x="58" y="415" on="1"/>
        <pt x="142" y="414" on="1"/>
        <pt x="160" y="461" on="0"/>
        <pt x="224" y="543" on="0"/>
        <pt x="316" y="603" on="0"/>
        <pt x="436" y="637" on="0"/>
        <pt x="510" y="637" on="1"/>
        <pt x="546" y="637" on="0"/>
        <pt x="607" y="629" on="0"/>
        <pt x="658" y="620" on="0"/>
        <pt x="704" y="613" on="0"/>
        <pt x="725" y="613" on="1"/>
        <pt x="726" y="593" on="0"/>
        <pt x="729" y="538" on="0"/>
        <pt x="733" y="481" on="0"/>
        <pt x="737" y="428" on="0"/>
        <pt x="739" y="410" on="1"/>
        <pt x="739" y="406" on="0"/>
        <pt x="721" y="403" on="0"/>
        <pt x="716" y="403" on="1"/>
        <pt x="711" y="403" on="0"/>
        <pt x="698" y="405" on="0"/>
        <pt x="696" y="410" on="1"/>
        <pt x="690" y="442" on="0"/>
        <pt x="656" y="506" on="0"/>
        <pt x="605" y="558" on="0"/>
        <pt x="541" y="591" on="0"/>
        <pt x="506" y="591" on="1"/>
        <pt x="423" y="591" on="0"/>
        <pt x="341" y="494" on="0"/>
        <pt x="327" y="413" on="1"/>
        <pt x="527" y="415" on="1"/>
        <pt x="531" y="415" on="0"/>
        <pt x="539" y="394" on="0"/>
        <pt x="539" y="381" on="1"/>
        <pt x="539" y="370" on="0"/>
        <pt x="533" y="348" on="0"/>
        <pt x="527" y="348" on="1"/>
        <pt x="320" y="349" on="1"/>
        <pt x="319" y="338" on="0"/>
        <pt x="319" y="316" on="0"/>
        <pt x="319" y="305" on="1"/>
        <pt x="319" y="292" on="0"/>
        <pt x="319" y="267" on="0"/>
        <pt x="320" y="256" on="1"/>
        <pt x="527" y="257" on="1"/>
        <pt x="532" y="257" on="0"/>
        <pt x="539" y="235" on="0"/>
        <pt x="539" y="224" on="1"/>
        <pt x="539" y="214" on="0"/>
        <pt x="534" y="190" on="0"/>
        <pt x="527" y="190" on="1"/>
        <pt x="329" y="191" on="1"/>
        <pt x="336" y="153" on="0"/>
        <pt x="363" y="93" on="0"/>
        <pt x="404" y="49" on="0"/>
        <pt x="462" y="26" on="0"/>
        <pt x="502" y="26" on="1"/>
        <pt x="544" y="26" on="0"/>
        <pt x="612" y="59" on="0"/>
        <pt x="664" y="113" on="0"/>
        <pt x="703" y="182" on="0"/>
        <pt x="716" y="218" on="1"/>
        <pt x="718" y="222" on="0"/>
        <pt x="731" y="225" on="0"/>
        <pt x="736" y="225" on="1"/>
        <pt x="741" y="225" on="0"/>
        <pt x="757" y="221" on="0"/>
      </contour>
    </TTGlyph>
    <TTGlyph name="Euro.lin" xMin="41" yMin="-24" xMax="813" yMax="703">
      <contour>
        <pt x="813" y="237" on="1"/>
        <pt x="810" y="216" on="0"/>
        <pt x="803" y="158" on="0"/>
        <pt x="795" y="97" on="0"/>
        <pt x="788" y="39" on="0"/>
        <pt x="786" y="19" on="1"/>
        <pt x="763" y="19" on="0"/>
        <pt x="707" y="6" on="0"/>
        <pt x="643" y="-11" on="0"/>
        <pt x="571" y="-24" on="0"/>
        <pt x="532" y="-24" on="1"/>
        <pt x="449" y="-24" on="0"/>
        <pt x="319" y="13" on="0"/>
        <pt x="221" y="78" on="0"/>
        <pt x="156" y="166" on="0"/>
        <pt x="138" y="216" on="1"/>
        <pt x="54" y="215" on="1"/>
        <pt x="47" y="215" on="0"/>
        <pt x="41" y="236" on="0"/>
        <pt x="41" y="250" on="1"/>
        <pt x="41" y="264" on="0"/>
        <pt x="48" y="285" on="0"/>
        <pt x="53" y="285" on="1"/>
        <pt x="121" y="284" on="1"/>
        <pt x="118" y="309" on="0"/>
        <pt x="118" y="336" on="1"/>
        <pt x="118" y="359" on="0"/>
        <pt x="121" y="382" on="1"/>
        <pt x="54" y="382" on="1"/>
        <pt x="49" y="381" on="0"/>
        <pt x="41" y="403" on="0"/>
        <pt x="41" y="417" on="1"/>
        <pt x="41" y="429" on="0"/>
        <pt x="48" y="452" on="0"/>
        <pt x="53" y="452" on="1"/>
        <pt x="137" y="451" on="1"/>
        <pt x="156" y="504" on="0"/>
        <pt x="227" y="596" on="0"/>
        <pt x="329" y="664" on="0"/>
        <pt x="460" y="703" on="0"/>
        <pt x="540" y="703" on="1"/>
        <pt x="583" y="703" on="0"/>
        <pt x="651" y="694" on="0"/>
        <pt x="709" y="682" on="0"/>
        <pt x="758" y="673" on="0"/>
        <pt x="781" y="673" on="1"/>
        <pt x="782" y="650" on="0"/>
        <pt x="785" y="592" on="0"/>
        <pt x="789" y="532" on="0"/>
        <pt x="793" y="475" on="0"/>
        <pt x="795" y="455" on="1"/>
        <pt x="795" y="451" on="0"/>
        <pt x="776" y="447" on="0"/>
        <pt x="770" y="447" on="1"/>
        <pt x="765" y="447" on="0"/>
        <pt x="752" y="450" on="0"/>
        <pt x="750" y="455" on="1"/>
        <pt x="744" y="492" on="0"/>
        <pt x="705" y="563" on="0"/>
        <pt x="648" y="620" on="0"/>
        <pt x="576" y="655" on="0"/>
        <pt x="536" y="655" on="1"/>
        <pt x="488" y="655" on="0"/>
        <pt x="418" y="626" on="0"/>
        <pt x="370" y="572" on="0"/>
        <pt x="340" y="496" on="0"/>
        <pt x="332" y="450" on="1"/>
        <pt x="565" y="452" on="1"/>
        <pt x="569" y="452" on="0"/>
        <pt x="577" y="430" on="0"/>
        <pt x="577" y="417" on="1"/>
        <pt x="577" y="406" on="0"/>
        <pt x="571" y="381" on="0"/>
        <pt x="565" y="382" on="1"/>
        <pt x="325" y="383" on="1"/>
        <pt x="324" y="372" on="0"/>
        <pt x="324" y="348" on="0"/>
        <pt x="324" y="336" on="1"/>
        <pt x="324" y="323" on="0"/>
        <pt x="324" y="296" on="0"/>
        <pt x="325" y="283" on="1"/>
        <pt x="565" y="285" on="1"/>
        <pt x="570" y="285" on="0"/>
        <pt x="577" y="261" on="0"/>
        <pt x="577" y="250" on="1"/>
        <pt x="577" y="241" on="0"/>
        <pt x="572" y="215" on="0"/>
        <pt x="565" y="215" on="1"/>
        <pt x="334" y="216" on="1"/>
        <pt x="342" y="173" on="0"/>
        <pt x="372" y="102" on="0"/>
        <pt x="419" y="52" on="0"/>
        <pt x="486" y="24" on="0"/>
        <pt x="532" y="24" on="1"/>
        <pt x="580" y="24" on="0"/>
        <pt x="655" y="60" on="0"/>
        <pt x="713" y="119" on="0"/>
        <pt x="755" y="196" on="0"/>
        <pt x="769" y="237" on="1"/>
        <pt x="771" y="242" on="0"/>
        <pt x="785" y="245" on="0"/>
        <pt x="790" y="245" on="1"/>
        <pt x="796" y="245" on="0"/>
        <pt x="812" y="240" on="0"/>
      </contour>
    </TTGlyph>
    <TTGlyph name="Euro.sc" xMin="44" yMin="-21" xMax="631" yMax="494">
      <contour>
        <pt x="631" y="172" on="1"/>
        <pt x="628" y="159" on="0"/>
        <pt x="622" y="113" on="0"/>
        <pt x="615" y="62" on="0"/>
        <pt x="609" y="14" on="0"/>
        <pt x="607" y="0" on="1"/>
        <pt x="590" y="0" on="0"/>
        <pt x="547" y="-7" on="0"/>
        <pt x="500" y="-14" on="0"/>
        <pt x="451" y="-21" on="0"/>
        <pt x="429" y="-21" on="1"/>
        <pt x="366" y="-21" on="0"/>
        <pt x="271" y="3" on="0"/>
        <pt x="201" y="45" on="0"/>
        <pt x="154" y="102" on="0"/>
        <pt x="140" y="134" on="1"/>
        <pt x="57" y="133" on="1"/>
        <pt x="52" y="133" on="0"/>
        <pt x="44" y="153" on="0"/>
        <pt x="44" y="163" on="1"/>
        <pt x="44" y="174" on="0"/>
        <pt x="51" y="193" on="0"/>
        <pt x="56" y="193" on="1"/>
        <pt x="123" y="192" on="1"/>
        <pt x="121" y="202" on="0"/>
        <pt x="119" y="223" on="0"/>
        <pt x="119" y="234" on="1"/>
        <pt x="119" y="254" on="0"/>
        <pt x="122" y="272" on="1"/>
        <pt x="57" y="271" on="1"/>
        <pt x="52" y="271" on="0"/>
        <pt x="44" y="289" on="0"/>
        <pt x="44" y="301" on="1"/>
        <pt x="44" y="311" on="0"/>
        <pt x="52" y="331" on="0"/>
        <pt x="56" y="331" on="1"/>
        <pt x="139" y="330" on="1"/>
        <pt x="154" y="364" on="0"/>
        <pt x="204" y="424" on="0"/>
        <pt x="277" y="469" on="0"/>
        <pt x="373" y="494" on="0"/>
        <pt x="435" y="494" on="1"/>
        <pt x="482" y="494" on="0"/>
        <pt x="561" y="482" on="0"/>
        <pt x="596" y="482" on="1"/>
        <pt x="597" y="467" on="0"/>
        <pt x="600" y="421" on="0"/>
        <pt x="605" y="371" on="0"/>
        <pt x="609" y="324" on="0"/>
        <pt x="610" y="310" on="1"/>
        <pt x="611" y="307" on="0"/>
        <pt x="595" y="304" on="0"/>
        <pt x="591" y="304" on="1"/>
        <pt x="586" y="304" on="0"/>
        <pt x="574" y="306" on="0"/>
        <pt x="573" y="310" on="1"/>
        <pt x="568" y="331" on="0"/>
        <pt x="543" y="380" on="0"/>
        <pt x="505" y="422" on="0"/>
        <pt x="458" y="450" on="0"/>
        <pt x="432" y="450" on="1"/>
        <pt x="373" y="450" on="0"/>
        <pt x="316" y="387" on="0"/>
        <pt x="305" y="330" on="1"/>
        <pt x="436" y="331" on="1"/>
        <pt x="440" y="331" on="0"/>
        <pt x="448" y="313" on="0"/>
        <pt x="448" y="301" on="1"/>
        <pt x="448" y="288" on="0"/>
        <pt x="442" y="271" on="0"/>
        <pt x="436" y="271" on="1"/>
        <pt x="297" y="272" on="1"/>
        <pt x="297" y="263" on="0"/>
        <pt x="296" y="244" on="0"/>
        <pt x="296" y="234" on="1"/>
        <pt x="296" y="223" on="0"/>
        <pt x="297" y="202" on="0"/>
        <pt x="298" y="192" on="1"/>
        <pt x="436" y="193" on="1"/>
        <pt x="441" y="193" on="0"/>
        <pt x="448" y="174" on="0"/>
        <pt x="448" y="163" on="1"/>
        <pt x="448" y="152" on="0"/>
        <pt x="442" y="133" on="0"/>
        <pt x="436" y="133" on="1"/>
        <pt x="306" y="134" on="1"/>
        <pt x="318" y="81" on="0"/>
        <pt x="373" y="23" on="0"/>
        <pt x="429" y="23" on="1"/>
        <pt x="459" y="23" on="0"/>
        <pt x="510" y="49" on="0"/>
        <pt x="551" y="91" on="0"/>
        <pt x="583" y="145" on="0"/>
        <pt x="594" y="172" on="1"/>
        <pt x="595" y="175" on="0"/>
        <pt x="607" y="178" on="0"/>
        <pt x="612" y="178" on="1"/>
        <pt x="617" y="178" on="0"/>
        <pt x="630" y="174" on="0"/>
      </contour>
    </TTGlyph>
    <TTGlyph name="F" xMin="44" yMin="-5" xMax="699" yMax="690">
      <contour>
        <pt x="698" y="459" on="1"/>
        <pt x="699" y="454" on="0"/>
        <pt x="679" y="446" on="0"/>
        <pt x="671" y="446" on="1"/>
        <pt x="666" y="446" on="0"/>
        <pt x="654" y="450" on="0"/>
        <pt x="654" y="452" on="1"/>
        <pt x="650" y="485" on="0"/>
        <pt x="622" y="551" on="0"/>
        <pt x="575" y="603" on="0"/>
        <pt x="508" y="636" on="0"/>
        <pt x="464" y="636" on="1"/>
        <pt x="404" y="636" on="1"/>
        <pt x="394" y="636" on="0"/>
        <pt x="373" y="631" on="0"/>
        <pt x="356" y="618" on="0"/>
        <pt x="345" y="595" on="0"/>
        <pt x="345" y="577" on="1"/>
        <pt x="345" y="366" on="1"/>
        <pt x="395" y="366" on="1"/>
        <pt x="447" y="366" on="0"/>
        <pt x="506" y="426" on="0"/>
        <pt x="512" y="475" on="1"/>
        <pt x="512" y="479" on="0"/>
        <pt x="528" y="483" on="0"/>
        <pt x="534" y="483" on="1"/>
        <pt x="540" y="483" on="0"/>
        <pt x="556" y="479" on="0"/>
        <pt x="556" y="475" on="1"/>
        <pt x="556" y="437" on="0"/>
        <pt x="550" y="375" on="0"/>
        <pt x="550" y="340" on="1"/>
        <pt x="550" y="304" on="0"/>
        <pt x="556" y="246" on="0"/>
        <pt x="556" y="208" on="1"/>
        <pt x="556" y="204" on="0"/>
        <pt x="540" y="200" on="0"/>
        <pt x="534" y="200" on="1"/>
        <pt x="528" y="200" on="0"/>
        <pt x="512" y="204" on="0"/>
        <pt x="512" y="208" on="1"/>
        <pt x="506" y="257" on="0"/>
        <pt x="447" y="317" on="0"/>
        <pt x="395" y="317" on="1"/>
        <pt x="345" y="317" on="1"/>
        <pt x="345" y="123" on="1"/>
        <pt x="345" y="82" on="0"/>
        <pt x="392" y="45" on="0"/>
        <pt x="449" y="39" on="1"/>
        <pt x="452" y="38" on="0"/>
        <pt x="457" y="22" on="0"/>
        <pt x="457" y="17" on="1"/>
        <pt x="457" y="11" on="0"/>
        <pt x="452" y="-5" on="0"/>
        <pt x="449" y="-5" on="1"/>
        <pt x="399" y="-5" on="0"/>
        <pt x="293" y="0" on="0"/>
        <pt x="246" y="0" on="1"/>
        <pt x="199" y="0" on="0"/>
        <pt x="102" y="-5" on="0"/>
        <pt x="52" y="-5" on="1"/>
        <pt x="48" y="-5" on="0"/>
        <pt x="44" y="11" on="0"/>
        <pt x="44" y="17" on="1"/>
        <pt x="44" y="22" on="0"/>
        <pt x="48" y="38" on="0"/>
        <pt x="52" y="39" on="1"/>
        <pt x="80" y="42" on="0"/>
        <pt x="117" y="54" on="0"/>
        <pt x="138" y="74" on="0"/>
        <pt x="147" y="103" on="0"/>
        <pt x="147" y="123" on="1"/>
        <pt x="147" y="562" on="1"/>
        <pt x="147" y="602" on="0"/>
        <pt x="108" y="640" on="0"/>
        <pt x="52" y="646" on="1"/>
        <pt x="48" y="647" on="0"/>
        <pt x="44" y="663" on="0"/>
        <pt x="44" y="668" on="1"/>
        <pt x="44" y="674" on="0"/>
        <pt x="48" y="690" on="0"/>
        <pt x="52" y="690" on="1"/>
        <pt x="76" y="689" on="0"/>
        <pt x="162" y="687" on="0"/>
        <pt x="257" y="686" on="0"/>
        <pt x="345" y="685" on="0"/>
        <pt x="370" y="685" on="1"/>
        <pt x="395" y="685" on="0"/>
        <pt x="483" y="686" on="0"/>
        <pt x="577" y="687" on="0"/>
        <pt x="664" y="689" on="0"/>
        <pt x="688" y="690" on="1"/>
        <pt x="688" y="667" on="0"/>
        <pt x="690" y="607" on="0"/>
        <pt x="693" y="544" on="0"/>
        <pt x="696" y="483" on="0"/>
      </contour>
    </TTGlyph>
    <TTGlyph name="F.sc" xMin="33" yMin="-5" xMax="513" yMax="481">
      <component glyphName="f.sc" x="0" y="0" flags="0x204"/>
    </TTGlyph>
    <TTGlyph name="G" xMin="42" yMin="-21" xMax="821" yMax="706">
      <contour>
        <pt x="821" y="302" on="1"/>
        <pt x="821" y="297" on="0"/>
        <pt x="816" y="281" on="0"/>
        <pt x="813" y="280" on="1"/>
        <pt x="764" y="275" on="0"/>
        <pt x="729" y="232" on="0"/>
        <pt x="729" y="196" on="1"/>
        <pt x="729" y="95" on="1"/>
        <pt x="729" y="71" on="0"/>
        <pt x="734" y="48" on="0"/>
        <pt x="740" y="35" on="1"/>
        <pt x="712" y="25" on="0"/>
        <pt x="640" y="5" on="0"/>
        <pt x="561" y="-11" on="0"/>
        <pt x="479" y="-21" on="0"/>
        <pt x="440" y="-21" on="1"/>
        <pt x="340" y="-21" on="0"/>
        <pt x="190" y="39" on="0"/>
        <pt x="91" y="140" on="0"/>
        <pt x="42" y="270" on="0"/>
        <pt x="42" y="339" on="1"/>
        <pt x="42" y="412" on="0"/>
        <pt x="98" y="545" on="0"/>
        <pt x="208" y="646" on="0"/>
        <pt x="371" y="706" on="0"/>
        <pt x="477" y="706" on="1"/>
        <pt x="507" y="706" on="0"/>
        <pt x="568" y="695" on="0"/>
        <pt x="628" y="683" on="0"/>
        <pt x="684" y="672" on="0"/>
        <pt x="707" y="672" on="1"/>
        <pt x="707" y="649" on="0"/>
        <pt x="708" y="592" on="0"/>
        <pt x="710" y="533" on="0"/>
        <pt x="711" y="478" on="0"/>
        <pt x="712" y="458" on="1"/>
        <pt x="713" y="454" on="0"/>
        <pt x="694" y="450" on="0"/>
        <pt x="688" y="450" on="1"/>
        <pt x="682" y="450" on="0"/>
        <pt x="670" y="453" on="0"/>
        <pt x="668" y="458" on="1"/>
        <pt x="656" y="500" on="0"/>
        <pt x="615" y="572" on="0"/>
        <pt x="557" y="626" on="0"/>
        <pt x="485" y="657" on="0"/>
        <pt x="443" y="657" on="1"/>
        <pt x="398" y="657" on="0"/>
        <pt x="326" y="611" on="0"/>
        <pt x="275" y="527" on="0"/>
        <pt x="248" y="410" on="0"/>
        <pt x="248" y="339" on="1"/>
        <pt x="248" y="271" on="0"/>
        <pt x="274" y="157" on="0"/>
        <pt x="323" y="74" on="0"/>
        <pt x="395" y="27" on="0"/>
        <pt x="440" y="27" on="1"/>
        <pt x="503" y="27" on="0"/>
        <pt x="544" y="59" on="0"/>
        <pt x="544" y="91" on="1"/>
        <pt x="544" y="210" on="1"/>
        <pt x="544" y="226" on="0"/>
        <pt x="536" y="250" on="0"/>
        <pt x="515" y="266" on="0"/>
        <pt x="476" y="276" on="0"/>
        <pt x="446" y="279" on="1"/>
        <pt x="442" y="279" on="0"/>
        <pt x="438" y="295" on="0"/>
        <pt x="438" y="302" on="1"/>
        <pt x="438" y="308" on="0"/>
        <pt x="442" y="324" on="0"/>
        <pt x="446" y="324" on="1"/>
        <pt x="471" y="324" on="0"/>
        <pt x="512" y="322" on="0"/>
        <pt x="551" y="320" on="0"/>
        <pt x="591" y="318" on="0"/>
        <pt x="614" y="318" on="1"/>
        <pt x="661" y="318" on="0"/>
        <pt x="763" y="324" on="0"/>
        <pt x="813" y="324" on="1"/>
        <pt x="816" y="324" on="0"/>
        <pt x="821" y="308" on="0"/>
      </contour>
    </TTGlyph>
    <TTGlyph name="G.sc" xMin="30" yMin="-18" xMax="613" yMax="497">
      <component glyphName="g.sc" x="0" y="0" flags="0x204"/>
    </TTGlyph>
    <TTGlyph name="Gbreve" xMin="42" yMin="-21" xMax="821" yMax="971">
      <component glyphName="G" x="0" y="0" flags="0x204"/>
      <component glyphName="breve.cap" x="269" y="15" flags="0x4"/>
    </TTGlyph>
    <TTGlyph name="Gbreve.sc" xMin="30" yMin="-18" xMax="613" yMax="738">
      <component glyphName="g.sc" x="0" y="0" flags="0x204"/>
      <component glyphName="breve" x="126" y="25" flags="0x4"/>
    </TTGlyph>
    <TTGlyph name="Gcommaaccent" xMin="42" yMin="-342" xMax="821" yMax="706">
      <component glyphName="G" x="0" y="0" flags="0x204"/>
      <component glyphName="commaaccent" x="326" y="-14" flags="0x4"/>
    </TTGlyph>
    <TTGlyph name="Gcommaaccent.sc" xMin="30" yMin="-337" xMax="613" yMax="497">
      <component glyphName="g.sc" x="0" y="0" flags="0x204"/>
      <component glyphName="commaaccent" x="208" y="-9" flags="0x4"/>
    </TTGlyph>
    <TTGlyph name="Gdotaccent" xMin="42" yMin="-21" xMax="821" yMax="959">
      <component glyphName="G" x="0" y="0" flags="0x204"/>
      <component glyphName="dotaccent.cap" x="244" y="15" flags="0x4"/>
    </TTGlyph>
    <TTGlyph name="Gdotaccent.sc" xMin="30" yMin="-18" xMax="613" yMax="746">
      <component glyphName="g.sc" x="0" y="0" flags="0x204"/>
      <component glyphName="dotaccent" x="126" y="25" flags="0x4"/>
    </TTGlyph>
    <TTGlyph name="H" xMin="44" yMin="-5" xMax="917" yMax="690">
      <contour>
        <pt x="917" y="17" on="1"/>
        <pt x="917" y="11" on="0"/>
        <pt x="912" y="-5" on="0"/>
        <pt x="909" y="-5" on="1"/>
        <pt x="859" y="-5" on="0"/>
        <pt x="761" y="0" on="0"/>
        <pt x="714" y="0" on="1"/>
        <pt x="667" y="0" on="0"/>
        <pt x="578" y="-5" on="0"/>
        <pt x="528" y="-5" on="1"/>
        <pt x="524" y="-5" on="0"/>
        <pt x="520" y="11" on="0"/>
        <pt x="520" y="17" on="1"/>
        <pt x="520" y="22" on="0"/>
        <pt x="524" y="38" on="0"/>
        <pt x="528" y="39" on="1"/>
        <pt x="556" y="42" on="0"/>
        <pt x="590" y="54" on="0"/>
        <pt x="609" y="74" on="0"/>
        <pt x="615" y="103" on="0"/>
        <pt x="615" y="123" on="1"/>
        <pt x="615" y="321" on="1"/>
        <pt x="345" y="321" on="1"/>
        <pt x="345" y="123" on="1"/>
        <pt x="345" y="103" on="0"/>
        <pt x="351" y="74" on="0"/>
        <pt x="370" y="54" on="0"/>
        <pt x="404" y="42" on="0"/>
        <pt x="433" y="39" on="1"/>
        <pt x="436" y="38" on="0"/>
        <pt x="441" y="22" on="0"/>
        <pt x="441" y="17" on="1"/>
        <pt x="441" y="11" on="0"/>
        <pt x="436" y="-5" on="0"/>
        <pt x="433" y="-5" on="1"/>
        <pt x="383" y="-5" on="0"/>
        <pt x="293" y="0" on="0"/>
        <pt x="246" y="0" on="1"/>
        <pt x="199" y="0" on="0"/>
        <pt x="102" y="-5" on="0"/>
        <pt x="52" y="-5" on="1"/>
        <pt x="48" y="-5" on="0"/>
        <pt x="44" y="11" on="0"/>
        <pt x="44" y="17" on="1"/>
        <pt x="44" y="22" on="0"/>
        <pt x="48" y="38" on="0"/>
        <pt x="52" y="39" on="1"/>
        <pt x="80" y="42" on="0"/>
        <pt x="117" y="54" on="0"/>
        <pt x="138" y="74" on="0"/>
        <pt x="147" y="103" on="0"/>
        <pt x="147" y="123" on="1"/>
        <pt x="147" y="562" on="1"/>
        <pt x="147" y="602" on="0"/>
        <pt x="108" y="640" on="0"/>
        <pt x="52" y="646" on="1"/>
        <pt x="48" y="647" on="0"/>
        <pt x="44" y="663" on="0"/>
        <pt x="44" y="668" on="1"/>
        <pt x="44" y="674" on="0"/>
        <pt x="48" y="690" on="0"/>
        <pt x="52" y="690" on="1"/>
        <pt x="102" y="690" on="0"/>
        <pt x="199" y="685" on="0"/>
        <pt x="246" y="685" on="1"/>
        <pt x="293" y="685" on="0"/>
        <pt x="382" y="690" on="0"/>
        <pt x="433" y="690" on="1"/>
        <pt x="436" y="690" on="0"/>
        <pt x="441" y="674" on="0"/>
        <pt x="441" y="668" on="1"/>
        <pt x="441" y="663" on="0"/>
        <pt x="436" y="647" on="0"/>
        <pt x="433" y="646" on="1"/>
        <pt x="404" y="643" on="0"/>
        <pt x="370" y="631" on="0"/>
        <pt x="351" y="611" on="0"/>
        <pt x="345" y="582" on="0"/>
        <pt x="345" y="562" on="1"/>
        <pt x="345" y="370" on="1"/>
        <pt x="615" y="370" on="1"/>
        <pt x="615" y="562" on="1"/>
        <pt x="615" y="582" on="0"/>
        <pt x="609" y="611" on="0"/>
        <pt x="590" y="631" on="0"/>
        <pt x="556" y="643" on="0"/>
        <pt x="528" y="646" on="1"/>
        <pt x="524" y="647" on="0"/>
        <pt x="520" y="663" on="0"/>
        <pt x="520" y="668" on="1"/>
        <pt x="520" y="674" on="0"/>
        <pt x="524" y="690" on="0"/>
        <pt x="528" y="690" on="1"/>
        <pt x="578" y="690" on="0"/>
        <pt x="667" y="685" on="0"/>
        <pt x="714" y="685" on="1"/>
        <pt x="762" y="685" on="0"/>
        <pt x="858" y="690" on="0"/>
        <pt x="909" y="690" on="1"/>
        <pt x="912" y="690" on="0"/>
        <pt x="917" y="674" on="0"/>
        <pt x="917" y="668" on="1"/>
        <pt x="917" y="663" on="0"/>
        <pt x="912" y="647" on="0"/>
        <pt x="909" y="646" on="1"/>
        <pt x="852" y="640" on="0"/>
        <pt x="813" y="602" on="0"/>
        <pt x="813" y="562" on="1"/>
        <pt x="813" y="123" on="1"/>
        <pt x="813" y="103" on="0"/>
        <pt x="822" y="74" on="0"/>
        <pt x="843" y="54" on="0"/>
        <pt x="880" y="42" on="0"/>
        <pt x="909" y="39" on="1"/>
        <pt x="912" y="38" on="0"/>
        <pt x="917" y="22" on="0"/>
      </contour>
    </TTGlyph>
    <TTGlyph name="H.sc" xMin="33" yMin="-5" xMax="699" yMax="481">
      <component glyphName="h.sc" x="0" y="0" flags="0x204"/>
    </TTGlyph>
    <TTGlyph name="Hbar" xMin="41" yMin="-5" xMax="920" yMax="690">
      <contour>
        <pt x="917" y="17" on="1"/>
        <pt x="917" y="11" on="0"/>
        <pt x="912" y="-5" on="0"/>
        <pt x="909" y="-5" on="1"/>
        <pt x="859" y="-5" on="0"/>
        <pt x="761" y="0" on="0"/>
        <pt x="714" y="0" on="1"/>
        <pt x="667" y="0" on="0"/>
        <pt x="578" y="-5" on="0"/>
        <pt x="528" y="-5" on="1"/>
        <pt x="524" y="-5" on="0"/>
        <pt x="520" y="11" on="0"/>
        <pt x="520" y="17" on="1"/>
        <pt x="520" y="22" on="0"/>
        <pt x="524" y="38" on="0"/>
        <pt x="528" y="39" on="1"/>
        <pt x="556" y="42" on="0"/>
        <pt x="590" y="54" on="0"/>
        <pt x="609" y="74" on="0"/>
        <pt x="615" y="103" on="0"/>
        <pt x="615" y="123" on="1"/>
        <pt x="615" y="321" on="1"/>
        <pt x="345" y="321" on="1"/>
        <pt x="345" y="123" on="1"/>
        <pt x="345" y="103" on="0"/>
        <pt x="351" y="74" on="0"/>
        <pt x="370" y="54" on="0"/>
        <pt x="404" y="42" on="0"/>
        <pt x="433" y="39" on="1"/>
        <pt x="436" y="38" on="0"/>
        <pt x="441" y="22" on="0"/>
        <pt x="441" y="17" on="1"/>
        <pt x="441" y="11" on="0"/>
        <pt x="436" y="-5" on="0"/>
        <pt x="433" y="-5" on="1"/>
        <pt x="383" y="-5" on="0"/>
        <pt x="293" y="0" on="0"/>
        <pt x="246" y="0" on="1"/>
        <pt x="199" y="0" on="0"/>
        <pt x="102" y="-5" on="0"/>
        <pt x="52" y="-5" on="1"/>
        <pt x="48" y="-5" on="0"/>
        <pt x="44" y="11" on="0"/>
        <pt x="44" y="17" on="1"/>
        <pt x="44" y="22" on="0"/>
        <pt x="48" y="38" on="0"/>
        <pt x="52" y="39" on="1"/>
        <pt x="80" y="42" on="0"/>
        <pt x="117" y="54" on="0"/>
        <pt x="138" y="74" on="0"/>
        <pt x="147" y="103" on="0"/>
        <pt x="147" y="123" on="1"/>
        <pt x="147" y="492" on="1"/>
        <pt x="53" y="492" on="1"/>
        <pt x="41" y="492" on="0"/>
        <pt x="41" y="518" on="1"/>
        <pt x="41" y="529" on="0"/>
        <pt x="48" y="544" on="0"/>
        <pt x="53" y="544" on="1"/>
        <pt x="147" y="544" on="1"/>
        <pt x="147" y="562" on="1"/>
        <pt x="147" y="602" on="0"/>
        <pt x="108" y="640" on="0"/>
        <pt x="52" y="646" on="1"/>
        <pt x="48" y="647" on="0"/>
        <pt x="44" y="663" on="0"/>
        <pt x="44" y="668" on="1"/>
        <pt x="44" y="674" on="0"/>
        <pt x="48" y="690" on="0"/>
        <pt x="52" y="690" on="1"/>
        <pt x="102" y="690" on="0"/>
        <pt x="199" y="685" on="0"/>
        <pt x="246" y="685" on="1"/>
        <pt x="293" y="685" on="0"/>
        <pt x="382" y="690" on="0"/>
        <pt x="433" y="690" on="1"/>
        <pt x="436" y="690" on="0"/>
        <pt x="441" y="674" on="0"/>
        <pt x="441" y="668" on="1"/>
        <pt x="441" y="663" on="0"/>
        <pt x="436" y="647" on="0"/>
        <pt x="433" y="646" on="1"/>
        <pt x="404" y="643" on="0"/>
        <pt x="370" y="631" on="0"/>
        <pt x="351" y="611" on="0"/>
        <pt x="345" y="582" on="0"/>
        <pt x="345" y="562" on="1"/>
        <pt x="345" y="543" on="1"/>
        <pt x="615" y="543" on="1"/>
        <pt x="615" y="562" on="1"/>
        <pt x="615" y="582" on="0"/>
        <pt x="609" y="611" on="0"/>
        <pt x="590" y="631" on="0"/>
        <pt x="556" y="643" on="0"/>
        <pt x="528" y="646" on="1"/>
        <pt x="524" y="647" on="0"/>
        <pt x="520" y="663" on="0"/>
        <pt x="520" y="668" on="1"/>
        <pt x="520" y="674" on="0"/>
        <pt x="524" y="690" on="0"/>
        <pt x="528" y="690" on="1"/>
        <pt x="578" y="690" on="0"/>
        <pt x="667" y="685" on="0"/>
        <pt x="714" y="685" on="1"/>
        <pt x="762" y="685" on="0"/>
        <pt x="858" y="690" on="0"/>
        <pt x="909" y="690" on="1"/>
        <pt x="912" y="690" on="0"/>
        <pt x="917" y="674" on="0"/>
        <pt x="917" y="668" on="1"/>
        <pt x="917" y="663" on="0"/>
        <pt x="912" y="647" on="0"/>
        <pt x="909" y="646" on="1"/>
        <pt x="852" y="640" on="0"/>
        <pt x="813" y="602" on="0"/>
        <pt x="813" y="562" on="1"/>
        <pt x="813" y="544" on="1"/>
        <pt x="907" y="544" on="1"/>
        <pt x="913" y="544" on="0"/>
        <pt x="920" y="529" on="0"/>
        <pt x="920" y="518" on="1"/>
        <pt x="920" y="492" on="0"/>
        <pt x="907" y="492" on="1"/>
        <pt x="813" y="492" on="1"/>
        <pt x="813" y="123" on="1"/>
        <pt x="813" y="103" on="0"/>
        <pt x="822" y="74" on="0"/>
        <pt x="843" y="54" on="0"/>
        <pt x="880" y="42" on="0"/>
        <pt x="909" y="39" on="1"/>
        <pt x="912" y="38" on="0"/>
        <pt x="917" y="22" on="0"/>
      </contour>
      <contour>
        <pt x="615" y="370" on="1"/>
        <pt x="615" y="493" on="1"/>
        <pt x="345" y="493" on="1"/>
        <pt x="345" y="370" on="1"/>
      </contour>
    </TTGlyph>
    <TTGlyph name="Hbar.sc" xMin="29" yMin="-5" xMax="704" yMax="481">
      <component glyphName="hbar.sc" x="0" y="0" flags="0x204"/>
    </TTGlyph>
    <TTGlyph name="I" xMin="43" yMin="-5" xMax="448" yMax="690">
      <contour>
        <pt x="448" y="17" on="1"/>
        <pt x="448" y="11" on="0"/>
        <pt x="444" y="-5" on="0"/>
        <pt x="440" y="-5" on="1"/>
        <pt x="390" y="-5" on="0"/>
        <pt x="293" y="0" on="0"/>
        <pt x="246" y="0" on="1"/>
        <pt x="199" y="0" on="0"/>
        <pt x="101" y="-5" on="0"/>
        <pt x="51" y="-5" on="1"/>
        <pt x="48" y="-5" on="0"/>
        <pt x="43" y="11" on="0"/>
        <pt x="43" y="17" on="1"/>
        <pt x="43" y="22" on="0"/>
        <pt x="48" y="38" on="0"/>
        <pt x="51" y="39" on="1"/>
        <pt x="79" y="42" on="0"/>
        <pt x="117" y="54" on="0"/>
        <pt x="138" y="74" on="0"/>
        <pt x="147" y="103" on="0"/>
        <pt x="147" y="123" on="1"/>
        <pt x="147" y="562" on="1"/>
        <pt x="147" y="602" on="0"/>
        <pt x="108" y="640" on="0"/>
        <pt x="51" y="646" on="1"/>
        <pt x="48" y="647" on="0"/>
        <pt x="43" y="663" on="0"/>
        <pt x="43" y="668" on="1"/>
        <pt x="43" y="674" on="0"/>
        <pt x="48" y="690" on="0"/>
        <pt x="51" y="690" on="1"/>
        <pt x="101" y="690" on="0"/>
        <pt x="199" y="685" on="0"/>
        <pt x="246" y="685" on="1"/>
        <pt x="293" y="685" on="0"/>
        <pt x="390" y="690" on="0"/>
        <pt x="440" y="690" on="1"/>
        <pt x="444" y="690" on="0"/>
        <pt x="448" y="674" on="0"/>
        <pt x="448" y="668" on="1"/>
        <pt x="448" y="663" on="0"/>
        <pt x="444" y="647" on="0"/>
        <pt x="440" y="646" on="1"/>
        <pt x="384" y="640" on="0"/>
        <pt x="345" y="602" on="0"/>
        <pt x="345" y="562" on="1"/>
        <pt x="345" y="123" on="1"/>
        <pt x="345" y="103" on="0"/>
        <pt x="354" y="74" on="0"/>
        <pt x="375" y="54" on="0"/>
        <pt x="412" y="42" on="0"/>
        <pt x="440" y="39" on="1"/>
        <pt x="444" y="38" on="0"/>
        <pt x="448" y="22" on="0"/>
      </contour>
    </TTGlyph>
    <TTGlyph name="I.sc" xMin="34" yMin="-5" xMax="345" yMax="481">
      <component glyphName="i.sc" x="0" y="0" flags="0x204"/>
    </TTGlyph>
    <TTGlyph name="Iacute" xMin="43" yMin="-5" xMax="448" yMax="971">
      <component glyphName="I" x="0" y="0" flags="0x204"/>
      <component glyphName="acute.cap" x="107" y="0" flags="0x4"/>
    </TTGlyph>
    <TTGlyph name="Iacute.sc" xMin="34" yMin="-5" xMax="378" yMax="759">
      <component glyphName="i.sc" x="0" y="0" flags="0x204"/>
      <component glyphName="acute" x="48" y="15" flags="0x4"/>
    </TTGlyph>
    <TTGlyph name="Ibreve" xMin="43" yMin="-5" xMax="448" yMax="956">
      <component glyphName="I" x="0" y="0" flags="0x204"/>
      <component glyphName="breve.cap" x="72" y="0" flags="0x4"/>
    </TTGlyph>
    <TTGlyph name="Ibreve.sc" xMin="25" yMin="-5" xMax="355" yMax="728">
      <component glyphName="i.sc" x="0" y="0" flags="0x204"/>
      <component glyphName="breve" x="-10" y="15" flags="0x4"/>
    </TTGlyph>
    <TTGlyph name="Icircumflex" xMin="43" yMin="-5" xMax="451" yMax="962">
      <component glyphName="I" x="0" y="0" flags="0x204"/>
      <component glyphName="circumflex.cap" x="47" y="0" flags="0x4"/>
    </TTGlyph>
    <TTGlyph name="Icircumflex.sc" xMin="27" yMin="-5" xMax="354" yMax="761">
      <component glyphName="i.sc" x="0" y="0" flags="0x204"/>
      <component glyphName="circumflex" x="-9" y="15" flags="0x4"/>
    </TTGlyph>
    <TTGlyph name="Idieresis" xMin="28" yMin="-5" xMax="466" yMax="944">
      <component glyphName="I" x="0" y="0" flags="0x204"/>
      <component glyphName="dieresis.cap" x="42" y="0" flags="0x4"/>
    </TTGlyph>
    <TTGlyph name="Idieresis.sc" xMin="-12" yMin="-5" xMax="389" yMax="736">
      <component glyphName="i.sc" x="0" y="0" flags="0x204"/>
      <component glyphName="dieresis" x="-16" y="15" flags="0x4"/>
    </TTGlyph>
    <TTGlyph name="Idotaccent" xMin="43" yMin="-5" xMax="448" yMax="944">
      <component glyphName="I" x="0" y="0" flags="0x204"/>
      <component glyphName="dotaccent.cap" x="47" y="0" flags="0x4"/>
    </TTGlyph>
    <TTGlyph name="Idotaccent.sc" xMin="34" yMin="-5" xMax="345" yMax="736">
      <component glyphName="i.sc" x="0" y="0" flags="0x204"/>
      <component glyphName="dotaccent" x="-10" y="15" flags="0x4"/>
    </TTGlyph>
    <TTGlyph name="Igrave" xMin="43" yMin="-5" xMax="448" yMax="971">
      <component glyphName="I" x="0" y="0" flags="0x204"/>
      <component glyphName="grave.cap" x="-3" y="0" flags="0x4"/>
    </TTGlyph>
    <TTGlyph name="Igrave.sc" xMin="2" yMin="-5" xMax="345" yMax="759">
      <component glyphName="i.sc" x="0" y="0" flags="0x204"/>
      <component glyphName="grave" x="-58" y="15" flags="0x4"/>
    </TTGlyph>
    <TTGlyph name="Imacron" xMin="28" yMin="-5" xMax="465" yMax="881">
      <component glyphName="I" x="0" y="0" flags="0x204"/>
      <component glyphName="macron.cap" x="32" y="0" flags="0x4"/>
    </TTGlyph>
    <TTGlyph name="Imacron.sc" xMin="23" yMin="-5" xMax="357" yMax="666">
      <component glyphName="i.sc" x="0" y="0" flags="0x204"/>
      <component glyphName="macron" x="-10" y="15" flags="0x4"/>
    </TTGlyph>
    <TTGlyph name="Iogonek" xMin="43" yMin="-212" xMax="448" yMax="690">
      <contour>
        <pt x="351" y="-172" on="1"/>
        <pt x="336" y="-186" on="0"/>
        <pt x="286" y="-212" on="0"/>
        <pt x="248" y="-212" on="1"/>
        <pt x="194" y="-212" on="0"/>
        <pt x="136" y="-162" on="0"/>
        <pt x="136" y="-124" on="1"/>
        <pt x="136" y="-87" on="0"/>
        <pt x="181" y="-26" on="0"/>
        <pt x="216" y="0" on="1"/>
        <pt x="176" y="-1" on="0"/>
        <pt x="93" y="-5" on="0"/>
        <pt x="51" y="-5" on="1"/>
        <pt x="48" y="-5" on="0"/>
        <pt x="43" y="11" on="0"/>
        <pt x="43" y="17" on="1"/>
        <pt x="43" y="22" on="0"/>
        <pt x="48" y="38" on="0"/>
        <pt x="51" y="39" on="1"/>
        <pt x="79" y="42" on="0"/>
        <pt x="117" y="54" on="0"/>
        <pt x="138" y="74" on="0"/>
        <pt x="147" y="103" on="0"/>
        <pt x="147" y="123" on="1"/>
        <pt x="147" y="562" on="1"/>
        <pt x="147" y="602" on="0"/>
        <pt x="108" y="640" on="0"/>
        <pt x="51" y="646" on="1"/>
        <pt x="48" y="647" on="0"/>
        <pt x="43" y="663" on="0"/>
        <pt x="43" y="668" on="1"/>
        <pt x="43" y="674" on="0"/>
        <pt x="48" y="690" on="0"/>
        <pt x="51" y="690" on="1"/>
        <pt x="101" y="690" on="0"/>
        <pt x="199" y="685" on="0"/>
        <pt x="246" y="685" on="1"/>
        <pt x="293" y="685" on="0"/>
        <pt x="390" y="690" on="0"/>
        <pt x="440" y="690" on="1"/>
        <pt x="444" y="690" on="0"/>
        <pt x="448" y="674" on="0"/>
        <pt x="448" y="668" on="1"/>
        <pt x="448" y="663" on="0"/>
        <pt x="444" y="647" on="0"/>
        <pt x="440" y="646" on="1"/>
        <pt x="384" y="640" on="0"/>
        <pt x="345" y="602" on="0"/>
        <pt x="345" y="562" on="1"/>
        <pt x="345" y="123" on="1"/>
        <pt x="345" y="103" on="0"/>
        <pt x="354" y="74" on="0"/>
        <pt x="375" y="54" on="0"/>
        <pt x="412" y="42" on="0"/>
        <pt x="440" y="39" on="1"/>
        <pt x="444" y="38" on="0"/>
        <pt x="448" y="22" on="0"/>
        <pt x="448" y="17" on="1"/>
        <pt x="448" y="11" on="0"/>
        <pt x="444" y="-5" on="0"/>
        <pt x="440" y="-5" on="1"/>
        <pt x="402" y="-5" on="0"/>
        <pt x="328" y="-2" on="0"/>
        <pt x="291" y="0" on="1"/>
        <pt x="268" y="-23" on="0"/>
        <pt x="245" y="-73" on="0"/>
        <pt x="245" y="-99" on="1"/>
        <pt x="245" y="-123" on="0"/>
        <pt x="272" y="-150" on="0"/>
        <pt x="294" y="-150" on="1"/>
        <pt x="301" y="-150" on="0"/>
        <pt x="328" y="-143" on="0"/>
        <pt x="337" y="-139" on="1"/>
        <pt x="341" y="-138" on="0"/>
        <pt x="348" y="-148" on="0"/>
        <pt x="350" y="-153" on="1"/>
        <pt x="355" y="-166" on="0"/>
      </contour>
    </TTGlyph>
    <TTGlyph name="Iogonek.sc" xMin="34" yMin="-212" xMax="345" yMax="481">
      <component glyphName="iogonek.sc" x="0" y="0" flags="0x204"/>
    </TTGlyph>
    <TTGlyph name="J" xMin="-133" yMin="-264" xMax="491" yMax="689">
      <contour>
        <pt x="491" y="667" on="1"/>
        <pt x="491" y="661" on="0"/>
        <pt x="486" y="645" on="0"/>
        <pt x="483" y="645" on="1"/>
        <pt x="454" y="642" on="0"/>
        <pt x="417" y="629" on="0"/>
        <pt x="396" y="609" on="0"/>
        <pt x="387" y="580" on="0"/>
        <pt x="387" y="560" on="1"/>
        <pt x="387" y="92" on="1"/>
        <pt x="387" y="3" on="0"/>
        <pt x="336" y="-131" on="0"/>
        <pt x="246" y="-220" on="0"/>
        <pt x="122" y="-264" on="0"/>
        <pt x="50" y="-264" on="1"/>
        <pt x="15" y="-264" on="0"/>
        <pt x="-51" y="-246" on="0"/>
        <pt x="-102" y="-213" on="0"/>
        <pt x="-133" y="-168" on="0"/>
        <pt x="-133" y="-142" on="1"/>
        <pt x="-133" y="-94" on="0"/>
        <pt x="-74" y="-42" on="0"/>
        <pt x="-25" y="-42" on="1"/>
        <pt x="-1" y="-42" on="0"/>
        <pt x="34" y="-65" on="0"/>
        <pt x="60" y="-100" on="0"/>
        <pt x="80" y="-141" on="0"/>
        <pt x="100" y="-176" on="0"/>
        <pt x="121" y="-199" on="0"/>
        <pt x="136" y="-199" on="1"/>
        <pt x="165" y="-199" on="0"/>
        <pt x="189" y="-119" on="0"/>
        <pt x="189" y="-21" on="1"/>
        <pt x="189" y="560" on="1"/>
        <pt x="189" y="600" on="0"/>
        <pt x="150" y="638" on="0"/>
        <pt x="94" y="645" on="1"/>
        <pt x="90" y="645" on="0"/>
        <pt x="86" y="661" on="0"/>
        <pt x="86" y="667" on="1"/>
        <pt x="86" y="672" on="0"/>
        <pt x="90" y="689" on="0"/>
        <pt x="94" y="689" on="1"/>
        <pt x="144" y="689" on="0"/>
        <pt x="241" y="683" on="0"/>
        <pt x="288" y="683" on="1"/>
        <pt x="335" y="683" on="0"/>
        <pt x="433" y="689" on="0"/>
        <pt x="483" y="689" on="1"/>
        <pt x="486" y="689" on="0"/>
        <pt x="491" y="672" on="0"/>
      </contour>
    </TTGlyph>
    <TTGlyph name="J.sc" xMin="-119" yMin="-221" xMax="388" yMax="480">
      <component glyphName="j.sc" x="0" y="0" flags="0x204"/>
    </TTGlyph>
    <TTGlyph name="K" xMin="37" yMin="-5" xMax="888" yMax="690">
      <contour>
        <pt x="888" y="17" on="1"/>
        <pt x="888" y="11" on="0"/>
        <pt x="884" y="-5" on="0"/>
        <pt x="880" y="-5" on="1"/>
        <pt x="855" y="-5" on="0"/>
        <pt x="816" y="-3" on="0"/>
        <pt x="779" y="-2" on="0"/>
        <pt x="741" y="0" on="0"/>
        <pt x="718" y="0" on="1"/>
        <pt x="671" y="0" on="0"/>
        <pt x="561" y="-5" on="0"/>
        <pt x="511" y="-5" on="1"/>
        <pt x="508" y="-5" on="0"/>
        <pt x="503" y="11" on="0"/>
        <pt x="503" y="17" on="1"/>
        <pt x="503" y="22" on="0"/>
        <pt x="507" y="38" on="0"/>
        <pt x="510" y="39" on="1"/>
        <pt x="559" y="45" on="0"/>
        <pt x="559" y="71" on="1"/>
        <pt x="559" y="85" on="0"/>
        <pt x="543" y="107" on="1"/>
        <pt x="414" y="285" on="1"/>
        <pt x="403" y="301" on="0"/>
        <pt x="375" y="315" on="0"/>
        <pt x="346" y="315" on="1"/>
        <pt x="346" y="123" on="1"/>
        <pt x="346" y="103" on="0"/>
        <pt x="352" y="74" on="0"/>
        <pt x="371" y="54" on="0"/>
        <pt x="405" y="42" on="0"/>
        <pt x="434" y="39" on="1"/>
        <pt x="437" y="38" on="0"/>
        <pt x="442" y="22" on="0"/>
        <pt x="442" y="17" on="1"/>
        <pt x="442" y="11" on="0"/>
        <pt x="437" y="-5" on="0"/>
        <pt x="434" y="-5" on="1"/>
        <pt x="384" y="-5" on="0"/>
        <pt x="294" y="0" on="0"/>
        <pt x="247" y="0" on="1"/>
        <pt x="200" y="0" on="0"/>
        <pt x="103" y="-5" on="0"/>
        <pt x="53" y="-5" on="1"/>
        <pt x="49" y="-5" on="0"/>
        <pt x="45" y="11" on="0"/>
        <pt x="45" y="17" on="1"/>
        <pt x="45" y="22" on="0"/>
        <pt x="49" y="38" on="0"/>
        <pt x="53" y="39" on="1"/>
        <pt x="81" y="42" on="0"/>
        <pt x="118" y="54" on="0"/>
        <pt x="139" y="74" on="0"/>
        <pt x="148" y="103" on="0"/>
        <pt x="148" y="123" on="1"/>
        <pt x="148" y="562" on="1"/>
        <pt x="148" y="581" on="0"/>
        <pt x="143" y="609" on="0"/>
        <pt x="123" y="629" on="0"/>
        <pt x="81" y="642" on="0"/>
        <pt x="45" y="646" on="1"/>
        <pt x="41" y="647" on="0"/>
        <pt x="37" y="663" on="0"/>
        <pt x="37" y="668" on="1"/>
        <pt x="37" y="674" on="0"/>
        <pt x="41" y="690" on="0"/>
        <pt x="45" y="690" on="1"/>
        <pt x="95" y="690" on="0"/>
        <pt x="200" y="685" on="0"/>
        <pt x="247" y="685" on="1"/>
        <pt x="294" y="685" on="0"/>
        <pt x="400" y="690" on="0"/>
        <pt x="450" y="690" on="1"/>
        <pt x="453" y="690" on="0"/>
        <pt x="458" y="674" on="0"/>
        <pt x="458" y="668" on="1"/>
        <pt x="458" y="663" on="0"/>
        <pt x="453" y="647" on="0"/>
        <pt x="450" y="646" on="1"/>
        <pt x="414" y="642" on="0"/>
        <pt x="372" y="629" on="0"/>
        <pt x="351" y="609" on="0"/>
        <pt x="346" y="581" on="0"/>
        <pt x="346" y="562" on="1"/>
        <pt x="346" y="370" on="1"/>
        <pt x="366" y="370" on="0"/>
        <pt x="389" y="380" on="0"/>
        <pt x="406" y="396" on="1"/>
        <pt x="597" y="578" on="1"/>
        <pt x="606" y="587" on="0"/>
        <pt x="616" y="602" on="0"/>
        <pt x="616" y="612" on="1"/>
        <pt x="616" y="624" on="0"/>
        <pt x="587" y="642" on="0"/>
        <pt x="553" y="646" on="1"/>
        <pt x="549" y="647" on="0"/>
        <pt x="545" y="663" on="0"/>
        <pt x="545" y="668" on="1"/>
        <pt x="545" y="674" on="0"/>
        <pt x="550" y="690" on="0"/>
        <pt x="553" y="690" on="1"/>
        <pt x="590" y="690" on="0"/>
        <pt x="688" y="685" on="0"/>
        <pt x="728" y="685" on="1"/>
        <pt x="762" y="685" on="0"/>
        <pt x="814" y="690" on="0"/>
        <pt x="838" y="690" on="1"/>
        <pt x="842" y="690" on="0"/>
        <pt x="846" y="674" on="0"/>
        <pt x="846" y="668" on="1"/>
        <pt x="846" y="662" on="0"/>
        <pt x="841" y="647" on="0"/>
        <pt x="837" y="646" on="1"/>
        <pt x="781" y="640" on="0"/>
        <pt x="694" y="593" on="0"/>
        <pt x="663" y="563" on="1"/>
        <pt x="542" y="443" on="1"/>
        <pt x="777" y="104" on="1"/>
        <pt x="800" y="71" on="0"/>
        <pt x="848" y="43" on="0"/>
        <pt x="880" y="39" on="1"/>
        <pt x="883" y="38" on="0"/>
        <pt x="888" y="23" on="0"/>
      </contour>
    </TTGlyph>
    <TTGlyph name="K.sc" xMin="33" yMin="-5" xMax="682" yMax="481">
      <component glyphName="k.sc" x="0" y="0" flags="0x204"/>
    </TTGlyph>
    <TTGlyph name="Kcommaaccent" xMin="37" yMin="-332" xMax="888" yMax="690">
      <component glyphName="K" x="0" y="0" flags="0x204"/>
      <component glyphName="commaaccent" x="356" y="-4" flags="0x4"/>
    </TTGlyph>
    <TTGlyph name="Kcommaaccent.sc" xMin="33" yMin="-328" xMax="682" yMax="481">
      <component glyphName="k.sc" x="0" y="0" flags="0x204"/>
      <component glyphName="commaaccent" x="233" y="0" flags="0x4"/>
    </TTGlyph>
    <TTGlyph name="L" xMin="44" yMin="-5" xMax="701" yMax="690">
      <contour>
        <pt x="700" y="253" on="1"/>
        <pt x="697" y="229" on="0"/>
        <pt x="690" y="160" on="0"/>
        <pt x="684" y="87" on="0"/>
        <pt x="679" y="18" on="0"/>
        <pt x="678" y="-5" on="1"/>
        <pt x="654" y="-4" on="0"/>
        <pt x="570" y="-3" on="0"/>
        <pt x="478" y="-1" on="0"/>
        <pt x="393" y="0" on="0"/>
        <pt x="368" y="0" on="1"/>
        <pt x="343" y="0" on="0"/>
        <pt x="256" y="-1" on="0"/>
        <pt x="162" y="-3" on="0"/>
        <pt x="76" y="-4" on="0"/>
        <pt x="52" y="-5" on="1"/>
        <pt x="48" y="-5" on="0"/>
        <pt x="44" y="11" on="0"/>
        <pt x="44" y="17" on="1"/>
        <pt x="44" y="22" on="0"/>
        <pt x="48" y="38" on="0"/>
        <pt x="52" y="39" on="1"/>
        <pt x="80" y="42" on="0"/>
        <pt x="117" y="54" on="0"/>
        <pt x="138" y="74" on="0"/>
        <pt x="147" y="103" on="0"/>
        <pt x="147" y="123" on="1"/>
        <pt x="147" y="562" on="1"/>
        <pt x="147" y="602" on="0"/>
        <pt x="108" y="640" on="0"/>
        <pt x="52" y="646" on="1"/>
        <pt x="48" y="647" on="0"/>
        <pt x="44" y="663" on="0"/>
        <pt x="44" y="668" on="1"/>
        <pt x="44" y="674" on="0"/>
        <pt x="48" y="690" on="0"/>
        <pt x="52" y="690" on="1"/>
        <pt x="102" y="690" on="0"/>
        <pt x="200" y="685" on="0"/>
        <pt x="246" y="685" on="1"/>
        <pt x="293" y="685" on="0"/>
        <pt x="391" y="690" on="0"/>
        <pt x="441" y="690" on="1"/>
        <pt x="444" y="690" on="0"/>
        <pt x="449" y="674" on="0"/>
        <pt x="449" y="668" on="1"/>
        <pt x="449" y="663" on="0"/>
        <pt x="444" y="647" on="0"/>
        <pt x="441" y="646" on="1"/>
        <pt x="384" y="640" on="0"/>
        <pt x="345" y="602" on="0"/>
        <pt x="345" y="562" on="1"/>
        <pt x="345" y="108" on="1"/>
        <pt x="345" y="90" on="0"/>
        <pt x="356" y="67" on="0"/>
        <pt x="373" y="54" on="0"/>
        <pt x="394" y="49" on="0"/>
        <pt x="404" y="49" on="1"/>
        <pt x="461" y="49" on="1"/>
        <pt x="498" y="49" on="0"/>
        <pt x="562" y="86" on="0"/>
        <pt x="612" y="146" on="0"/>
        <pt x="647" y="223" on="0"/>
        <pt x="655" y="263" on="1"/>
        <pt x="655" y="267" on="0"/>
        <pt x="669" y="267" on="1"/>
        <pt x="681" y="267" on="0"/>
        <pt x="701" y="259" on="0"/>
      </contour>
    </TTGlyph>
    <TTGlyph name="L.sc" xMin="33" yMin="-5" xMax="536" yMax="481">
      <component glyphName="l.sc" x="0" y="0" flags="0x204"/>
    </TTGlyph>
    <TTGlyph name="Lacute" xMin="44" yMin="-5" xMax="701" yMax="971">
      <component glyphName="L" x="0" y="0" flags="0x204"/>
      <component glyphName="acute.cap" x="98" y="0" flags="0x4"/>
    </TTGlyph>
    <TTGlyph name="Lacute.sc" xMin="33" yMin="-5" xMax="536" yMax="744">
      <component glyphName="l.sc" x="0" y="0" flags="0x204"/>
      <component glyphName="acute" x="49" y="0" flags="0x4"/>
    </TTGlyph>
    <TTGlyph name="Lcaron" xMin="44" yMin="-5" xMax="701" yMax="694">
      <component glyphName="L" x="0" y="0" flags="0x204"/>
      <component glyphName="caron.alt" x="349" y="-74" flags="0x4"/>
    </TTGlyph>
    <TTGlyph name="Lcaron.sc" xMin="33" yMin="-5" xMax="536" yMax="486">
      <component glyphName="l.sc" x="0" y="0" flags="0x204"/>
      <component glyphName="caron.alt" x="227" y="-282" flags="0x4"/>
    </TTGlyph>
    <TTGlyph name="Lcommaaccent" xMin="44" yMin="-337" xMax="701" yMax="690">
      <component glyphName="L" x="0" y="0" flags="0x204"/>
      <component glyphName="commaaccent" x="264" y="-9" flags="0x4"/>
    </TTGlyph>
    <TTGlyph name="Lcommaaccent.sc" xMin="33" yMin="-332" xMax="536" yMax="481">
      <component glyphName="l.sc" x="0" y="0" flags="0x204"/>
      <component glyphName="commaaccent" x="174" y="-4" flags="0x4"/>
    </TTGlyph>
    <TTGlyph name="Ldot" xMin="44" yMin="-5" xMax="701" yMax="690">
      <component glyphName="L" x="0" y="0" flags="0x204"/>
      <component glyphName="periodcentered" x="450" y="102" flags="0x4"/>
    </TTGlyph>
    <TTGlyph name="Ldot.sc" xMin="33" yMin="-5" xMax="534" yMax="481">
      <component glyphName="ldot.sc" x="0" y="0" flags="0x204"/>
    </TTGlyph>
    <TTGlyph name="Lslash" xMin="16" yMin="-5" xMax="701" yMax="690">
      <contour>
        <pt x="700" y="253" on="1"/>
        <pt x="697" y="229" on="0"/>
        <pt x="690" y="160" on="0"/>
        <pt x="684" y="87" on="0"/>
        <pt x="679" y="18" on="0"/>
        <pt x="678" y="-5" on="1"/>
        <pt x="654" y="-4" on="0"/>
        <pt x="570" y="-3" on="0"/>
        <pt x="478" y="-1" on="0"/>
        <pt x="393" y="0" on="0"/>
        <pt x="368" y="0" on="1"/>
        <pt x="343" y="0" on="0"/>
        <pt x="256" y="-1" on="0"/>
        <pt x="162" y="-3" on="0"/>
        <pt x="76" y="-4" on="0"/>
        <pt x="52" y="-5" on="1"/>
        <pt x="48" y="-5" on="0"/>
        <pt x="44" y="11" on="0"/>
        <pt x="44" y="17" on="1"/>
        <pt x="44" y="22" on="0"/>
        <pt x="48" y="38" on="0"/>
        <pt x="52" y="39" on="1"/>
        <pt x="80" y="42" on="0"/>
        <pt x="117" y="54" on="0"/>
        <pt x="138" y="74" on="0"/>
        <pt x="147" y="103" on="0"/>
        <pt x="147" y="123" on="1"/>
        <pt x="147" y="245" on="1"/>
        <pt x="54" y="191" on="1"/>
        <pt x="53" y="190" on="0"/>
        <pt x="51" y="190" on="1"/>
        <pt x="45" y="190" on="0"/>
        <pt x="29" y="205" on="0"/>
        <pt x="24" y="213" on="1"/>
        <pt x="21" y="220" on="0"/>
        <pt x="16" y="237" on="0"/>
        <pt x="16" y="243" on="1"/>
        <pt x="16" y="249" on="0"/>
        <pt x="18" y="250" on="1"/>
        <pt x="147" y="324" on="1"/>
        <pt x="147" y="562" on="1"/>
        <pt x="147" y="602" on="0"/>
        <pt x="108" y="640" on="0"/>
        <pt x="52" y="646" on="1"/>
        <pt x="48" y="647" on="0"/>
        <pt x="44" y="663" on="0"/>
        <pt x="44" y="668" on="1"/>
        <pt x="44" y="674" on="0"/>
        <pt x="48" y="690" on="0"/>
        <pt x="52" y="690" on="1"/>
        <pt x="102" y="690" on="0"/>
        <pt x="200" y="685" on="0"/>
        <pt x="246" y="685" on="1"/>
        <pt x="293" y="685" on="0"/>
        <pt x="391" y="690" on="0"/>
        <pt x="441" y="690" on="1"/>
        <pt x="444" y="690" on="0"/>
        <pt x="449" y="674" on="0"/>
        <pt x="449" y="668" on="1"/>
        <pt x="449" y="663" on="0"/>
        <pt x="444" y="647" on="0"/>
        <pt x="441" y="646" on="1"/>
        <pt x="384" y="640" on="0"/>
        <pt x="345" y="602" on="0"/>
        <pt x="345" y="562" on="1"/>
        <pt x="345" y="439" on="1"/>
        <pt x="482" y="518" on="1"/>
        <pt x="482" y="518" on="0"/>
        <pt x="485" y="518" on="1"/>
        <pt x="490" y="518" on="0"/>
        <pt x="504" y="502" on="0"/>
        <pt x="508" y="494" on="1"/>
        <pt x="513" y="486" on="0"/>
        <pt x="520" y="471" on="0"/>
        <pt x="520" y="465" on="1"/>
        <pt x="520" y="459" on="0"/>
        <pt x="517" y="458" on="1"/>
        <pt x="345" y="359" on="1"/>
        <pt x="345" y="108" on="1"/>
        <pt x="345" y="90" on="0"/>
        <pt x="356" y="67" on="0"/>
        <pt x="373" y="54" on="0"/>
        <pt x="394" y="49" on="0"/>
        <pt x="404" y="49" on="1"/>
        <pt x="461" y="49" on="1"/>
        <pt x="498" y="49" on="0"/>
        <pt x="562" y="86" on="0"/>
        <pt x="612" y="146" on="0"/>
        <pt x="647" y="223" on="0"/>
        <pt x="655" y="263" on="1"/>
        <pt x="655" y="267" on="0"/>
        <pt x="669" y="267" on="1"/>
        <pt x="681" y="267" on="0"/>
        <pt x="701" y="259" on="0"/>
      </contour>
    </TTGlyph>
    <TTGlyph name="Lslash.sc" xMin="25" yMin="-5" xMax="533" yMax="481">
      <component glyphName="lslash.sc" x="0" y="0" flags="0x204"/>
    </TTGlyph>
    <TTGlyph name="M" xMin="6" yMin="-21" xMax="1036" yMax="690">
      <contour>
        <pt x="1036" y="17" on="1"/>
        <pt x="1036" y="11" on="0"/>
        <pt x="1032" y="-5" on="0"/>
        <pt x="1029" y="-5" on="1"/>
        <pt x="979" y="-5" on="0"/>
        <pt x="879" y="0" on="0"/>
        <pt x="832" y="0" on="1"/>
        <pt x="785" y="0" on="0"/>
        <pt x="690" y="-5" on="0"/>
        <pt x="640" y="-5" on="1"/>
        <pt x="636" y="-5" on="0"/>
        <pt x="631" y="11" on="0"/>
        <pt x="631" y="17" on="1"/>
        <pt x="631" y="22" on="0"/>
        <pt x="635" y="38" on="0"/>
        <pt x="639" y="39" on="1"/>
        <pt x="693" y="45" on="0"/>
        <pt x="733" y="82" on="0"/>
        <pt x="731" y="123" on="1"/>
        <pt x="713" y="555" on="1"/>
        <pt x="494" y="-13" on="1"/>
        <pt x="493" y="-15" on="0"/>
        <pt x="475" y="-21" on="0"/>
        <pt x="464" y="-21" on="1"/>
        <pt x="451" y="-21" on="0"/>
        <pt x="436" y="-15" on="0"/>
        <pt x="434" y="-13" on="1"/>
        <pt x="213" y="533" on="1"/>
        <pt x="188" y="123" on="1"/>
        <pt x="187" y="102" on="0"/>
        <pt x="195" y="72" on="0"/>
        <pt x="218" y="53" on="0"/>
        <pt x="256" y="42" on="0"/>
        <pt x="284" y="39" on="1"/>
        <pt x="287" y="38" on="0"/>
        <pt x="290" y="22" on="0"/>
        <pt x="290" y="17" on="1"/>
        <pt x="290" y="11" on="0"/>
        <pt x="285" y="-5" on="0"/>
        <pt x="281" y="-5" on="1"/>
        <pt x="243" y="-5" on="0"/>
        <pt x="180" y="0" on="0"/>
        <pt x="145" y="0" on="1"/>
        <pt x="108" y="0" on="0"/>
        <pt x="48" y="-5" on="0"/>
        <pt x="13" y="-5" on="1"/>
        <pt x="10" y="-5" on="0"/>
        <pt x="6" y="11" on="0"/>
        <pt x="6" y="17" on="1"/>
        <pt x="6" y="23" on="0"/>
        <pt x="12" y="38" on="0"/>
        <pt x="16" y="39" on="1"/>
        <pt x="46" y="42" on="0"/>
        <pt x="85" y="54" on="0"/>
        <pt x="110" y="73" on="0"/>
        <pt x="122" y="102" on="0"/>
        <pt x="124" y="123" on="1"/>
        <pt x="165" y="562" on="1"/>
        <pt x="169" y="602" on="0"/>
        <pt x="123" y="640" on="0"/>
        <pt x="68" y="646" on="1"/>
        <pt x="65" y="647" on="0"/>
        <pt x="61" y="663" on="0"/>
        <pt x="61" y="668" on="1"/>
        <pt x="61" y="674" on="0"/>
        <pt x="67" y="690" on="0"/>
        <pt x="71" y="690" on="1"/>
        <pt x="84" y="690" on="0"/>
        <pt x="120" y="688" on="0"/>
        <pt x="157" y="687" on="0"/>
        <pt x="191" y="685" on="0"/>
        <pt x="202" y="685" on="1"/>
        <pt x="215" y="685" on="0"/>
        <pt x="254" y="687" on="0"/>
        <pt x="298" y="688" on="0"/>
        <pt x="340" y="690" on="0"/>
        <pt x="355" y="690" on="1"/>
        <pt x="537" y="238" on="1"/>
        <pt x="712" y="690" on="1"/>
        <pt x="750" y="690" on="0"/>
        <pt x="831" y="685" on="0"/>
        <pt x="857" y="685" on="1"/>
        <pt x="889" y="685" on="0"/>
        <pt x="966" y="690" on="0"/>
        <pt x="999" y="690" on="1"/>
        <pt x="1002" y="690" on="0"/>
        <pt x="1007" y="674" on="0"/>
        <pt x="1007" y="668" on="1"/>
        <pt x="1007" y="663" on="0"/>
        <pt x="1003" y="647" on="0"/>
        <pt x="1000" y="646" on="1"/>
        <pt x="946" y="640" on="0"/>
        <pt x="906" y="603" on="0"/>
        <pt x="908" y="562" on="1"/>
        <pt x="929" y="123" on="1"/>
        <pt x="930" y="103" on="0"/>
        <pt x="939" y="74" on="0"/>
        <pt x="960" y="54" on="0"/>
        <pt x="998" y="42" on="0"/>
        <pt x="1028" y="39" on="1"/>
        <pt x="1031" y="38" on="0"/>
        <pt x="1036" y="23" on="0"/>
      </contour>
    </TTGlyph>
    <TTGlyph name="M.sc" xMin="1" yMin="-18" xMax="757" yMax="481">
      <component glyphName="m.sc" x="0" y="0" flags="0x204"/>
    </TTGlyph>
    <TTGlyph name="N" xMin="37" yMin="-19" xMax="883" yMax="690">
      <contour>
        <pt x="883" y="668" on="1"/>
        <pt x="883" y="662" on="0"/>
        <pt x="878" y="647" on="0"/>
        <pt x="875" y="646" on="1"/>
        <pt x="818" y="639" on="0"/>
        <pt x="774" y="602" on="0"/>
        <pt x="773" y="562" on="1"/>
        <pt x="762" y="-9" on="1"/>
        <pt x="762" y="-12" on="0"/>
        <pt x="748" y="-19" on="0"/>
        <pt x="734" y="-19" on="1"/>
        <pt x="710" y="-19" on="0"/>
        <pt x="703" y="-11" on="1"/>
        <pt x="217" y="480" on="1"/>
        <pt x="211" y="123" on="1"/>
        <pt x="209" y="82" on="0"/>
        <pt x="256" y="45" on="0"/>
        <pt x="313" y="39" on="1"/>
        <pt x="317" y="38" on="0"/>
        <pt x="321" y="23" on="0"/>
        <pt x="321" y="17" on="1"/>
        <pt x="321" y="11" on="0"/>
        <pt x="316" y="-5" on="0"/>
        <pt x="313" y="-5" on="1"/>
        <pt x="275" y="-5" on="0"/>
        <pt x="211" y="0" on="0"/>
        <pt x="176" y="0" on="1"/>
        <pt x="139" y="0" on="0"/>
        <pt x="80" y="-5" on="0"/>
        <pt x="45" y="-5" on="1"/>
        <pt x="42" y="-5" on="0"/>
        <pt x="37" y="10" on="0"/>
        <pt x="37" y="17" on="1"/>
        <pt x="37" y="23" on="0"/>
        <pt x="42" y="38" on="0"/>
        <pt x="46" y="39" on="1"/>
        <pt x="74" y="42" on="0"/>
        <pt x="113" y="54" on="0"/>
        <pt x="136" y="74" on="0"/>
        <pt x="147" y="103" on="0"/>
        <pt x="147" y="123" on="1"/>
        <pt x="163" y="530" on="1"/>
        <pt x="164" y="582" on="0"/>
        <pt x="116" y="639" on="0"/>
        <pt x="54" y="646" on="1"/>
        <pt x="51" y="647" on="0"/>
        <pt x="47" y="663" on="0"/>
        <pt x="47" y="668" on="1"/>
        <pt x="47" y="674" on="0"/>
        <pt x="51" y="690" on="0"/>
        <pt x="55" y="690" on="1"/>
        <pt x="81" y="690" on="0"/>
        <pt x="144" y="685" on="0"/>
        <pt x="166" y="685" on="1"/>
        <pt x="180" y="685" on="0"/>
        <pt x="204" y="687" on="0"/>
        <pt x="230" y="688" on="0"/>
        <pt x="259" y="690" on="0"/>
        <pt x="279" y="690" on="1"/>
        <pt x="713" y="238" on="1"/>
        <pt x="713" y="562" on="1"/>
        <pt x="713" y="603" on="0"/>
        <pt x="664" y="639" on="0"/>
        <pt x="607" y="646" on="1"/>
        <pt x="603" y="647" on="0"/>
        <pt x="599" y="662" on="0"/>
        <pt x="599" y="668" on="1"/>
        <pt x="599" y="674" on="0"/>
        <pt x="604" y="690" on="0"/>
        <pt x="607" y="690" on="1"/>
        <pt x="646" y="690" on="0"/>
        <pt x="701" y="684" on="0"/>
        <pt x="736" y="684" on="1"/>
        <pt x="773" y="684" on="0"/>
        <pt x="840" y="690" on="0"/>
        <pt x="875" y="690" on="1"/>
        <pt x="879" y="690" on="0"/>
        <pt x="883" y="675" on="0"/>
      </contour>
    </TTGlyph>
    <TTGlyph name="N.sc" xMin="31" yMin="-18" xMax="656" yMax="481">
      <component glyphName="n.sc" x="0" y="0" flags="0x204"/>
    </TTGlyph>
    <TTGlyph name="Nacute" xMin="37" yMin="-19" xMax="883" yMax="971">
      <component glyphName="N" x="0" y="0" flags="0x204"/>
      <component glyphName="acute.cap" x="326" y="0" flags="0x4"/>
    </TTGlyph>
    <TTGlyph name="Nacute.sc" xMin="31" yMin="-18" xMax="656" yMax="759">
      <component glyphName="n.sc" x="0" y="0" flags="0x204"/>
      <component glyphName="acute" x="212" y="15" flags="0x4"/>
    </TTGlyph>
    <TTGlyph name="Ncaron" xMin="37" yMin="-19" xMax="883" yMax="961">
      <component glyphName="N" x="0" y="0" flags="0x204"/>
      <component glyphName="caron.cap" x="265" y="0" flags="0x4"/>
    </TTGlyph>
    <TTGlyph name="Ncaron.sc" xMin="31" yMin="-18" xMax="656" yMax="745">
      <component glyphName="n.sc" x="0" y="0" flags="0x204"/>
      <component glyphName="caron" x="154" y="15" flags="0x4"/>
    </TTGlyph>
    <TTGlyph name="Ncommaaccent" xMin="37" yMin="-332" xMax="883" yMax="690">
      <component glyphName="N" x="0" y="0" flags="0x204"/>
      <component glyphName="commaaccent" x="348" y="-4" flags="0x4"/>
    </TTGlyph>
    <TTGlyph name="Ncommaaccent.sc" xMin="31" yMin="-318" xMax="656" yMax="481">
      <component glyphName="n.sc" x="0" y="0" flags="0x204"/>
      <component glyphName="commaaccent" x="225" y="10" flags="0x4"/>
    </TTGlyph>
    <TTGlyph name="Ntilde" xMin="37" yMin="-19" xMax="883" yMax="970">
      <component glyphName="N" x="0" y="0" flags="0x204"/>
      <component glyphName="tilde.cap" x="278" y="0" flags="0x4"/>
    </TTGlyph>
    <TTGlyph name="Ntilde.sc" xMin="31" yMin="-18" xMax="656" yMax="754">
      <component glyphName="n.sc" x="0" y="0" flags="0x204"/>
      <component glyphName="tilde" x="162" y="15" flags="0x4"/>
    </TTGlyph>
    <TTGlyph name="O" xMin="42" yMin="-21" xMax="827" yMax="706">
      <contour>
        <pt x="827" y="339" on="1"/>
        <pt x="827" y="264" on="0"/>
        <pt x="775" y="132" on="0"/>
        <pt x="675" y="35" on="0"/>
        <pt x="529" y="-21" on="0"/>
        <pt x="435" y="-21" on="1"/>
        <pt x="341" y="-21" on="0"/>
        <pt x="195" y="35" on="0"/>
        <pt x="94" y="132" on="0"/>
        <pt x="42" y="264" on="0"/>
        <pt x="42" y="339" on="1"/>
        <pt x="42" y="414" on="0"/>
        <pt x="94" y="547" on="0"/>
        <pt x="195" y="648" on="0"/>
        <pt x="341" y="706" on="0"/>
        <pt x="435" y="706" on="1"/>
        <pt x="529" y="706" on="0"/>
        <pt x="675" y="648" on="0"/>
        <pt x="775" y="547" on="0"/>
        <pt x="827" y="414" on="0"/>
      </contour>
      <contour>
        <pt x="621" y="339" on="1"/>
        <pt x="621" y="408" on="0"/>
        <pt x="603" y="525" on="0"/>
        <pt x="560" y="610" on="0"/>
        <pt x="488" y="658" on="0"/>
        <pt x="435" y="658" on="1"/>
        <pt x="381" y="658" on="0"/>
        <pt x="310" y="610" on="0"/>
        <pt x="267" y="525" on="0"/>
        <pt x="249" y="408" on="0"/>
        <pt x="249" y="339" on="1"/>
        <pt x="249" y="269" on="0"/>
        <pt x="267" y="154" on="0"/>
        <pt x="310" y="72" on="0"/>
        <pt x="381" y="27" on="0"/>
        <pt x="435" y="27" on="1"/>
        <pt x="488" y="27" on="0"/>
        <pt x="560" y="72" on="0"/>
        <pt x="603" y="154" on="0"/>
        <pt x="621" y="269" on="0"/>
      </contour>
    </TTGlyph>
    <TTGlyph name="O.sc" xMin="30" yMin="-18" xMax="623" yMax="498">
      <component glyphName="o.sc" x="0" y="0" flags="0x204"/>
    </TTGlyph>
    <TTGlyph name="OE" xMin="42" yMin="-5" xMax="1113" yMax="690">
      <contour>
        <pt x="1112" y="229" on="1"/>
        <pt x="1109" y="205" on="0"/>
        <pt x="1102" y="143" on="0"/>
        <pt x="1095" y="79" on="0"/>
        <pt x="1090" y="18" on="0"/>
        <pt x="1089" y="-5" on="1"/>
        <pt x="1065" y="-4" on="0"/>
        <pt x="980" y="-3" on="0"/>
        <pt x="888" y="-1" on="0"/>
        <pt x="803" y="0" on="0"/>
        <pt x="778" y="0" on="1"/>
        <pt x="753" y="0" on="0"/>
        <pt x="663" y="-2" on="0"/>
        <pt x="564" y="-3" on="0"/>
        <pt x="475" y="-5" on="0"/>
        <pt x="451" y="-5" on="1"/>
        <pt x="345" y="-5" on="0"/>
        <pt x="191" y="50" on="0"/>
        <pt x="90" y="145" on="0"/>
        <pt x="42" y="270" on="0"/>
        <pt x="42" y="339" on="1"/>
        <pt x="42" y="412" on="0"/>
        <pt x="96" y="540" on="0"/>
        <pt x="199" y="635" on="0"/>
        <pt x="352" y="690" on="0"/>
        <pt x="451" y="690" on="1"/>
        <pt x="475" y="690" on="0"/>
        <pt x="561" y="688" on="0"/>
        <pt x="656" y="687" on="0"/>
        <pt x="743" y="685" on="0"/>
        <pt x="768" y="685" on="1"/>
        <pt x="793" y="685" on="0"/>
        <pt x="879" y="686" on="0"/>
        <pt x="972" y="687" on="0"/>
        <pt x="1057" y="689" on="0"/>
        <pt x="1081" y="690" on="1"/>
        <pt x="1080" y="669" on="0"/>
        <pt x="1081" y="611" on="0"/>
        <pt x="1084" y="550" on="0"/>
        <pt x="1087" y="490" on="0"/>
        <pt x="1088" y="467" on="1"/>
        <pt x="1088" y="462" on="0"/>
        <pt x="1072" y="454" on="0"/>
        <pt x="1060" y="454" on="1"/>
        <pt x="1053" y="454" on="0"/>
        <pt x="1043" y="458" on="0"/>
        <pt x="1043" y="460" on="1"/>
        <pt x="1039" y="492" on="0"/>
        <pt x="1013" y="555" on="0"/>
        <pt x="968" y="605" on="0"/>
        <pt x="905" y="636" on="0"/>
        <pt x="865" y="636" on="1"/>
        <pt x="805" y="636" on="1"/>
        <pt x="795" y="636" on="0"/>
        <pt x="775" y="631" on="0"/>
        <pt x="758" y="618" on="0"/>
        <pt x="747" y="595" on="0"/>
        <pt x="747" y="577" on="1"/>
        <pt x="747" y="370" on="1"/>
        <pt x="781" y="370" on="1"/>
        <pt x="833" y="370" on="0"/>
        <pt x="892" y="430" on="0"/>
        <pt x="897" y="479" on="1"/>
        <pt x="898" y="483" on="0"/>
        <pt x="914" y="487" on="0"/>
        <pt x="919" y="487" on="1"/>
        <pt x="925" y="487" on="0"/>
        <pt x="941" y="483" on="0"/>
        <pt x="941" y="479" on="1"/>
        <pt x="941" y="441" on="0"/>
        <pt x="936" y="379" on="0"/>
        <pt x="936" y="344" on="1"/>
        <pt x="936" y="308" on="0"/>
        <pt x="941" y="250" on="0"/>
        <pt x="941" y="212" on="1"/>
        <pt x="941" y="208" on="0"/>
        <pt x="925" y="204" on="0"/>
        <pt x="919" y="204" on="1"/>
        <pt x="914" y="204" on="0"/>
        <pt x="898" y="208" on="0"/>
        <pt x="897" y="212" on="1"/>
        <pt x="892" y="261" on="0"/>
        <pt x="833" y="321" on="0"/>
        <pt x="781" y="321" on="1"/>
        <pt x="747" y="321" on="1"/>
        <pt x="747" y="108" on="1"/>
        <pt x="747" y="90" on="0"/>
        <pt x="758" y="67" on="0"/>
        <pt x="775" y="54" on="0"/>
        <pt x="795" y="49" on="0"/>
        <pt x="805" y="49" on="1"/>
        <pt x="857" y="49" on="1"/>
        <pt x="897" y="49" on="0"/>
        <pt x="967" y="79" on="0"/>
        <pt x="1021" y="131" on="0"/>
        <pt x="1058" y="200" on="0"/>
        <pt x="1066" y="239" on="1"/>
        <pt x="1067" y="243" on="0"/>
        <pt x="1081" y="243" on="1"/>
        <pt x="1093" y="243" on="0"/>
        <pt x="1113" y="235" on="0"/>
      </contour>
      <contour>
        <pt x="549" y="581" on="1"/>
        <pt x="549" y="616" on="0"/>
        <pt x="507" y="641" on="0"/>
        <pt x="452" y="641" on="1"/>
        <pt x="401" y="641" on="0"/>
        <pt x="325" y="599" on="0"/>
        <pt x="274" y="520" on="0"/>
        <pt x="248" y="408" on="0"/>
        <pt x="248" y="339" on="1"/>
        <pt x="248" y="271" on="0"/>
        <pt x="274" y="162" on="0"/>
        <pt x="326" y="86" on="0"/>
        <pt x="402" y="44" on="0"/>
        <pt x="452" y="44" on="1"/>
        <pt x="476" y="44" on="0"/>
        <pt x="512" y="48" on="0"/>
        <pt x="537" y="60" on="0"/>
        <pt x="549" y="84" on="0"/>
        <pt x="549" y="104" on="1"/>
      </contour>
    </TTGlyph>
    <TTGlyph name="OE.sc" xMin="30" yMin="-5" xMax="836" yMax="481">
      <component glyphName="oe.sc" x="0" y="0" flags="0x204"/>
    </TTGlyph>
    <TTGlyph name="Oacute" xMin="42" yMin="-21" xMax="827" yMax="986">
      <component glyphName="O" x="0" y="0" flags="0x204"/>
      <component glyphName="acute.cap" x="296" y="15" flags="0x4"/>
    </TTGlyph>
    <TTGlyph name="Oacute.sc" xMin="30" yMin="-18" xMax="623" yMax="769">
      <component glyphName="o.sc" x="0" y="0" flags="0x204"/>
      <component glyphName="acute" x="189" y="25" flags="0x4"/>
    </TTGlyph>
    <TTGlyph name="Obreve" xMin="42" yMin="-21" xMax="827" yMax="971">
      <component glyphName="O" x="0" y="0" flags="0x204"/>
      <component glyphName="breve.cap" x="261" y="15" flags="0x4"/>
    </TTGlyph>
    <TTGlyph name="Obreve.sc" xMin="30" yMin="-18" xMax="623" yMax="738">
      <component glyphName="o.sc" x="0" y="0" flags="0x204"/>
      <component glyphName="breve" x="130" y="25" flags="0x4"/>
    </TTGlyph>
    <TTGlyph name="Ocircumflex" xMin="42" yMin="-21" xMax="827" yMax="977">
      <component glyphName="O" x="0" y="0" flags="0x204"/>
      <component glyphName="circumflex.cap" x="236" y="15" flags="0x4"/>
    </TTGlyph>
    <TTGlyph name="Ocircumflex.sc" xMin="30" yMin="-18" xMax="623" yMax="771">
      <component glyphName="o.sc" x="0" y="0" flags="0x204"/>
      <component glyphName="circumflex" x="131" y="25" flags="0x4"/>
    </TTGlyph>
    <TTGlyph name="Odieresis" xMin="42" yMin="-21" xMax="827" yMax="959">
      <component glyphName="O" x="0" y="0" flags="0x204"/>
      <component glyphName="dieresis.cap" x="231" y="15" flags="0x4"/>
    </TTGlyph>
    <TTGlyph name="Odieresis.sc" xMin="30" yMin="-18" xMax="623" yMax="746">
      <component glyphName="o.sc" x="0" y="0" flags="0x204"/>
      <component glyphName="dieresis" x="124" y="25" flags="0x4"/>
    </TTGlyph>
    <TTGlyph name="Ograve" xMin="42" yMin="-21" xMax="827" yMax="986">
      <component glyphName="O" x="0" y="0" flags="0x204"/>
      <component glyphName="grave.cap" x="185" y="15" flags="0x4"/>
    </TTGlyph>
    <TTGlyph name="Ograve.sc" xMin="30" yMin="-18" xMax="623" yMax="769">
      <component glyphName="o.sc" x="0" y="0" flags="0x204"/>
      <component glyphName="grave" x="82" y="25" flags="0x4"/>
    </TTGlyph>
    <TTGlyph name="Ohungarumlaut" xMin="42" yMin="-21" xMax="827" yMax="986">
      <component glyphName="O" x="0" y="0" flags="0x204"/>
      <component glyphName="hungarumlaut.cap" x="299" y="15" flags="0x4"/>
    </TTGlyph>
    <TTGlyph name="Ohungarumlaut.sc" xMin="30" yMin="-18" xMax="633" yMax="774">
      <component glyphName="o.sc" x="0" y="0" flags="0x204"/>
      <component glyphName="hungarumlaut" x="176" y="25" flags="0x4"/>
    </TTGlyph>
    <TTGlyph name="Omacron" xMin="42" yMin="-21" xMax="827" yMax="896">
      <component glyphName="O" x="0" y="0" flags="0x204"/>
      <component glyphName="macron.cap" x="221" y="15" flags="0x4"/>
    </TTGlyph>
    <TTGlyph name="Omacron.sc" xMin="30" yMin="-18" xMax="623" yMax="676">
      <component glyphName="o.sc" x="0" y="0" flags="0x204"/>
      <component glyphName="macron" x="130" y="25" flags="0x4"/>
    </TTGlyph>
    <TTGlyph name="Omegagreek" xMin="7" yMin="-6" xMax="870" yMax="706">
      <contour>
        <pt x="870" y="209" on="1"/>
        <pt x="870" y="207" on="0"/>
        <pt x="869" y="206" on="1"/>
        <pt x="863" y="190" on="0"/>
        <pt x="847" y="136" on="0"/>
        <pt x="830" y="76" on="0"/>
        <pt x="815" y="16" on="0"/>
        <pt x="811" y="-6" on="1"/>
        <pt x="803" y="-4" on="0"/>
        <pt x="767" y="-2" on="0"/>
        <pt x="716" y="0" on="0"/>
        <pt x="654" y="0" on="0"/>
        <pt x="620" y="0" on="1"/>
        <pt x="589" y="0" on="0"/>
        <pt x="545" y="0" on="0"/>
        <pt x="513" y="-2" on="0"/>
        <pt x="492" y="-4" on="0"/>
        <pt x="484" y="-5" on="1"/>
        <pt x="481" y="-6" on="0"/>
        <pt x="474" y="19" on="0"/>
        <pt x="468" y="52" on="0"/>
        <pt x="464" y="84" on="0"/>
        <pt x="464" y="90" on="1"/>
        <pt x="464" y="101" on="0"/>
        <pt x="468" y="102" on="1"/>
        <pt x="506" y="121" on="0"/>
        <pt x="556" y="190" on="0"/>
        <pt x="586" y="271" on="0"/>
        <pt x="598" y="356" on="0"/>
        <pt x="598" y="392" on="1"/>
        <pt x="598" y="452" on="0"/>
        <pt x="580" y="551" on="0"/>
        <pt x="541" y="620" on="0"/>
        <pt x="480" y="658" on="0"/>
        <pt x="436" y="658" on="1"/>
        <pt x="392" y="658" on="0"/>
        <pt x="331" y="620" on="0"/>
        <pt x="292" y="551" on="0"/>
        <pt x="274" y="452" on="0"/>
        <pt x="274" y="392" on="1"/>
        <pt x="274" y="356" on="0"/>
        <pt x="286" y="271" on="0"/>
        <pt x="316" y="190" on="0"/>
        <pt x="367" y="121" on="0"/>
        <pt x="405" y="102" on="1"/>
        <pt x="408" y="100" on="0"/>
        <pt x="408" y="90" on="1"/>
        <pt x="408" y="84" on="0"/>
        <pt x="404" y="52" on="0"/>
        <pt x="398" y="19" on="0"/>
        <pt x="391" y="-6" on="0"/>
        <pt x="388" y="-5" on="1"/>
        <pt x="372" y="-2" on="0"/>
        <pt x="312" y="0" on="0"/>
        <pt x="250" y="0" on="1"/>
        <pt x="216" y="0" on="0"/>
        <pt x="150" y="0" on="0"/>
        <pt x="95" y="-2" on="0"/>
        <pt x="55" y="-4" on="0"/>
        <pt x="47" y="-6" on="1"/>
        <pt x="46" y="10" on="0"/>
        <pt x="36" y="71" on="0"/>
        <pt x="24" y="135" on="0"/>
        <pt x="13" y="189" on="0"/>
        <pt x="10" y="197" on="1"/>
        <pt x="7" y="203" on="0"/>
        <pt x="7" y="208" on="1"/>
        <pt x="7" y="211" on="0"/>
        <pt x="16" y="219" on="0"/>
        <pt x="28" y="225" on="0"/>
        <pt x="41" y="229" on="0"/>
        <pt x="45" y="229" on="1"/>
        <pt x="52" y="229" on="0"/>
        <pt x="54" y="224" on="1"/>
        <pt x="67" y="182" on="0"/>
        <pt x="112" y="128" on="0"/>
        <pt x="150" y="126" on="1"/>
        <pt x="291" y="123" on="1"/>
        <pt x="243" y="135" on="0"/>
        <pt x="162" y="189" on="0"/>
        <pt x="103" y="263" on="0"/>
        <pt x="70" y="354" on="0"/>
        <pt x="70" y="404" on="1"/>
        <pt x="70" y="466" on="0"/>
        <pt x="122" y="576" on="0"/>
        <pt x="217" y="658" on="0"/>
        <pt x="352" y="706" on="0"/>
        <pt x="436" y="706" on="1"/>
        <pt x="520" y="706" on="0"/>
        <pt x="655" y="658" on="0"/>
        <pt x="751" y="576" on="0"/>
        <pt x="802" y="466" on="0"/>
        <pt x="802" y="404" on="1"/>
        <pt x="802" y="354" on="0"/>
        <pt x="769" y="263" on="0"/>
        <pt x="710" y="189" on="0"/>
        <pt x="629" y="135" on="0"/>
        <pt x="581" y="123" on="1"/>
        <pt x="717" y="126" on="1"/>
        <pt x="758" y="127" on="0"/>
        <pt x="809" y="186" on="0"/>
        <pt x="825" y="224" on="1"/>
        <pt x="827" y="229" on="0"/>
        <pt x="834" y="229" on="1"/>
        <pt x="837" y="229" on="0"/>
        <pt x="849" y="224" on="0"/>
        <pt x="861" y="218" on="0"/>
        <pt x="870" y="211" on="0"/>
      </contour>
    </TTGlyph>
    <TTGlyph name="Oslash" xMin="42" yMin="-46" xMax="827" yMax="735">
      <contour>
        <pt x="827" y="339" on="1"/>
        <pt x="827" y="264" on="0"/>
        <pt x="775" y="132" on="0"/>
        <pt x="675" y="35" on="0"/>
        <pt x="529" y="-21" on="0"/>
        <pt x="435" y="-21" on="1"/>
        <pt x="375" y="-21" on="0"/>
        <pt x="272" y="2" on="0"/>
        <pt x="229" y="24" on="1"/>
        <pt x="220" y="11" on="0"/>
        <pt x="203" y="-12" on="0"/>
        <pt x="197" y="-21" on="1"/>
        <pt x="189" y="-32" on="0"/>
        <pt x="183" y="-41" on="1"/>
        <pt x="180" y="-46" on="0"/>
        <pt x="168" y="-43" on="0"/>
        <pt x="162" y="-38" on="1"/>
        <pt x="156" y="-34" on="0"/>
        <pt x="149" y="-25" on="0"/>
        <pt x="152" y="-20" on="1"/>
        <pt x="196" y="42" on="1"/>
        <pt x="121" y="91" on="0"/>
        <pt x="42" y="245" on="0"/>
        <pt x="42" y="339" on="1"/>
        <pt x="42" y="414" on="0"/>
        <pt x="94" y="547" on="0"/>
        <pt x="195" y="648" on="0"/>
        <pt x="341" y="706" on="0"/>
        <pt x="435" y="706" on="1"/>
        <pt x="495" y="706" on="0"/>
        <pt x="597" y="682" on="0"/>
        <pt x="640" y="659" on="1"/>
        <pt x="688" y="726" on="1"/>
        <pt x="694" y="735" on="0"/>
        <pt x="709" y="723" on="1"/>
        <pt x="723" y="713" on="0"/>
        <pt x="718" y="704" on="1"/>
        <pt x="711" y="696" on="0"/>
        <pt x="704" y="685" on="1"/>
        <pt x="698" y="676" on="0"/>
        <pt x="681" y="653" on="0"/>
        <pt x="672" y="640" on="1"/>
        <pt x="748" y="589" on="0"/>
        <pt x="827" y="432" on="0"/>
      </contour>
      <contour>
        <pt x="578" y="573" on="1"/>
        <pt x="556" y="614" on="0"/>
        <pt x="486" y="658" on="0"/>
        <pt x="435" y="658" on="1"/>
        <pt x="381" y="658" on="0"/>
        <pt x="310" y="610" on="0"/>
        <pt x="267" y="525" on="0"/>
        <pt x="249" y="408" on="0"/>
        <pt x="249" y="339" on="1"/>
        <pt x="249" y="283" on="0"/>
        <pt x="260" y="187" on="0"/>
        <pt x="273" y="149" on="1"/>
      </contour>
      <contour>
        <pt x="621" y="339" on="1"/>
        <pt x="621" y="396" on="0"/>
        <pt x="610" y="494" on="0"/>
        <pt x="596" y="533" on="1"/>
        <pt x="596" y="533" on="0"/>
        <pt x="570" y="497" on="0"/>
        <pt x="527" y="437" on="0"/>
        <pt x="472" y="361" on="0"/>
        <pt x="415" y="282" on="0"/>
        <pt x="360" y="205" on="0"/>
        <pt x="317" y="146" on="0"/>
        <pt x="290" y="109" on="0"/>
        <pt x="290" y="109" on="1"/>
        <pt x="312" y="70" on="0"/>
        <pt x="382" y="27" on="0"/>
        <pt x="435" y="27" on="1"/>
        <pt x="488" y="27" on="0"/>
        <pt x="560" y="72" on="0"/>
        <pt x="603" y="154" on="0"/>
        <pt x="621" y="269" on="0"/>
      </contour>
    </TTGlyph>
    <TTGlyph name="Oslash.sc" xMin="30" yMin="-46" xMax="623" yMax="523">
      <component glyphName="oslash.sc" x="0" y="0" flags="0x204"/>
    </TTGlyph>
    <TTGlyph name="Oslashacute" xMin="42" yMin="-46" xMax="827" yMax="986">
      <component glyphName="Oslash" x="0" y="0" flags="0x204"/>
      <component glyphName="acute.cap" x="297" y="15" flags="0x4"/>
    </TTGlyph>
    <TTGlyph name="Oslashacute.sc" xMin="30" yMin="-46" xMax="623" yMax="769">
      <component glyphName="acute" x="185" y="25" flags="0x4"/>
      <component glyphName="oslash.sc" x="0" y="0" flags="0x4"/>
    </TTGlyph>
    <TTGlyph name="Otilde" xMin="42" yMin="-21" xMax="827" yMax="985">
      <component glyphName="O" x="0" y="0" flags="0x204"/>
      <component glyphName="tilde.cap" x="248" y="15" flags="0x4"/>
    </TTGlyph>
    <TTGlyph name="Otilde.sc" xMin="30" yMin="-18" xMax="623" yMax="764">
      <component glyphName="o.sc" x="0" y="0" flags="0x204"/>
      <component glyphName="tilde" x="139" y="25" flags="0x4"/>
    </TTGlyph>
    <TTGlyph name="P" xMin="44" yMin="-5" xMax="715" yMax="690">
      <contour>
        <pt x="715" y="473" on="1"/>
        <pt x="715" y="425" on="0"/>
        <pt x="674" y="347" on="0"/>
        <pt x="596" y="292" on="0"/>
        <pt x="485" y="263" on="0"/>
        <pt x="415" y="263" on="1"/>
        <pt x="393" y="263" on="0"/>
        <pt x="363" y="267" on="0"/>
        <pt x="345" y="271" on="1"/>
        <pt x="345" y="123" on="1"/>
        <pt x="345" y="103" on="0"/>
        <pt x="354" y="74" on="0"/>
        <pt x="375" y="54" on="0"/>
        <pt x="412" y="42" on="0"/>
        <pt x="441" y="39" on="1"/>
        <pt x="444" y="38" on="0"/>
        <pt x="449" y="22" on="0"/>
        <pt x="449" y="17" on="1"/>
        <pt x="449" y="11" on="0"/>
        <pt x="444" y="-5" on="0"/>
        <pt x="441" y="-5" on="1"/>
        <pt x="391" y="-5" on="0"/>
        <pt x="293" y="0" on="0"/>
        <pt x="246" y="0" on="1"/>
        <pt x="199" y="0" on="0"/>
        <pt x="102" y="-5" on="0"/>
        <pt x="52" y="-5" on="1"/>
        <pt x="48" y="-5" on="0"/>
        <pt x="44" y="11" on="0"/>
        <pt x="44" y="17" on="1"/>
        <pt x="44" y="22" on="0"/>
        <pt x="48" y="38" on="0"/>
        <pt x="52" y="39" on="1"/>
        <pt x="80" y="42" on="0"/>
        <pt x="117" y="54" on="0"/>
        <pt x="138" y="74" on="0"/>
        <pt x="147" y="103" on="0"/>
        <pt x="147" y="123" on="1"/>
        <pt x="147" y="578" on="1"/>
        <pt x="147" y="611" on="0"/>
        <pt x="108" y="640" on="0"/>
        <pt x="52" y="646" on="1"/>
        <pt x="48" y="647" on="0"/>
        <pt x="44" y="663" on="0"/>
        <pt x="44" y="668" on="1"/>
        <pt x="44" y="674" on="0"/>
        <pt x="48" y="690" on="0"/>
        <pt x="52" y="690" on="1"/>
        <pt x="102" y="690" on="0"/>
        <pt x="207" y="685" on="0"/>
        <pt x="254" y="685" on="1"/>
        <pt x="277" y="685" on="0"/>
        <pt x="315" y="687" on="0"/>
        <pt x="353" y="688" on="0"/>
        <pt x="392" y="690" on="0"/>
        <pt x="417" y="690" on="1"/>
        <pt x="497" y="690" on="0"/>
        <pt x="610" y="660" on="0"/>
        <pt x="682" y="604" on="0"/>
        <pt x="715" y="523" on="0"/>
      </contour>
      <contour>
        <pt x="509" y="487" on="1"/>
        <pt x="509" y="532" on="0"/>
        <pt x="494" y="592" on="0"/>
        <pt x="467" y="627" on="0"/>
        <pt x="428" y="641" on="0"/>
        <pt x="405" y="641" on="1"/>
        <pt x="373" y="641" on="0"/>
        <pt x="345" y="610" on="0"/>
        <pt x="345" y="578" on="1"/>
        <pt x="345" y="348" on="1"/>
        <pt x="345" y="336" on="0"/>
        <pt x="357" y="322" on="0"/>
        <pt x="373" y="315" on="0"/>
        <pt x="389" y="312" on="0"/>
        <pt x="394" y="312" on="1"/>
        <pt x="454" y="312" on="0"/>
        <pt x="509" y="399" on="0"/>
      </contour>
    </TTGlyph>
    <TTGlyph name="P.sc" xMin="33" yMin="-5" xMax="558" yMax="481">
      <component glyphName="p.sc" x="0" y="0" flags="0x204"/>
    </TTGlyph>
    <TTGlyph name="Pi" xMin="43" yMin="-5" xMax="884" yMax="690">
      <contour>
        <pt x="884" y="17" on="1"/>
        <pt x="884" y="11" on="0"/>
        <pt x="880" y="-5" on="0"/>
        <pt x="876" y="-5" on="1"/>
        <pt x="826" y="-5" on="0"/>
        <pt x="728" y="0" on="0"/>
        <pt x="682" y="0" on="1"/>
        <pt x="659" y="0" on="0"/>
        <pt x="618" y="-2" on="0"/>
        <pt x="578" y="-3" on="0"/>
        <pt x="536" y="-5" on="0"/>
        <pt x="511" y="-5" on="1"/>
        <pt x="508" y="-5" on="0"/>
        <pt x="503" y="11" on="0"/>
        <pt x="503" y="17" on="1"/>
        <pt x="503" y="22" on="0"/>
        <pt x="508" y="38" on="0"/>
        <pt x="511" y="39" on="1"/>
        <pt x="535" y="42" on="0"/>
        <pt x="564" y="52" on="0"/>
        <pt x="579" y="72" on="0"/>
        <pt x="583" y="101" on="0"/>
        <pt x="583" y="123" on="1"/>
        <pt x="583" y="569" on="1"/>
        <pt x="583" y="587" on="0"/>
        <pt x="572" y="610" on="0"/>
        <pt x="555" y="623" on="0"/>
        <pt x="534" y="628" on="0"/>
        <pt x="524" y="628" on="1"/>
        <pt x="403" y="628" on="1"/>
        <pt x="393" y="628" on="0"/>
        <pt x="372" y="623" on="0"/>
        <pt x="355" y="610" on="0"/>
        <pt x="344" y="587" on="0"/>
        <pt x="344" y="569" on="1"/>
        <pt x="344" y="123" on="1"/>
        <pt x="344" y="101" on="0"/>
        <pt x="348" y="72" on="0"/>
        <pt x="363" y="52" on="0"/>
        <pt x="392" y="42" on="0"/>
        <pt x="416" y="39" on="1"/>
        <pt x="419" y="38" on="0"/>
        <pt x="424" y="22" on="0"/>
        <pt x="424" y="17" on="1"/>
        <pt x="424" y="11" on="0"/>
        <pt x="419" y="-5" on="0"/>
        <pt x="416" y="-5" on="1"/>
        <pt x="391" y="-5" on="0"/>
        <pt x="349" y="-3" on="0"/>
        <pt x="309" y="-2" on="0"/>
        <pt x="269" y="0" on="0"/>
        <pt x="246" y="0" on="1"/>
        <pt x="199" y="0" on="0"/>
        <pt x="101" y="-5" on="0"/>
        <pt x="51" y="-5" on="1"/>
        <pt x="48" y="-5" on="0"/>
        <pt x="43" y="11" on="0"/>
        <pt x="43" y="17" on="1"/>
        <pt x="43" y="22" on="0"/>
        <pt x="48" y="38" on="0"/>
        <pt x="51" y="39" on="1"/>
        <pt x="79" y="42" on="0"/>
        <pt x="117" y="54" on="0"/>
        <pt x="138" y="74" on="0"/>
        <pt x="147" y="103" on="0"/>
        <pt x="147" y="123" on="1"/>
        <pt x="147" y="562" on="1"/>
        <pt x="147" y="602" on="0"/>
        <pt x="108" y="640" on="0"/>
        <pt x="51" y="646" on="1"/>
        <pt x="48" y="647" on="0"/>
        <pt x="43" y="663" on="0"/>
        <pt x="43" y="668" on="1"/>
        <pt x="43" y="674" on="0"/>
        <pt x="48" y="690" on="0"/>
        <pt x="51" y="690" on="1"/>
        <pt x="62" y="690" on="0"/>
        <pt x="119" y="689" on="0"/>
        <pt x="196" y="688" on="0"/>
        <pt x="286" y="687" on="0"/>
        <pt x="370" y="686" on="0"/>
        <pt x="442" y="685" on="0"/>
        <pt x="464" y="685" on="1"/>
        <pt x="485" y="685" on="0"/>
        <pt x="557" y="686" on="0"/>
        <pt x="642" y="687" on="0"/>
        <pt x="731" y="688" on="0"/>
        <pt x="808" y="689" on="0"/>
        <pt x="865" y="690" on="0"/>
        <pt x="876" y="690" on="1"/>
        <pt x="880" y="690" on="0"/>
        <pt x="884" y="674" on="0"/>
        <pt x="884" y="668" on="1"/>
        <pt x="884" y="663" on="0"/>
        <pt x="880" y="647" on="0"/>
        <pt x="876" y="646" on="1"/>
        <pt x="820" y="640" on="0"/>
        <pt x="781" y="602" on="0"/>
        <pt x="781" y="562" on="1"/>
        <pt x="781" y="123" on="1"/>
        <pt x="781" y="103" on="0"/>
        <pt x="790" y="74" on="0"/>
        <pt x="811" y="54" on="0"/>
        <pt x="848" y="42" on="0"/>
        <pt x="876" y="39" on="1"/>
        <pt x="880" y="38" on="0"/>
        <pt x="884" y="22" on="0"/>
      </contour>
    </TTGlyph>
    <TTGlyph name="Q" xMin="42" yMin="-209" xMax="827" yMax="706">
      <contour>
        <pt x="827" y="339" on="1"/>
        <pt x="827" y="276" on="0"/>
        <pt x="791" y="164" on="0"/>
        <pt x="721" y="73" on="0"/>
        <pt x="618" y="8" on="0"/>
        <pt x="551" y="-8" on="1"/>
        <pt x="565" y="-50" on="0"/>
        <pt x="600" y="-106" on="0"/>
        <pt x="645" y="-139" on="0"/>
        <pt x="701" y="-153" on="0"/>
        <pt x="736" y="-153" on="1"/>
        <pt x="750" y="-153" on="0"/>
        <pt x="778" y="-151" on="0"/>
        <pt x="792" y="-149" on="1"/>
        <pt x="796" y="-148" on="0"/>
        <pt x="800" y="-165" on="0"/>
        <pt x="800" y="-171" on="1"/>
        <pt x="800" y="-176" on="0"/>
        <pt x="797" y="-191" on="0"/>
        <pt x="792" y="-193" on="1"/>
        <pt x="769" y="-199" on="0"/>
        <pt x="699" y="-209" on="0"/>
        <pt x="661" y="-209" on="1"/>
        <pt x="608" y="-209" on="0"/>
        <pt x="508" y="-186" on="0"/>
        <pt x="420" y="-137" on="0"/>
        <pt x="348" y="-62" on="0"/>
        <pt x="325" y="-10" on="1"/>
        <pt x="257" y="5" on="0"/>
        <pt x="151" y="70" on="0"/>
        <pt x="79" y="161" on="0"/>
        <pt x="42" y="275" on="0"/>
        <pt x="42" y="339" on="1"/>
        <pt x="42" y="414" on="0"/>
        <pt x="94" y="547" on="0"/>
        <pt x="195" y="648" on="0"/>
        <pt x="341" y="706" on="0"/>
        <pt x="435" y="706" on="1"/>
        <pt x="529" y="706" on="0"/>
        <pt x="675" y="648" on="0"/>
        <pt x="775" y="547" on="0"/>
        <pt x="827" y="414" on="0"/>
      </contour>
      <contour>
        <pt x="621" y="339" on="1"/>
        <pt x="621" y="408" on="0"/>
        <pt x="603" y="525" on="0"/>
        <pt x="560" y="610" on="0"/>
        <pt x="488" y="658" on="0"/>
        <pt x="435" y="658" on="1"/>
        <pt x="381" y="658" on="0"/>
        <pt x="310" y="610" on="0"/>
        <pt x="267" y="525" on="0"/>
        <pt x="249" y="408" on="0"/>
        <pt x="249" y="339" on="1"/>
        <pt x="249" y="270" on="0"/>
        <pt x="267" y="155" on="0"/>
        <pt x="310" y="72" on="0"/>
        <pt x="381" y="27" on="0"/>
        <pt x="435" y="27" on="1"/>
        <pt x="488" y="27" on="0"/>
        <pt x="560" y="72" on="0"/>
        <pt x="603" y="155" on="0"/>
        <pt x="621" y="270" on="0"/>
      </contour>
    </TTGlyph>
    <TTGlyph name="Q.alt" xMin="42" yMin="-286" xMax="1315" yMax="706">
      <contour>
        <pt x="1312" y="-218" on="1"/>
        <pt x="1276" y="-251" on="0"/>
        <pt x="1152" y="-286" on="0"/>
        <pt x="1046" y="-286" on="1"/>
        <pt x="968" y="-286" on="0"/>
        <pt x="786" y="-245" on="0"/>
        <pt x="594" y="-171" on="0"/>
        <pt x="401" y="-69" on="0"/>
        <pt x="313" y="-7" on="1"/>
        <pt x="248" y="9" on="0"/>
        <pt x="147" y="75" on="0"/>
        <pt x="78" y="165" on="0"/>
        <pt x="42" y="277" on="0"/>
        <pt x="42" y="339" on="1"/>
        <pt x="42" y="414" on="0"/>
        <pt x="94" y="547" on="0"/>
        <pt x="194" y="648" on="0"/>
        <pt x="340" y="706" on="0"/>
        <pt x="434" y="706" on="1"/>
        <pt x="528" y="706" on="0"/>
        <pt x="674" y="648" on="0"/>
        <pt x="775" y="547" on="0"/>
        <pt x="827" y="414" on="0"/>
        <pt x="827" y="339" on="1"/>
        <pt x="827" y="280" on="0"/>
        <pt x="795" y="174" on="0"/>
        <pt x="733" y="85" on="0"/>
        <pt x="641" y="19" on="0"/>
        <pt x="582" y="1" on="1"/>
        <pt x="637" y="-36" on="0"/>
        <pt x="771" y="-114" on="0"/>
        <pt x="910" y="-178" on="0"/>
        <pt x="1045" y="-219" on="0"/>
        <pt x="1101" y="-219" on="1"/>
        <pt x="1170" y="-219" on="0"/>
        <pt x="1261" y="-198" on="0"/>
        <pt x="1290" y="-180" on="1"/>
        <pt x="1292" y="-178" on="0"/>
        <pt x="1305" y="-190" on="0"/>
        <pt x="1308" y="-195" on="1"/>
        <pt x="1311" y="-200" on="0"/>
        <pt x="1315" y="-215" on="0"/>
      </contour>
      <contour>
        <pt x="620" y="339" on="1"/>
        <pt x="620" y="408" on="0"/>
        <pt x="602" y="525" on="0"/>
        <pt x="559" y="610" on="0"/>
        <pt x="488" y="658" on="0"/>
        <pt x="434" y="658" on="1"/>
        <pt x="380" y="658" on="0"/>
        <pt x="309" y="610" on="0"/>
        <pt x="266" y="525" on="0"/>
        <pt x="248" y="408" on="0"/>
        <pt x="248" y="339" on="1"/>
        <pt x="248" y="269" on="0"/>
        <pt x="266" y="154" on="0"/>
        <pt x="309" y="72" on="0"/>
        <pt x="380" y="27" on="0"/>
        <pt x="434" y="27" on="1"/>
        <pt x="488" y="27" on="0"/>
        <pt x="559" y="72" on="0"/>
        <pt x="602" y="154" on="0"/>
        <pt x="620" y="269" on="0"/>
      </contour>
    </TTGlyph>
    <TTGlyph name="Q.sc" xMin="30" yMin="-159" xMax="623" yMax="495">
      <component glyphName="q.sc" x="0" y="0" flags="0x204"/>
    </TTGlyph>
    <TTGlyph name="R" xMin="40" yMin="-5" xMax="835" yMax="690">
      <contour>
        <pt x="834" y="17" on="1"/>
        <pt x="833" y="11" on="0"/>
        <pt x="826" y="-5" on="0"/>
        <pt x="823" y="-5" on="1"/>
        <pt x="810" y="-5" on="0"/>
        <pt x="770" y="-3" on="0"/>
        <pt x="729" y="-2" on="0"/>
        <pt x="694" y="0" on="0"/>
        <pt x="686" y="0" on="1"/>
        <pt x="675" y="0" on="0"/>
        <pt x="641" y="-2" on="0"/>
        <pt x="605" y="-3" on="0"/>
        <pt x="571" y="-5" on="0"/>
        <pt x="560" y="-5" on="1"/>
        <pt x="434" y="251" on="1"/>
        <pt x="420" y="281" on="0"/>
        <pt x="376" y="304" on="0"/>
        <pt x="341" y="304" on="1"/>
        <pt x="341" y="123" on="1"/>
        <pt x="341" y="103" on="0"/>
        <pt x="347" y="74" on="0"/>
        <pt x="366" y="54" on="0"/>
        <pt x="400" y="42" on="0"/>
        <pt x="429" y="39" on="1"/>
        <pt x="432" y="38" on="0"/>
        <pt x="437" y="22" on="0"/>
        <pt x="437" y="17" on="1"/>
        <pt x="437" y="11" on="0"/>
        <pt x="432" y="-5" on="0"/>
        <pt x="429" y="-5" on="1"/>
        <pt x="379" y="-5" on="0"/>
        <pt x="289" y="0" on="0"/>
        <pt x="242" y="0" on="1"/>
        <pt x="195" y="0" on="0"/>
        <pt x="98" y="-5" on="0"/>
        <pt x="48" y="-5" on="1"/>
        <pt x="44" y="-5" on="0"/>
        <pt x="40" y="11" on="0"/>
        <pt x="40" y="17" on="1"/>
        <pt x="40" y="22" on="0"/>
        <pt x="44" y="38" on="0"/>
        <pt x="48" y="39" on="1"/>
        <pt x="76" y="42" on="0"/>
        <pt x="113" y="54" on="0"/>
        <pt x="134" y="74" on="0"/>
        <pt x="143" y="103" on="0"/>
        <pt x="143" y="123" on="1"/>
        <pt x="143" y="562" on="1"/>
        <pt x="143" y="602" on="0"/>
        <pt x="104" y="640" on="0"/>
        <pt x="48" y="646" on="1"/>
        <pt x="44" y="647" on="0"/>
        <pt x="40" y="663" on="0"/>
        <pt x="40" y="668" on="1"/>
        <pt x="40" y="674" on="0"/>
        <pt x="44" y="690" on="0"/>
        <pt x="48" y="690" on="1"/>
        <pt x="98" y="690" on="0"/>
        <pt x="199" y="685" on="0"/>
        <pt x="246" y="685" on="1"/>
        <pt x="269" y="685" on="0"/>
        <pt x="309" y="687" on="0"/>
        <pt x="347" y="688" on="0"/>
        <pt x="388" y="690" on="0"/>
        <pt x="413" y="690" on="1"/>
        <pt x="494" y="690" on="0"/>
        <pt x="610" y="661" on="0"/>
        <pt x="684" y="612" on="0"/>
        <pt x="719" y="547" on="0"/>
        <pt x="719" y="511" on="1"/>
        <pt x="719" y="442" on="0"/>
        <pt x="655" y="361" on="0"/>
        <pt x="581" y="338" on="1"/>
        <pt x="718" y="109" on="1"/>
        <pt x="729" y="91" on="0"/>
        <pt x="750" y="66" on="0"/>
        <pt x="775" y="50" on="0"/>
        <pt x="806" y="42" on="0"/>
        <pt x="829" y="39" on="1"/>
        <pt x="832" y="38" on="0"/>
        <pt x="835" y="22" on="0"/>
      </contour>
      <contour>
        <pt x="513" y="493" on="1"/>
        <pt x="513" y="570" on="0"/>
        <pt x="456" y="641" on="0"/>
        <pt x="399" y="641" on="1"/>
        <pt x="364" y="641" on="0"/>
        <pt x="341" y="613" on="0"/>
        <pt x="341" y="578" on="1"/>
        <pt x="341" y="352" on="1"/>
        <pt x="349" y="350" on="0"/>
        <pt x="370" y="349" on="0"/>
        <pt x="380" y="349" on="1"/>
        <pt x="449" y="348" on="0"/>
        <pt x="513" y="415" on="0"/>
      </contour>
    </TTGlyph>
    <TTGlyph name="R.sc" xMin="33" yMin="-5" xMax="639" yMax="481">
      <component glyphName="r.sc" x="0" y="0" flags="0x204"/>
    </TTGlyph>
    <TTGlyph name="R_p" xMin="57" yMin="-248" xMax="1258" yMax="624">
      <contour>
        <pt x="1258" y="207" on="1"/>
        <pt x="1258" y="160" on="0"/>
        <pt x="1228" y="78" on="0"/>
        <pt x="1169" y="15" on="0"/>
        <pt x="1083" y="-21" on="0"/>
        <pt x="1027" y="-21" on="1"/>
        <pt x="996" y="-21" on="0"/>
        <pt x="953" y="-11" on="0"/>
        <pt x="935" y="-1" on="1"/>
        <pt x="935" y="-130" on="1"/>
        <pt x="935" y="-153" on="0"/>
        <pt x="942" y="-181" on="0"/>
        <pt x="958" y="-198" on="0"/>
        <pt x="985" y="-206" on="0"/>
        <pt x="1005" y="-209" on="1"/>
        <pt x="1008" y="-209" on="0"/>
        <pt x="1012" y="-223" on="0"/>
        <pt x="1012" y="-229" on="1"/>
        <pt x="1012" y="-234" on="0"/>
        <pt x="1008" y="-248" on="0"/>
        <pt x="1005" y="-248" on="1"/>
        <pt x="990" y="-248" on="0"/>
        <pt x="952" y="-246" on="0"/>
        <pt x="911" y="-245" on="0"/>
        <pt x="870" y="-243" on="0"/>
        <pt x="854" y="-243" on="1"/>
        <pt x="837" y="-243" on="0"/>
        <pt x="798" y="-245" on="0"/>
        <pt x="759" y="-246" on="0"/>
        <pt x="722" y="-248" on="0"/>
        <pt x="707" y="-248" on="1"/>
        <pt x="704" y="-248" on="0"/>
        <pt x="700" y="-234" on="0"/>
        <pt x="700" y="-229" on="1"/>
        <pt x="700" y="-223" on="0"/>
        <pt x="704" y="-209" on="0"/>
        <pt x="707" y="-209" on="1"/>
        <pt x="727" y="-206" on="0"/>
        <pt x="752" y="-198" on="0"/>
        <pt x="765" y="-181" on="0"/>
        <pt x="770" y="-153" on="0"/>
        <pt x="770" y="-130" on="1"/>
        <pt x="770" y="-6" on="1"/>
        <pt x="756" y="-6" on="0"/>
        <pt x="723" y="-4" on="0"/>
        <pt x="692" y="-2" on="0"/>
        <pt x="664" y="0" on="0"/>
        <pt x="655" y="0" on="1"/>
        <pt x="629" y="0" on="0"/>
        <pt x="559" y="-5" on="0"/>
        <pt x="534" y="-5" on="1"/>
        <pt x="424" y="224" on="1"/>
        <pt x="410" y="253" on="0"/>
        <pt x="371" y="273" on="0"/>
        <pt x="339" y="273" on="1"/>
        <pt x="339" y="115" on="1"/>
        <pt x="339" y="96" on="0"/>
        <pt x="345" y="69" on="0"/>
        <pt x="362" y="51" on="0"/>
        <pt x="391" y="40" on="0"/>
        <pt x="415" y="37" on="1"/>
        <pt x="418" y="37" on="0"/>
        <pt x="422" y="21" on="0"/>
        <pt x="422" y="16" on="1"/>
        <pt x="422" y="10" on="0"/>
        <pt x="418" y="-6" on="0"/>
        <pt x="415" y="-6" on="1"/>
        <pt x="370" y="-6" on="0"/>
        <pt x="290" y="0" on="0"/>
        <pt x="245" y="0" on="1"/>
        <pt x="200" y="0" on="0"/>
        <pt x="109" y="-6" on="0"/>
        <pt x="64" y="-6" on="1"/>
        <pt x="61" y="-6" on="0"/>
        <pt x="57" y="10" on="0"/>
        <pt x="57" y="16" on="1"/>
        <pt x="57" y="21" on="0"/>
        <pt x="61" y="37" on="0"/>
        <pt x="64" y="37" on="1"/>
        <pt x="90" y="40" on="0"/>
        <pt x="124" y="51" on="0"/>
        <pt x="143" y="70" on="0"/>
        <pt x="150" y="98" on="0"/>
        <pt x="150" y="119" on="1"/>
        <pt x="150" y="499" on="1"/>
        <pt x="150" y="520" on="0"/>
        <pt x="143" y="548" on="0"/>
        <pt x="124" y="567" on="0"/>
        <pt x="90" y="578" on="0"/>
        <pt x="64" y="581" on="1"/>
        <pt x="61" y="581" on="0"/>
        <pt x="57" y="597" on="0"/>
        <pt x="57" y="602" on="1"/>
        <pt x="57" y="608" on="0"/>
        <pt x="61" y="624" on="0"/>
        <pt x="64" y="624" on="1"/>
        <pt x="109" y="624" on="0"/>
        <pt x="206" y="618" on="0"/>
        <pt x="251" y="618" on="1"/>
        <pt x="293" y="618" on="0"/>
        <pt x="370" y="623" on="0"/>
        <pt x="415" y="623" on="1"/>
        <pt x="485" y="623" on="0"/>
        <pt x="588" y="599" on="0"/>
        <pt x="656" y="556" on="0"/>
        <pt x="688" y="497" on="0"/>
        <pt x="688" y="463" on="1"/>
        <pt x="688" y="403" on="0"/>
        <pt x="628" y="328" on="0"/>
        <pt x="561" y="306" on="1"/>
        <pt x="686" y="100" on="1"/>
        <pt x="703" y="71" on="0"/>
        <pt x="737" y="45" on="0"/>
        <pt x="770" y="39" on="1"/>
        <pt x="770" y="253" on="1"/>
        <pt x="770" y="272" on="0"/>
        <pt x="766" y="294" on="0"/>
        <pt x="755" y="307" on="0"/>
        <pt x="734" y="313" on="0"/>
        <pt x="718" y="315" on="1"/>
        <pt x="715" y="315" on="0"/>
        <pt x="711" y="328" on="0"/>
        <pt x="711" y="333" on="1"/>
        <pt x="711" y="338" on="0"/>
        <pt x="715" y="352" on="0"/>
        <pt x="718" y="352" on="1"/>
        <pt x="734" y="356" on="0"/>
        <pt x="784" y="371" on="0"/>
        <pt x="836" y="389" on="0"/>
        <pt x="882" y="406" on="0"/>
        <pt x="896" y="413" on="1"/>
        <pt x="899" y="415" on="0"/>
        <pt x="911" y="421" on="0"/>
        <pt x="916" y="421" on="1"/>
        <pt x="927" y="421" on="0"/>
        <pt x="936" y="414" on="0"/>
        <pt x="936" y="409" on="1"/>
        <pt x="932" y="338" on="1"/>
        <pt x="949" y="368" on="0"/>
        <pt x="1019" y="414" on="0"/>
        <pt x="1072" y="414" on="1"/>
        <pt x="1115" y="414" on="0"/>
        <pt x="1184" y="383" on="0"/>
        <pt x="1232" y="328" on="0"/>
        <pt x="1258" y="252" on="0"/>
      </contour>
      <contour>
        <pt x="1087" y="200" on="1"/>
        <pt x="1087" y="277" on="0"/>
        <pt x="1044" y="340" on="0"/>
        <pt x="1012" y="340" on="1"/>
        <pt x="982" y="340" on="0"/>
        <pt x="952" y="314" on="0"/>
        <pt x="935" y="283" on="1"/>
        <pt x="935" y="94" on="1"/>
        <pt x="935" y="62" on="0"/>
        <pt x="968" y="24" on="0"/>
        <pt x="1004" y="24" on="1"/>
        <pt x="1034" y="24" on="0"/>
        <pt x="1067" y="50" on="0"/>
        <pt x="1084" y="97" on="0"/>
        <pt x="1087" y="161" on="0"/>
      </contour>
      <contour>
        <pt x="493" y="445" on="1"/>
        <pt x="493" y="512" on="0"/>
        <pt x="443" y="575" on="0"/>
        <pt x="391" y="575" on="1"/>
        <pt x="359" y="575" on="0"/>
        <pt x="339" y="550" on="0"/>
        <pt x="339" y="518" on="1"/>
        <pt x="339" y="320" on="1"/>
        <pt x="347" y="318" on="0"/>
        <pt x="366" y="317" on="0"/>
        <pt x="375" y="317" on="1"/>
        <pt x="436" y="317" on="0"/>
        <pt x="493" y="375" on="0"/>
      </contour>
    </TTGlyph>
    <TTGlyph name="R_p.lin" xMin="39" yMin="-265" xMax="1327" yMax="690">
      <contour>
        <pt x="1327" y="231" on="1"/>
        <pt x="1327" y="179" on="0"/>
        <pt x="1293" y="87" on="0"/>
        <pt x="1228" y="18" on="0"/>
        <pt x="1134" y="-22" on="0"/>
        <pt x="1074" y="-22" on="1"/>
        <pt x="1041" y="-22" on="0"/>
        <pt x="1000" y="-10" on="0"/>
        <pt x="980" y="1" on="1"/>
        <pt x="980" y="-137" on="1"/>
        <pt x="980" y="-161" on="0"/>
        <pt x="987" y="-192" on="0"/>
        <pt x="1005" y="-210" on="0"/>
        <pt x="1034" y="-219" on="0"/>
        <pt x="1056" y="-221" on="1"/>
        <pt x="1059" y="-222" on="0"/>
        <pt x="1064" y="-238" on="0"/>
        <pt x="1064" y="-243" on="1"/>
        <pt x="1064" y="-249" on="0"/>
        <pt x="1059" y="-265" on="0"/>
        <pt x="1056" y="-265" on="1"/>
        <pt x="1040" y="-265" on="0"/>
        <pt x="999" y="-263" on="0"/>
        <pt x="956" y="-262" on="0"/>
        <pt x="913" y="-260" on="0"/>
        <pt x="895" y="-260" on="1"/>
        <pt x="859" y="-260" on="0"/>
        <pt x="775" y="-265" on="0"/>
        <pt x="743" y="-265" on="1"/>
        <pt x="739" y="-265" on="0"/>
        <pt x="735" y="-249" on="0"/>
        <pt x="735" y="-243" on="1"/>
        <pt x="735" y="-238" on="0"/>
        <pt x="739" y="-222" on="0"/>
        <pt x="743" y="-221" on="1"/>
        <pt x="765" y="-219" on="0"/>
        <pt x="791" y="-210" on="0"/>
        <pt x="805" y="-192" on="0"/>
        <pt x="810" y="-161" on="0"/>
        <pt x="810" y="-137" on="1"/>
        <pt x="810" y="-6" on="1"/>
        <pt x="796" y="-6" on="0"/>
        <pt x="759" y="-4" on="0"/>
        <pt x="723" y="-2" on="0"/>
        <pt x="693" y="0" on="0"/>
        <pt x="686" y="0" on="1"/>
        <pt x="675" y="0" on="0"/>
        <pt x="641" y="-2" on="0"/>
        <pt x="605" y="-4" on="0"/>
        <pt x="571" y="-6" on="0"/>
        <pt x="560" y="-6" on="1"/>
        <pt x="434" y="251" on="1"/>
        <pt x="420" y="280" on="0"/>
        <pt x="376" y="303" on="0"/>
        <pt x="341" y="303" on="1"/>
        <pt x="341" y="122" on="1"/>
        <pt x="341" y="102" on="0"/>
        <pt x="347" y="73" on="0"/>
        <pt x="366" y="53" on="0"/>
        <pt x="400" y="41" on="0"/>
        <pt x="428" y="38" on="1"/>
        <pt x="432" y="37" on="0"/>
        <pt x="436" y="22" on="0"/>
        <pt x="436" y="16" on="1"/>
        <pt x="436" y="10" on="0"/>
        <pt x="432" y="-6" on="0"/>
        <pt x="428" y="-6" on="1"/>
        <pt x="378" y="-6" on="0"/>
        <pt x="289" y="0" on="0"/>
        <pt x="242" y="0" on="1"/>
        <pt x="195" y="0" on="0"/>
        <pt x="97" y="-6" on="0"/>
        <pt x="47" y="-6" on="1"/>
        <pt x="44" y="-6" on="0"/>
        <pt x="39" y="10" on="0"/>
        <pt x="39" y="16" on="1"/>
        <pt x="39" y="22" on="0"/>
        <pt x="44" y="37" on="0"/>
        <pt x="47" y="38" on="1"/>
        <pt x="75" y="41" on="0"/>
        <pt x="113" y="53" on="0"/>
        <pt x="134" y="73" on="0"/>
        <pt x="143" y="102" on="0"/>
        <pt x="143" y="122" on="1"/>
        <pt x="143" y="561" on="1"/>
        <pt x="143" y="581" on="0"/>
        <pt x="134" y="610" on="0"/>
        <pt x="113" y="630" on="0"/>
        <pt x="75" y="643" on="0"/>
        <pt x="47" y="646" on="1"/>
        <pt x="44" y="646" on="0"/>
        <pt x="39" y="662" on="0"/>
        <pt x="39" y="668" on="1"/>
        <pt x="39" y="673" on="0"/>
        <pt x="44" y="690" on="0"/>
        <pt x="47" y="690" on="1"/>
        <pt x="97" y="690" on="0"/>
        <pt x="199" y="684" on="0"/>
        <pt x="246" y="684" on="1"/>
        <pt x="269" y="684" on="0"/>
        <pt x="308" y="686" on="0"/>
        <pt x="347" y="688" on="0"/>
        <pt x="387" y="690" on="0"/>
        <pt x="412" y="690" on="1"/>
        <pt x="493" y="690" on="0"/>
        <pt x="609" y="661" on="0"/>
        <pt x="684" y="611" on="0"/>
        <pt x="719" y="546" on="0"/>
        <pt x="719" y="510" on="1"/>
        <pt x="719" y="441" on="0"/>
        <pt x="654" y="360" on="0"/>
        <pt x="580" y="338" on="1"/>
        <pt x="718" y="108" on="1"/>
        <pt x="738" y="75" on="0"/>
        <pt x="775" y="46" on="0"/>
        <pt x="810" y="41" on="1"/>
        <pt x="810" y="278" on="1"/>
        <pt x="810" y="298" on="0"/>
        <pt x="806" y="323" on="0"/>
        <pt x="794" y="338" on="0"/>
        <pt x="773" y="345" on="0"/>
        <pt x="755" y="347" on="1"/>
        <pt x="751" y="348" on="0"/>
        <pt x="747" y="363" on="0"/>
        <pt x="747" y="368" on="1"/>
        <pt x="747" y="373" on="0"/>
        <pt x="751" y="388" on="0"/>
        <pt x="755" y="388" on="1"/>
        <pt x="773" y="392" on="0"/>
        <pt x="823" y="410" on="0"/>
        <pt x="874" y="429" on="0"/>
        <pt x="921" y="449" on="0"/>
        <pt x="936" y="456" on="1"/>
        <pt x="939" y="458" on="0"/>
        <pt x="952" y="464" on="0"/>
        <pt x="958" y="464" on="1"/>
        <pt x="970" y="464" on="0"/>
        <pt x="981" y="456" on="0"/>
        <pt x="981" y="451" on="1"/>
        <pt x="976" y="373" on="1"/>
        <pt x="994" y="405" on="0"/>
        <pt x="1065" y="456" on="0"/>
        <pt x="1125" y="456" on="1"/>
        <pt x="1172" y="456" on="0"/>
        <pt x="1247" y="421" on="0"/>
        <pt x="1299" y="361" on="0"/>
        <pt x="1327" y="279" on="0"/>
      </contour>
      <contour>
        <pt x="1146" y="223" on="1"/>
        <pt x="1146" y="304" on="0"/>
        <pt x="1100" y="376" on="0"/>
        <pt x="1063" y="376" on="1"/>
        <pt x="1046" y="376" on="0"/>
        <pt x="1024" y="370" on="0"/>
        <pt x="1006" y="355" on="0"/>
        <pt x="990" y="331" on="0"/>
        <pt x="980" y="314" on="1"/>
        <pt x="980" y="102" on="1"/>
        <pt x="980" y="67" on="0"/>
        <pt x="1016" y="26" on="0"/>
        <pt x="1054" y="26" on="1"/>
        <pt x="1087" y="26" on="0"/>
        <pt x="1124" y="56" on="0"/>
        <pt x="1142" y="109" on="0"/>
        <pt x="1146" y="181" on="0"/>
      </contour>
      <contour>
        <pt x="513" y="492" on="1"/>
        <pt x="513" y="569" on="0"/>
        <pt x="455" y="640" on="0"/>
        <pt x="398" y="640" on="1"/>
        <pt x="363" y="640" on="0"/>
        <pt x="341" y="612" on="0"/>
        <pt x="341" y="577" on="1"/>
        <pt x="341" y="351" on="1"/>
        <pt x="349" y="349" on="0"/>
        <pt x="369" y="348" on="0"/>
        <pt x="379" y="348" on="1"/>
        <pt x="449" y="347" on="0"/>
        <pt x="513" y="414" on="0"/>
      </contour>
    </TTGlyph>
    <TTGlyph name="R_p.sc" xMin="34" yMin="-210" xMax="1047" yMax="481">
      <contour>
        <pt x="1047" y="157" on="1"/>
        <pt x="1047" y="122" on="0"/>
        <pt x="1025" y="57" on="0"/>
        <pt x="980" y="8" on="0"/>
        <pt x="911" y="-21" on="0"/>
        <pt x="863" y="-21" on="1"/>
        <pt x="837" y="-21" on="0"/>
        <pt x="791" y="-11" on="0"/>
        <pt x="775" y="-3" on="1"/>
        <pt x="775" y="-115" on="1"/>
        <pt x="775" y="-134" on="0"/>
        <pt x="780" y="-157" on="0"/>
        <pt x="793" y="-172" on="0"/>
        <pt x="815" y="-179" on="0"/>
        <pt x="832" y="-181" on="1"/>
        <pt x="834" y="-181" on="0"/>
        <pt x="838" y="-191" on="0"/>
        <pt x="838" y="-196" on="1"/>
        <pt x="838" y="-201" on="0"/>
        <pt x="834" y="-210" on="0"/>
        <pt x="832" y="-210" on="1"/>
        <pt x="820" y="-210" on="0"/>
        <pt x="786" y="-209" on="0"/>
        <pt x="750" y="-207" on="0"/>
        <pt x="715" y="-206" on="0"/>
        <pt x="701" y="-206" on="1"/>
        <pt x="687" y="-206" on="0"/>
        <pt x="651" y="-207" on="0"/>
        <pt x="614" y="-209" on="0"/>
        <pt x="579" y="-210" on="0"/>
        <pt x="567" y="-210" on="1"/>
        <pt x="564" y="-210" on="0"/>
        <pt x="561" y="-201" on="0"/>
        <pt x="561" y="-196" on="1"/>
        <pt x="561" y="-191" on="0"/>
        <pt x="564" y="-181" on="0"/>
        <pt x="567" y="-181" on="1"/>
        <pt x="584" y="-179" on="0"/>
        <pt x="604" y="-172" on="0"/>
        <pt x="615" y="-157" on="0"/>
        <pt x="619" y="-134" on="0"/>
        <pt x="619" y="-115" on="1"/>
        <pt x="619" y="-5" on="1"/>
        <pt x="592" y="-3" on="0"/>
        <pt x="552" y="2" on="0"/>
        <pt x="527" y="2" on="1"/>
        <pt x="510" y="2" on="0"/>
        <pt x="483" y="0" on="0"/>
        <pt x="457" y="-1" on="0"/>
        <pt x="431" y="-3" on="0"/>
        <pt x="415" y="-3" on="1"/>
        <pt x="339" y="167" on="1"/>
        <pt x="328" y="191" on="0"/>
        <pt x="296" y="208" on="0"/>
        <pt x="274" y="208" on="1"/>
        <pt x="274" y="99" on="1"/>
        <pt x="274" y="43" on="0"/>
        <pt x="323" y="36" on="1"/>
        <pt x="325" y="36" on="0"/>
        <pt x="329" y="21" on="0"/>
        <pt x="329" y="16" on="1"/>
        <pt x="329" y="11" on="0"/>
        <pt x="325" y="-5" on="0"/>
        <pt x="323" y="-5" on="1"/>
        <pt x="306" y="-5" on="0"/>
        <pt x="275" y="-3" on="0"/>
        <pt x="244" y="-2" on="0"/>
        <pt x="210" y="0" on="0"/>
        <pt x="189" y="0" on="1"/>
        <pt x="148" y="0" on="0"/>
        <pt x="74" y="-5" on="0"/>
        <pt x="39" y="-5" on="1"/>
        <pt x="37" y="-5" on="0"/>
        <pt x="34" y="11" on="0"/>
        <pt x="34" y="16" on="1"/>
        <pt x="34" y="21" on="0"/>
        <pt x="37" y="36" on="0"/>
        <pt x="39" y="36" on="1"/>
        <pt x="61" y="39" on="0"/>
        <pt x="86" y="48" on="0"/>
        <pt x="100" y="64" on="0"/>
        <pt x="104" y="90" on="0"/>
        <pt x="104" y="111" on="1"/>
        <pt x="104" y="365" on="1"/>
        <pt x="104" y="386" on="0"/>
        <pt x="100" y="412" on="0"/>
        <pt x="86" y="428" on="0"/>
        <pt x="61" y="437" on="0"/>
        <pt x="39" y="440" on="1"/>
        <pt x="37" y="440" on="0"/>
        <pt x="34" y="455" on="0"/>
        <pt x="34" y="460" on="1"/>
        <pt x="34" y="465" on="0"/>
        <pt x="37" y="481" on="0"/>
        <pt x="39" y="481" on="1"/>
        <pt x="74" y="481" on="0"/>
        <pt x="159" y="476" on="0"/>
        <pt x="200" y="476" on="1"/>
        <pt x="216" y="476" on="0"/>
        <pt x="257" y="477" on="0"/>
        <pt x="299" y="478" on="0"/>
        <pt x="341" y="479" on="0"/>
        <pt x="358" y="479" on="1"/>
        <pt x="455" y="479" on="0"/>
        <pt x="559" y="420" on="0"/>
        <pt x="559" y="361" on="1"/>
        <pt x="559" y="322" on="0"/>
        <pt x="508" y="258" on="0"/>
        <pt x="456" y="238" on="1"/>
        <pt x="553" y="83" on="1"/>
        <pt x="559" y="72" on="0"/>
        <pt x="571" y="58" on="0"/>
        <pt x="585" y="48" on="0"/>
        <pt x="605" y="41" on="0"/>
        <pt x="619" y="38" on="1"/>
        <pt x="619" y="200" on="1"/>
        <pt x="619" y="215" on="0"/>
        <pt x="616" y="232" on="0"/>
        <pt x="607" y="241" on="0"/>
        <pt x="590" y="243" on="0"/>
        <pt x="576" y="245" on="1"/>
        <pt x="574" y="246" on="0"/>
        <pt x="570" y="255" on="0"/>
        <pt x="570" y="259" on="1"/>
        <pt x="570" y="263" on="0"/>
        <pt x="574" y="273" on="0"/>
        <pt x="576" y="273" on="1"/>
        <pt x="590" y="276" on="0"/>
        <pt x="639" y="288" on="0"/>
        <pt x="690" y="301" on="0"/>
        <pt x="736" y="315" on="0"/>
        <pt x="747" y="321" on="1"/>
        <pt x="749" y="322" on="0"/>
        <pt x="757" y="327" on="0"/>
        <pt x="762" y="327" on="1"/>
        <pt x="777" y="327" on="0"/>
        <pt x="777" y="318" on="1"/>
        <pt x="773" y="262" on="1"/>
        <pt x="780" y="274" on="0"/>
        <pt x="806" y="296" on="0"/>
        <pt x="839" y="312" on="0"/>
        <pt x="877" y="322" on="0"/>
        <pt x="895" y="322" on="1"/>
        <pt x="928" y="322" on="0"/>
        <pt x="983" y="301" on="0"/>
        <pt x="1024" y="259" on="0"/>
        <pt x="1047" y="197" on="0"/>
      </contour>
      <contour>
        <pt x="898" y="153" on="1"/>
        <pt x="898" y="186" on="0"/>
        <pt x="888" y="228" on="0"/>
        <pt x="871" y="252" on="0"/>
        <pt x="849" y="261" on="0"/>
        <pt x="837" y="261" on="1"/>
        <pt x="815" y="261" on="0"/>
        <pt x="789" y="238" on="0"/>
        <pt x="775" y="215" on="1"/>
        <pt x="775" y="77" on="1"/>
        <pt x="775" y="51" on="0"/>
        <pt x="802" y="19" on="0"/>
        <pt x="832" y="19" on="1"/>
        <pt x="855" y="19" on="0"/>
        <pt x="882" y="36" on="0"/>
        <pt x="895" y="70" on="0"/>
        <pt x="898" y="120" on="0"/>
      </contour>
      <contour>
        <pt x="389" y="344" on="1"/>
        <pt x="389" y="434" on="0"/>
        <pt x="315" y="434" on="1"/>
        <pt x="290" y="434" on="0"/>
        <pt x="274" y="414" on="0"/>
        <pt x="274" y="391" on="1"/>
        <pt x="274" y="253" on="1"/>
        <pt x="282" y="252" on="0"/>
        <pt x="296" y="251" on="0"/>
        <pt x="304" y="251" on="1"/>
        <pt x="325" y="251" on="0"/>
        <pt x="357" y="259" on="0"/>
        <pt x="378" y="280" on="0"/>
        <pt x="389" y="316" on="0"/>
      </contour>
    </TTGlyph>
    <TTGlyph name="Racute" xMin="40" yMin="-5" xMax="835" yMax="971">
      <component glyphName="R" x="0" y="0" flags="0x204"/>
      <component glyphName="acute.cap" x="236" y="0" flags="0x4"/>
    </TTGlyph>
    <TTGlyph name="Racute.sc" xMin="33" yMin="-5" xMax="639" yMax="759">
      <component glyphName="r.sc" x="0" y="0" flags="0x204"/>
      <component glyphName="acute" x="170" y="15" flags="0x4"/>
    </TTGlyph>
    <TTGlyph name="Rcaron" xMin="40" yMin="-5" xMax="835" yMax="961">
      <component glyphName="R" x="0" y="0" flags="0x204"/>
      <component glyphName="caron.cap" x="175" y="0" flags="0x4"/>
    </TTGlyph>
    <TTGlyph name="Rcaron.sc" xMin="33" yMin="-5" xMax="639" yMax="745">
      <component glyphName="r.sc" x="0" y="0" flags="0x204"/>
      <component glyphName="caron" x="112" y="15" flags="0x4"/>
    </TTGlyph>
    <TTGlyph name="Rcommaaccent" xMin="40" yMin="-332" xMax="835" yMax="690">
      <component glyphName="R" x="0" y="0" flags="0x204"/>
      <component glyphName="commaaccent" x="336" y="-4" flags="0x4"/>
    </TTGlyph>
    <TTGlyph name="Rcommaaccent.sc" xMin="33" yMin="-328" xMax="639" yMax="481">
      <component glyphName="r.sc" x="0" y="0" flags="0x204"/>
      <component glyphName="commaaccent" x="229" y="0" flags="0x4"/>
    </TTGlyph>
    <TTGlyph name="S" xMin="62" yMin="-21" xMax="572" yMax="706">
      <contour>
        <pt x="572" y="206" on="1"/>
        <pt x="572" y="152" on="0"/>
        <pt x="532" y="68" on="0"/>
        <pt x="460" y="10" on="0"/>
        <pt x="361" y="-21" on="0"/>
        <pt x="303" y="-21" on="1"/>
        <pt x="267" y="-21" on="0"/>
        <pt x="207" y="-9" on="0"/>
        <pt x="151" y="7" on="0"/>
        <pt x="96" y="25" on="0"/>
        <pt x="66" y="30" on="1"/>
        <pt x="66" y="50" on="0"/>
        <pt x="65" y="105" on="0"/>
        <pt x="64" y="162" on="0"/>
        <pt x="63" y="214" on="0"/>
        <pt x="62" y="232" on="1"/>
        <pt x="62" y="235" on="0"/>
        <pt x="79" y="240" on="0"/>
        <pt x="85" y="240" on="1"/>
        <pt x="91" y="240" on="0"/>
        <pt x="104" y="237" on="0"/>
        <pt x="106" y="232" on="1"/>
        <pt x="116" y="187" on="0"/>
        <pt x="158" y="112" on="0"/>
        <pt x="213" y="57" on="0"/>
        <pt x="274" y="27" on="0"/>
        <pt x="303" y="27" on="1"/>
        <pt x="364" y="27" on="0"/>
        <pt x="412" y="79" on="0"/>
        <pt x="412" y="122" on="1"/>
        <pt x="412" y="158" on="0"/>
        <pt x="363" y="214" on="0"/>
        <pt x="290" y="262" on="0"/>
        <pt x="205" y="309" on="0"/>
        <pt x="132" y="365" on="0"/>
        <pt x="83" y="437" on="0"/>
        <pt x="83" y="486" on="1"/>
        <pt x="83" y="532" on="0"/>
        <pt x="119" y="613" on="0"/>
        <pt x="187" y="672" on="0"/>
        <pt x="285" y="706" on="0"/>
        <pt x="347" y="706" on="1"/>
        <pt x="377" y="706" on="0"/>
        <pt x="418" y="699" on="0"/>
        <pt x="455" y="689" on="0"/>
        <pt x="497" y="676" on="0"/>
        <pt x="528" y="670" on="1"/>
        <pt x="530" y="626" on="0"/>
        <pt x="533" y="533" on="0"/>
        <pt x="538" y="491" on="1"/>
        <pt x="538" y="488" on="0"/>
        <pt x="521" y="483" on="0"/>
        <pt x="516" y="483" on="1"/>
        <pt x="510" y="483" on="0"/>
        <pt x="495" y="486" on="0"/>
        <pt x="493" y="491" on="1"/>
        <pt x="474" y="569" on="0"/>
        <pt x="400" y="658" on="0"/>
        <pt x="346" y="658" on="1"/>
        <pt x="299" y="658" on="0"/>
        <pt x="245" y="608" on="0"/>
        <pt x="245" y="570" on="1"/>
        <pt x="245" y="536" on="0"/>
        <pt x="293" y="483" on="0"/>
        <pt x="366" y="436" on="0"/>
        <pt x="451" y="388" on="0"/>
        <pt x="524" y="331" on="0"/>
        <pt x="572" y="256" on="0"/>
      </contour>
    </TTGlyph>
    <TTGlyph name="S.sc" xMin="48" yMin="-18" xMax="442" yMax="498">
      <component glyphName="s.sc" x="0" y="0" flags="0x204"/>
    </TTGlyph>
    <TTGlyph name="Sacute" xMin="62" yMin="-21" xMax="572" yMax="986">
      <component glyphName="S" x="0" y="0" flags="0x204"/>
      <component glyphName="acute.cap" x="187" y="15" flags="0x4"/>
    </TTGlyph>
    <TTGlyph name="Sacute.sc" xMin="48" yMin="-18" xMax="442" yMax="769">
      <component glyphName="s.sc" x="0" y="0" flags="0x204"/>
      <component glyphName="acute" x="112" y="25" flags="0x4"/>
    </TTGlyph>
    <TTGlyph name="Scaron" xMin="62" yMin="-21" xMax="572" yMax="976">
      <component glyphName="S" x="0" y="0" flags="0x204"/>
      <component glyphName="caron.cap" x="126" y="15" flags="0x4"/>
    </TTGlyph>
    <TTGlyph name="Scaron.sc" xMin="48" yMin="-18" xMax="442" yMax="755">
      <component glyphName="s.sc" x="0" y="0" flags="0x204"/>
      <component glyphName="caron" x="54" y="25" flags="0x4"/>
    </TTGlyph>
    <TTGlyph name="Scedilla" xMin="62" yMin="-212" xMax="572" yMax="706">
      <contour>
        <pt x="572" y="206" on="1"/>
        <pt x="572" y="157" on="0"/>
        <pt x="538" y="78" on="0"/>
        <pt x="477" y="21" on="0"/>
        <pt x="392" y="-14" on="0"/>
        <pt x="341" y="-19" on="1"/>
        <pt x="340" y="-20" on="0"/>
        <pt x="340" y="-24" on="1"/>
        <pt x="340" y="-32" on="0"/>
        <pt x="350" y="-39" on="1"/>
        <pt x="372" y="-53" on="0"/>
        <pt x="406" y="-91" on="0"/>
        <pt x="406" y="-122" on="1"/>
        <pt x="406" y="-144" on="0"/>
        <pt x="381" y="-177" on="0"/>
        <pt x="344" y="-200" on="0"/>
        <pt x="299" y="-212" on="0"/>
        <pt x="278" y="-212" on="1"/>
        <pt x="240" y="-212" on="0"/>
        <pt x="206" y="-187" on="0"/>
        <pt x="206" y="-172" on="1"/>
        <pt x="206" y="-161" on="0"/>
        <pt x="222" y="-141" on="0"/>
        <pt x="236" y="-141" on="1"/>
        <pt x="246" y="-141" on="0"/>
        <pt x="262" y="-150" on="0"/>
        <pt x="276" y="-162" on="0"/>
        <pt x="290" y="-171" on="0"/>
        <pt x="299" y="-171" on="1"/>
        <pt x="322" y="-171" on="0"/>
        <pt x="322" y="-139" on="1"/>
        <pt x="322" y="-121" on="0"/>
        <pt x="282" y="-92" on="0"/>
        <pt x="260" y="-81" on="1"/>
        <pt x="250" y="-76" on="0"/>
        <pt x="250" y="-66" on="1"/>
        <pt x="250" y="-62" on="0"/>
        <pt x="253" y="-57" on="1"/>
        <pt x="278" y="-20" on="1"/>
        <pt x="247" y="-18" on="0"/>
        <pt x="194" y="-5" on="0"/>
        <pt x="143" y="10" on="0"/>
        <pt x="93" y="25" on="0"/>
        <pt x="66" y="30" on="1"/>
        <pt x="66" y="50" on="0"/>
        <pt x="65" y="105" on="0"/>
        <pt x="64" y="162" on="0"/>
        <pt x="63" y="214" on="0"/>
        <pt x="62" y="232" on="1"/>
        <pt x="62" y="235" on="0"/>
        <pt x="79" y="240" on="0"/>
        <pt x="85" y="240" on="1"/>
        <pt x="91" y="240" on="0"/>
        <pt x="104" y="237" on="0"/>
        <pt x="106" y="232" on="1"/>
        <pt x="116" y="187" on="0"/>
        <pt x="158" y="112" on="0"/>
        <pt x="213" y="57" on="0"/>
        <pt x="274" y="27" on="0"/>
        <pt x="303" y="27" on="1"/>
        <pt x="364" y="27" on="0"/>
        <pt x="412" y="79" on="0"/>
        <pt x="412" y="122" on="1"/>
        <pt x="412" y="158" on="0"/>
        <pt x="363" y="214" on="0"/>
        <pt x="290" y="262" on="0"/>
        <pt x="205" y="309" on="0"/>
        <pt x="132" y="365" on="0"/>
        <pt x="83" y="437" on="0"/>
        <pt x="83" y="486" on="1"/>
        <pt x="83" y="532" on="0"/>
        <pt x="119" y="613" on="0"/>
        <pt x="187" y="672" on="0"/>
        <pt x="285" y="706" on="0"/>
        <pt x="347" y="706" on="1"/>
        <pt x="377" y="706" on="0"/>
        <pt x="418" y="699" on="0"/>
        <pt x="455" y="689" on="0"/>
        <pt x="497" y="676" on="0"/>
        <pt x="528" y="670" on="1"/>
        <pt x="530" y="626" on="0"/>
        <pt x="533" y="533" on="0"/>
        <pt x="538" y="491" on="1"/>
        <pt x="538" y="488" on="0"/>
        <pt x="521" y="483" on="0"/>
        <pt x="516" y="483" on="1"/>
        <pt x="510" y="483" on="0"/>
        <pt x="495" y="486" on="0"/>
        <pt x="493" y="491" on="1"/>
        <pt x="474" y="569" on="0"/>
        <pt x="400" y="658" on="0"/>
        <pt x="346" y="658" on="1"/>
        <pt x="299" y="658" on="0"/>
        <pt x="245" y="608" on="0"/>
        <pt x="245" y="570" on="1"/>
        <pt x="245" y="536" on="0"/>
        <pt x="293" y="483" on="0"/>
        <pt x="366" y="436" on="0"/>
        <pt x="451" y="388" on="0"/>
        <pt x="524" y="331" on="0"/>
        <pt x="572" y="256" on="0"/>
      </contour>
    </TTGlyph>
    <TTGlyph name="Scedilla.sc" xMin="48" yMin="-212" xMax="442" yMax="498">
      <component glyphName="scedilla.sc" x="0" y="0" flags="0x204"/>
    </TTGlyph>
    <TTGlyph name="Scommaaccent" xMin="62" yMin="-342" xMax="572" yMax="706">
      <component glyphName="S" x="0" y="0" flags="0x204"/>
      <component glyphName="commaaccent" x="203" y="-14" flags="0x4"/>
    </TTGlyph>
    <TTGlyph name="Scommaaccent.sc" xMin="48" yMin="-337" xMax="442" yMax="498">
      <component glyphName="s.sc" x="0" y="0" flags="0x204"/>
      <component glyphName="commaaccent" x="127" y="-9" flags="0x4"/>
    </TTGlyph>
    <TTGlyph name="Sigma" xMin="33" yMin="-11" xMax="692" yMax="695">
      <contour>
        <pt x="691" y="261" on="1"/>
        <pt x="688" y="237" on="0"/>
        <pt x="681" y="164" on="0"/>
        <pt x="675" y="86" on="0"/>
        <pt x="670" y="14" on="0"/>
        <pt x="669" y="-9" on="1"/>
        <pt x="639" y="-3" on="0"/>
        <pt x="498" y="0" on="0"/>
        <pt x="370" y="0" on="1"/>
        <pt x="242" y="0" on="0"/>
        <pt x="78" y="-2" on="0"/>
        <pt x="48" y="-9" on="1"/>
        <pt x="42" y="-11" on="0"/>
        <pt x="33" y="1" on="0"/>
        <pt x="33" y="9" on="1"/>
        <pt x="33" y="14" on="0"/>
        <pt x="35" y="16" on="1"/>
        <pt x="341" y="314" on="1"/>
        <pt x="49" y="669" on="1"/>
        <pt x="47" y="673" on="0"/>
        <pt x="47" y="676" on="1"/>
        <pt x="47" y="684" on="0"/>
        <pt x="56" y="695" on="0"/>
        <pt x="62" y="694" on="1"/>
        <pt x="91" y="688" on="0"/>
        <pt x="258" y="685" on="0"/>
        <pt x="379" y="685" on="1"/>
        <pt x="497" y="685" on="0"/>
        <pt x="632" y="688" on="0"/>
        <pt x="660" y="694" on="1"/>
        <pt x="660" y="673" on="0"/>
        <pt x="664" y="614" on="0"/>
        <pt x="669" y="551" on="0"/>
        <pt x="674" y="490" on="0"/>
        <pt x="676" y="467" on="1"/>
        <pt x="676" y="462" on="0"/>
        <pt x="660" y="454" on="0"/>
        <pt x="649" y="454" on="1"/>
        <pt x="633" y="454" on="0"/>
        <pt x="631" y="460" on="1"/>
        <pt x="626" y="492" on="0"/>
        <pt x="598" y="555" on="0"/>
        <pt x="551" y="605" on="0"/>
        <pt x="487" y="636" on="0"/>
        <pt x="447" y="636" on="1"/>
        <pt x="304" y="636" on="1"/>
        <pt x="501" y="392" on="1"/>
        <pt x="241" y="145" on="1"/>
        <pt x="460" y="145" on="1"/>
        <pt x="500" y="145" on="0"/>
        <pt x="563" y="155" on="0"/>
        <pt x="609" y="183" on="0"/>
        <pt x="638" y="232" on="0"/>
        <pt x="646" y="271" on="1"/>
        <pt x="646" y="275" on="0"/>
        <pt x="660" y="275" on="1"/>
        <pt x="672" y="275" on="0"/>
        <pt x="692" y="267" on="0"/>
      </contour>
    </TTGlyph>
    <TTGlyph name="T" xMin="14" yMin="-5" xMax="761" yMax="699">
      <contour>
        <pt x="760" y="456" on="1"/>
        <pt x="761" y="451" on="0"/>
        <pt x="745" y="443" on="0"/>
        <pt x="735" y="443" on="1"/>
        <pt x="730" y="443" on="0"/>
        <pt x="717" y="446" on="0"/>
        <pt x="716" y="448" on="1"/>
        <pt x="709" y="476" on="0"/>
        <pt x="673" y="542" on="0"/>
        <pt x="626" y="598" on="0"/>
        <pt x="574" y="636" on="0"/>
        <pt x="551" y="636" on="1"/>
        <pt x="536" y="636" on="1"/>
        <pt x="512" y="636" on="0"/>
        <pt x="493" y="617" on="0"/>
        <pt x="493" y="597" on="1"/>
        <pt x="493" y="123" on="1"/>
        <pt x="493" y="103" on="0"/>
        <pt x="502" y="74" on="0"/>
        <pt x="523" y="54" on="0"/>
        <pt x="560" y="42" on="0"/>
        <pt x="589" y="39" on="1"/>
        <pt x="592" y="38" on="0"/>
        <pt x="597" y="22" on="0"/>
        <pt x="597" y="17" on="1"/>
        <pt x="597" y="11" on="0"/>
        <pt x="592" y="-5" on="0"/>
        <pt x="589" y="-5" on="1"/>
        <pt x="539" y="-5" on="0"/>
        <pt x="441" y="0" on="0"/>
        <pt x="395" y="0" on="1"/>
        <pt x="348" y="0" on="0"/>
        <pt x="250" y="-5" on="0"/>
        <pt x="200" y="-5" on="1"/>
        <pt x="197" y="-5" on="0"/>
        <pt x="192" y="11" on="0"/>
        <pt x="192" y="17" on="1"/>
        <pt x="192" y="22" on="0"/>
        <pt x="197" y="38" on="0"/>
        <pt x="200" y="39" on="1"/>
        <pt x="228" y="42" on="0"/>
        <pt x="266" y="54" on="0"/>
        <pt x="287" y="74" on="0"/>
        <pt x="296" y="103" on="0"/>
        <pt x="296" y="123" on="1"/>
        <pt x="296" y="597" on="1"/>
        <pt x="296" y="620" on="0"/>
        <pt x="277" y="636" on="0"/>
        <pt x="253" y="636" on="1"/>
        <pt x="245" y="636" on="1"/>
        <pt x="224" y="636" on="0"/>
        <pt x="170" y="601" on="0"/>
        <pt x="116" y="547" on="0"/>
        <pt x="71" y="480" on="0"/>
        <pt x="59" y="448" on="1"/>
        <pt x="58" y="445" on="0"/>
        <pt x="46" y="443" on="0"/>
        <pt x="41" y="443" on="1"/>
        <pt x="33" y="443" on="0"/>
        <pt x="14" y="451" on="0"/>
        <pt x="15" y="456" on="1"/>
        <pt x="21" y="483" on="0"/>
        <pt x="32" y="546" on="0"/>
        <pt x="42" y="611" on="0"/>
        <pt x="50" y="673" on="0"/>
        <pt x="53" y="699" on="1"/>
        <pt x="83" y="693" on="0"/>
        <pt x="257" y="685" on="0"/>
        <pt x="395" y="685" on="1"/>
        <pt x="532" y="685" on="0"/>
        <pt x="712" y="693" on="0"/>
        <pt x="741" y="699" on="1"/>
        <pt x="742" y="675" on="0"/>
        <pt x="747" y="613" on="0"/>
        <pt x="752" y="548" on="0"/>
        <pt x="757" y="483" on="0"/>
      </contour>
    </TTGlyph>
    <TTGlyph name="T.sc" xMin="17" yMin="-5" xMax="576" yMax="488">
      <component glyphName="t.sc" x="0" y="0" flags="0x204"/>
    </TTGlyph>
    <TTGlyph name="Tcaron" xMin="14" yMin="-5" xMax="761" yMax="961">
      <component glyphName="T" x="0" y="0" flags="0x204"/>
      <component glyphName="caron.cap" x="194" y="0" flags="0x4"/>
    </TTGlyph>
    <TTGlyph name="Tcaron.sc" xMin="17" yMin="-5" xMax="576" yMax="745">
      <component glyphName="t.sc" x="0" y="0" flags="0x204"/>
      <component glyphName="caron" x="104" y="15" flags="0x4"/>
    </TTGlyph>
    <TTGlyph name="Tcommaaccent" xMin="14" yMin="-337" xMax="761" yMax="699">
      <component glyphName="T" x="0" y="0" flags="0x204"/>
      <component glyphName="commaaccent" x="277" y="-9" flags="0x4"/>
    </TTGlyph>
    <TTGlyph name="Tcommaaccent.sc" xMin="17" yMin="-332" xMax="576" yMax="488">
      <component glyphName="t.sc" x="0" y="0" flags="0x204"/>
      <component glyphName="commaaccent" x="185" y="-4" flags="0x4"/>
    </TTGlyph>
    <TTGlyph name="Thorn" xMin="34" yMin="-5" xMax="705" yMax="690">
      <contour>
        <pt x="705" y="347" on="1"/>
        <pt x="705" y="299" on="0"/>
        <pt x="664" y="223" on="0"/>
        <pt x="586" y="172" on="0"/>
        <pt x="475" y="145" on="0"/>
        <pt x="405" y="145" on="1"/>
        <pt x="383" y="145" on="0"/>
        <pt x="353" y="149" on="0"/>
        <pt x="335" y="153" on="1"/>
        <pt x="335" y="123" on="1"/>
        <pt x="335" y="103" on="0"/>
        <pt x="344" y="74" on="0"/>
        <pt x="365" y="54" on="0"/>
        <pt x="402" y="42" on="0"/>
        <pt x="431" y="39" on="1"/>
        <pt x="434" y="38" on="0"/>
        <pt x="439" y="22" on="0"/>
        <pt x="439" y="17" on="1"/>
        <pt x="439" y="11" on="0"/>
        <pt x="434" y="-5" on="0"/>
        <pt x="431" y="-5" on="1"/>
        <pt x="381" y="-5" on="0"/>
        <pt x="283" y="0" on="0"/>
        <pt x="236" y="0" on="1"/>
        <pt x="189" y="0" on="0"/>
        <pt x="92" y="-5" on="0"/>
        <pt x="42" y="-5" on="1"/>
        <pt x="38" y="-5" on="0"/>
        <pt x="34" y="11" on="0"/>
        <pt x="34" y="17" on="1"/>
        <pt x="34" y="22" on="0"/>
        <pt x="38" y="38" on="0"/>
        <pt x="42" y="39" on="1"/>
        <pt x="70" y="42" on="0"/>
        <pt x="107" y="54" on="0"/>
        <pt x="128" y="74" on="0"/>
        <pt x="137" y="103" on="0"/>
        <pt x="137" y="123" on="1"/>
        <pt x="137" y="562" on="1"/>
        <pt x="137" y="602" on="0"/>
        <pt x="98" y="640" on="0"/>
        <pt x="42" y="646" on="1"/>
        <pt x="38" y="647" on="0"/>
        <pt x="34" y="663" on="0"/>
        <pt x="34" y="668" on="1"/>
        <pt x="34" y="674" on="0"/>
        <pt x="38" y="690" on="0"/>
        <pt x="42" y="690" on="1"/>
        <pt x="92" y="690" on="0"/>
        <pt x="189" y="685" on="0"/>
        <pt x="236" y="685" on="1"/>
        <pt x="283" y="685" on="0"/>
        <pt x="380" y="690" on="0"/>
        <pt x="431" y="690" on="1"/>
        <pt x="434" y="690" on="0"/>
        <pt x="439" y="674" on="0"/>
        <pt x="439" y="668" on="1"/>
        <pt x="439" y="663" on="0"/>
        <pt x="434" y="647" on="0"/>
        <pt x="431" y="646" on="1"/>
        <pt x="374" y="640" on="0"/>
        <pt x="335" y="602" on="0"/>
        <pt x="335" y="562" on="1"/>
        <pt x="335" y="554" on="1"/>
        <pt x="351" y="555" on="0"/>
        <pt x="386" y="556" on="0"/>
        <pt x="407" y="556" on="1"/>
        <pt x="487" y="556" on="0"/>
        <pt x="600" y="528" on="0"/>
        <pt x="672" y="475" on="0"/>
        <pt x="705" y="397" on="0"/>
      </contour>
      <contour>
        <pt x="499" y="361" on="1"/>
        <pt x="499" y="406" on="0"/>
        <pt x="484" y="463" on="0"/>
        <pt x="457" y="495" on="0"/>
        <pt x="418" y="507" on="0"/>
        <pt x="395" y="507" on="1"/>
        <pt x="363" y="507" on="0"/>
        <pt x="335" y="476" on="0"/>
        <pt x="335" y="444" on="1"/>
        <pt x="335" y="230" on="1"/>
        <pt x="335" y="218" on="0"/>
        <pt x="347" y="204" on="0"/>
        <pt x="363" y="197" on="0"/>
        <pt x="379" y="194" on="0"/>
        <pt x="384" y="194" on="1"/>
        <pt x="444" y="194" on="0"/>
        <pt x="499" y="273" on="0"/>
      </contour>
    </TTGlyph>
    <TTGlyph name="Thorn.sc" xMin="26" yMin="-5" xMax="551" yMax="481">
      <component glyphName="thorn.sc" x="0" y="0" flags="0x204"/>
    </TTGlyph>
    <TTGlyph name="U" xMin="11" yMin="-21" xMax="831" yMax="690">
      <contour>
        <pt x="831" y="668" on="1"/>
        <pt x="831" y="663" on="0"/>
        <pt x="826" y="647" on="0"/>
        <pt x="823" y="646" on="1"/>
        <pt x="766" y="640" on="0"/>
        <pt x="725" y="604" on="0"/>
        <pt x="725" y="562" on="1"/>
        <pt x="725" y="247" on="1"/>
        <pt x="725" y="192" on="0"/>
        <pt x="692" y="94" on="0"/>
        <pt x="625" y="21" on="0"/>
        <pt x="523" y="-21" on="0"/>
        <pt x="454" y="-21" on="1"/>
        <pt x="287" y="-21" on="0"/>
        <pt x="115" y="126" on="0"/>
        <pt x="115" y="279" on="1"/>
        <pt x="115" y="562" on="1"/>
        <pt x="115" y="602" on="0"/>
        <pt x="76" y="640" on="0"/>
        <pt x="19" y="646" on="1"/>
        <pt x="16" y="647" on="0"/>
        <pt x="11" y="663" on="0"/>
        <pt x="11" y="668" on="1"/>
        <pt x="11" y="674" on="0"/>
        <pt x="16" y="690" on="0"/>
        <pt x="19" y="690" on="1"/>
        <pt x="69" y="690" on="0"/>
        <pt x="167" y="685" on="0"/>
        <pt x="214" y="685" on="1"/>
        <pt x="260" y="685" on="0"/>
        <pt x="358" y="690" on="0"/>
        <pt x="408" y="690" on="1"/>
        <pt x="411" y="690" on="0"/>
        <pt x="416" y="674" on="0"/>
        <pt x="416" y="668" on="1"/>
        <pt x="416" y="663" on="0"/>
        <pt x="411" y="647" on="0"/>
        <pt x="408" y="646" on="1"/>
        <pt x="351" y="640" on="0"/>
        <pt x="312" y="602" on="0"/>
        <pt x="312" y="562" on="1"/>
        <pt x="312" y="245" on="1"/>
        <pt x="312" y="144" on="0"/>
        <pt x="389" y="47" on="0"/>
        <pt x="486" y="47" on="1"/>
        <pt x="576" y="47" on="0"/>
        <pt x="660" y="158" on="0"/>
        <pt x="660" y="257" on="1"/>
        <pt x="660" y="562" on="1"/>
        <pt x="660" y="602" on="0"/>
        <pt x="619" y="640" on="0"/>
        <pt x="563" y="646" on="1"/>
        <pt x="559" y="647" on="0"/>
        <pt x="555" y="663" on="0"/>
        <pt x="555" y="668" on="1"/>
        <pt x="555" y="674" on="0"/>
        <pt x="559" y="690" on="0"/>
        <pt x="563" y="690" on="1"/>
        <pt x="597" y="690" on="0"/>
        <pt x="657" y="685" on="0"/>
        <pt x="693" y="685" on="1"/>
        <pt x="711" y="685" on="0"/>
        <pt x="742" y="687" on="0"/>
        <pt x="772" y="688" on="0"/>
        <pt x="804" y="690" on="0"/>
        <pt x="823" y="690" on="1"/>
        <pt x="826" y="690" on="0"/>
        <pt x="831" y="674" on="0"/>
      </contour>
    </TTGlyph>
    <TTGlyph name="U.sc" xMin="21" yMin="-18" xMax="620" yMax="481">
      <component glyphName="u.sc" x="0" y="0" flags="0x204"/>
    </TTGlyph>
    <TTGlyph name="Uacute" xMin="11" yMin="-21" xMax="831" yMax="971">
      <component glyphName="U" x="0" y="0" flags="0x204"/>
      <component glyphName="acute.cap" x="295" y="0" flags="0x4"/>
    </TTGlyph>
    <TTGlyph name="Uacute.sc" xMin="21" yMin="-18" xMax="620" yMax="759">
      <component glyphName="u.sc" x="0" y="0" flags="0x204"/>
      <component glyphName="acute" x="198" y="15" flags="0x4"/>
    </TTGlyph>
    <TTGlyph name="Ubreve" xMin="11" yMin="-21" xMax="831" yMax="956">
      <component glyphName="U" x="0" y="0" flags="0x204"/>
      <component glyphName="breve.cap" x="260" y="0" flags="0x4"/>
    </TTGlyph>
    <TTGlyph name="Ubreve.sc" xMin="21" yMin="-18" xMax="620" yMax="728">
      <component glyphName="u.sc" x="0" y="0" flags="0x204"/>
      <component glyphName="breve" x="139" y="15" flags="0x4"/>
    </TTGlyph>
    <TTGlyph name="Ucircumflex" xMin="11" yMin="-21" xMax="831" yMax="962">
      <component glyphName="U" x="0" y="0" flags="0x204"/>
      <component glyphName="circumflex.cap" x="235" y="0" flags="0x4"/>
    </TTGlyph>
    <TTGlyph name="Ucircumflex.sc" xMin="21" yMin="-18" xMax="620" yMax="761">
      <component glyphName="u.sc" x="0" y="0" flags="0x204"/>
      <component glyphName="circumflex" x="140" y="15" flags="0x4"/>
    </TTGlyph>
    <TTGlyph name="Udieresis" xMin="11" yMin="-21" xMax="831" yMax="944">
      <component glyphName="U" x="0" y="0" flags="0x204"/>
      <component glyphName="dieresis.cap" x="230" y="0" flags="0x4"/>
    </TTGlyph>
    <TTGlyph name="Udieresis.sc" xMin="21" yMin="-18" xMax="620" yMax="736">
      <component glyphName="u.sc" x="0" y="0" flags="0x204"/>
      <component glyphName="dieresis" x="133" y="15" flags="0x4"/>
    </TTGlyph>
    <TTGlyph name="Ugrave" xMin="11" yMin="-21" xMax="831" yMax="971">
      <component glyphName="U" x="0" y="0" flags="0x204"/>
      <component glyphName="grave.cap" x="184" y="0" flags="0x4"/>
    </TTGlyph>
    <TTGlyph name="Ugrave.sc" xMin="21" yMin="-18" xMax="620" yMax="759">
      <component glyphName="u.sc" x="0" y="0" flags="0x204"/>
      <component glyphName="grave" x="91" y="15" flags="0x4"/>
    </TTGlyph>
    <TTGlyph name="Uhungarumlaut" xMin="11" yMin="-21" xMax="831" yMax="971">
      <component glyphName="U" x="0" y="0" flags="0x204"/>
      <component glyphName="hungarumlaut.cap" x="298" y="0" flags="0x4"/>
    </TTGlyph>
    <TTGlyph name="Uhungarumlaut.sc" xMin="21" yMin="-18" xMax="642" yMax="764">
      <component glyphName="u.sc" x="0" y="0" flags="0x204"/>
      <component glyphName="hungarumlaut" x="185" y="15" flags="0x4"/>
    </TTGlyph>
    <TTGlyph name="Umacron" xMin="11" yMin="-21" xMax="831" yMax="881">
      <component glyphName="U" x="0" y="0" flags="0x204"/>
      <component glyphName="macron.cap" x="220" y="0" flags="0x4"/>
    </TTGlyph>
    <TTGlyph name="Umacron.sc" xMin="21" yMin="-18" xMax="620" yMax="666">
      <component glyphName="u.sc" x="0" y="0" flags="0x204"/>
      <component glyphName="macron" x="139" y="15" flags="0x4"/>
    </TTGlyph>
</ttFont>
